<svg xmlns="http://www.w3.org/2000/svg" width="512" height="512" viewBox="0 0 507.052 507.052" style="enable-background:new 0 0 512 512" xml:space="preserve"><path d="m506.877 417.044-16.983-87.106a7.494 7.494 0 0 0-8.797-5.926 7.5 7.5 0 0 0-5.926 8.797l14.354 73.621-11.599-7.812c-12.868-8.666-28.692-10.514-42.825-5.552L388.88 97.595c7.877-4.993 17.866-4.886 25.642.351l17.102 11.519 37.315 191.382c.793 4.065 4.732 6.723 8.797 5.926a7.5 7.5 0 0 0 5.926-8.797l-37.767-193.695a9.257 9.257 0 0 0-3.937-5.939L422.9 85.506c-13.051-8.789-29.917-8.789-42.966 0l-2.387 1.607c-7.959 5.36-18.246 5.361-26.207.001l-2.387-1.608c-13.051-8.789-29.916-8.789-42.967.001l-2.385 1.606c-7.961 5.36-18.247 5.362-26.208 0l-2.386-1.607c-13.05-8.788-29.916-8.79-42.967 0l-2.386 1.607c-7.96 5.362-18.247 5.361-26.206.001l-2.387-1.608c-13.05-8.789-29.916-8.789-42.966 0l-2.386 1.607c-7.959 5.362-18.246 5.362-26.207 0l-2.386-1.607c-13.051-8.789-29.917-8.789-42.966 0l-19.064 12.84a9.256 9.256 0 0 0-3.931 5.936L.174 417.043c-.724 3.707.843 7.452 3.992 9.54s7.208 2.075 10.345-.036l22.993-15.488c11.274-7.595 25.846-7.595 37.122-.001l3.864 2.604c16.366 11.023 37.516 11.023 53.882 0l3.862-2.603c11.276-7.596 25.848-7.593 37.122-.001l3.864 2.604c16.366 11.023 37.516 11.023 53.882 0l3.862-2.603c11.276-7.596 25.848-7.593 37.122-.001l3.863 2.604c16.367 11.023 37.516 11.023 53.883 0l3.862-2.603c11.276-7.595 25.848-7.594 37.122-.001l3.863 2.604c16.367 11.023 37.516 11.023 53.883 0l3.862-2.603c11.276-7.595 25.848-7.595 37.122 0l22.995 15.489a9.288 9.288 0 0 0 5.198 1.592 9.307 9.307 0 0 0 5.145-1.556 9.278 9.278 0 0 0 3.993-9.54zM86.87 401.22l-.917-.617 6.532-41.76a7.5 7.5 0 1 0-14.819-2.318l-5.716 36.541c-14.132-4.962-29.957-3.114-42.826 5.552l-11.598 7.812 57.902-296.966 17.103-11.519c7.775-5.238 17.764-5.345 25.642-.35L82.667 324.562a7.499 7.499 0 0 0 7.418 8.66 7.502 7.502 0 0 0 7.4-6.342l34.759-222.19a38.165 38.165 0 0 0 22.244-.464L125.93 399.914l-1.938 1.306c-11.276 7.594-25.847 7.594-37.122 0zm54.877-9.049L170.368 95.84c7.154-3.074 15.413-2.424 22.089 1.966l-22.574 294.991a47.895 47.895 0 0 0-28.136-.626zm43.853 9.049-1.253-.844 22.612-295.483a38.173 38.173 0 0 0 22.559-1.039l-5.164 296.266-1.633 1.1c-11.274 7.594-25.846 7.594-37.121 0zm53.891-8.765 5.172-296.766a23.29 23.29 0 0 1 17.726 0l5.173 296.766a47.905 47.905 0 0 0-28.071 0zm97.678.341L320.79 178.768a7.5 7.5 0 0 0-14.957 1.145l16.872 220.464-1.253.844c-11.274 7.596-25.847 7.594-37.121 0l-1.633-1.1-5.164-296.266a38.172 38.172 0 0 0 22.559 1.04l3.295 43.057a7.501 7.501 0 0 0 14.957-1.144l-3.75-49.001c6.676-4.389 14.935-5.04 22.089-1.966l28.621 296.332a47.886 47.886 0 0 0-28.136.623zm45.892 8.424-1.94-1.307-28.559-295.686a38.168 38.168 0 0 0 22.245.464l46.291 295.912-.915.616c-11.276 7.596-25.848 7.594-37.122.001z" fill="#cc4f0e" data-original="#000000"/></svg>