<svg xmlns="http://www.w3.org/2000/svg" width="512" height="512" style="enable-background:new 0 0 512 512" xml:space="preserve"><g fill="none" stroke="#cc4f0e" stroke-width="15" stroke-linecap="round" stroke-linejoin="round" stroke-miterlimit="10"><path d="M269.806 394.056h-27.611V48.917c0-.272.108-.532.3-.724l12.781-12.781c.4-.4 1.049-.4 1.449 0l12.781 12.781c.192.192.3.453.3.724v345.139zm82.833-95.732v95.732h27.611V207.562c0-.214-.066-.424-.189-.6l-25.515-36.57c-.587-.841-1.907-.426-1.907.6v92.331m-193.278-92.332v223.064H131.75V207.562c0-.214.066-.424.188-.6l25.515-36.57c.588-.841 1.908-.426 1.908.599z" style="stroke-width:15;stroke-linecap:round;stroke-linejoin:round;stroke-miterlimit:10" data-original="#000000"/><path d="M121.46 421.667h381.486c.858 0 1.554-.696 1.554-1.554v-25.569c0-.167-.027-.332-.079-.488H7.579a1.549 1.549 0 0 0-.079.488v25.569c0 .858.696 1.554 1.554 1.554h77.405m45.291-55.223H60.432m181.762 0h-82.833m193.278 0h-82.833m181.762 0H380.25M269.806 105.928l82.833 118.723m0-48.254L269.806 57.673M41.167 394.056l90.583-129.83" style="stroke-width:15;stroke-linecap:round;stroke-linejoin:round;stroke-miterlimit:10" data-original="#000000"/><path d="M131.75 215.971 7.78 393.655a1.57 1.57 0 0 0-.201.401m496.842 0a1.539 1.539 0 0 0-.201-.401L380.25 215.971m0 48.254 90.583 129.831M159.361 224.651l82.833-118.723m-73.106 56.527-9.727 13.942m82.833-118.724-53.062 76.053M35.111 421.667v53.639c0 .874.709 1.583 1.583 1.583h438.611c.874 0 1.583-.709 1.583-1.583v-53.639" style="stroke-width:15;stroke-linecap:round;stroke-linejoin:round;stroke-miterlimit:10" data-original="#000000"/></g></svg>