<svg width="40" height="40" viewBox="0 0 40 40" fill="none" xmlns="http://www.w3.org/2000/svg">
<g clip-path="url(#clip0_115_879)">
<path d="M38.6267 31.9983L25.8001 19.1718L29.0405 15.9314C31.9833 16.98 35.3344 16.2668 37.5973 14.0036C40.0515 11.5494 40.6961 7.79698 39.2004 4.66649C38.8519 3.93681 37.8857 3.77171 37.3144 4.343L33.4543 8.20317L31.7968 6.54607L35.6573 2.68559C36.2289 2.114 36.0626 1.14781 35.3338 0.799609C32.203 -0.695752 28.4509 -0.051526 25.9964 2.4027C23.7429 4.65611 23.0154 8.00358 24.0686 10.9595L18.3426 16.6855L10.1712 8.51384L9.67556 4.69151C9.63437 4.37383 9.46499 4.08727 9.20681 3.89775L4.20926 0.227405C3.74264 -0.115308 3.09628 -0.0658693 2.68704 0.343371L0.343289 2.68712C-0.0537448 3.08415 -0.113559 3.70732 0.201382 4.17241L3.60257 9.19987C3.78598 9.47087 4.07406 9.65275 4.39724 9.70189L8.69839 10.3556L16.6855 18.3426L10.9594 24.0686C8.00351 23.0155 4.65603 23.743 2.40262 25.9964C-0.0516087 28.451 -0.695835 32.2031 0.799527 35.3336C1.1459 36.059 2.11117 36.2317 2.68551 35.6574L6.54568 31.7969L8.20309 33.4543L4.34292 37.3145C3.77133 37.8861 3.93734 38.8523 4.66641 39.2005C5.79159 39.7382 6.99673 39.9991 8.19333 39.9991C10.3262 39.9991 12.4313 39.1696 14.0036 37.5974C16.257 35.344 16.9845 31.9965 15.9314 29.0406L19.1717 25.8002L31.9983 38.6267C32.8836 39.5124 34.0606 40 35.3125 40C36.5643 40 37.7414 39.5124 38.6267 38.6267C39.5123 37.7414 40 36.5644 40 35.3125C40 34.0607 39.5123 32.8839 38.6267 31.9983ZM5.25662 7.4619L2.6846 3.66033L3.63278 2.71214L7.41574 5.48985L7.71969 7.83635L5.25662 7.4619ZM37.5982 7.3737C37.7978 8.78453 37.4768 10.2341 36.6845 11.4338L35.1114 9.86058L37.5982 7.3737ZM32.6263 2.40209L30.1397 4.88866L28.5662 3.31548C29.7659 2.52324 31.2155 2.20189 32.6263 2.40209ZM2.402 32.6264C2.20211 31.2155 2.52346 29.766 3.3154 28.5663L4.88858 30.1398L2.402 32.6264ZM7.37393 37.5983L9.8605 35.1114L11.4337 36.6846C10.234 37.4768 8.78476 37.7982 7.37393 37.5983ZM13.7207 27.9367C13.3694 28.2877 13.2779 28.8224 13.4918 29.2704C14.3884 31.1466 14.2077 33.3356 13.0908 35.0272C12.7633 34.7 5.5563 27.493 4.97281 26.9092C6.66439 25.7923 8.85342 25.6119 10.7296 26.5082C11.1779 26.7224 11.7123 26.6306 12.0633 26.2793L26.2793 12.0636C26.6302 11.7124 26.7221 11.178 26.5081 10.7297C25.6115 8.8535 25.7922 6.66447 26.9091 4.97289C27.2271 5.29088 34.6264 12.6902 35.0271 13.0909C33.3352 14.2078 31.1465 14.3885 29.2703 13.4922C28.8223 13.2779 28.2876 13.3698 27.9364 13.7207L13.7207 27.9367ZM20.8288 24.1431L24.143 20.8289L25.8371 22.5229L22.5229 25.8368L20.8288 24.1431ZM36.9696 36.9696C36.5265 37.4124 35.9381 37.6563 35.3125 37.6563C34.6869 37.6563 34.0982 37.4124 33.6554 36.9696L24.1803 27.4942L27.4942 24.1803L36.9696 33.6557C37.4124 34.0985 37.6562 34.6869 37.6562 35.3125C37.6562 35.9384 37.4124 36.5268 36.9696 36.9696Z" fill="#AC651E"/>
</g>
<defs>
<clipPath id="clip0_115_879">
<rect width="40" height="40" fill="white"/>
</clipPath>
</defs>
</svg>
