<svg width="40" height="40" viewBox="0 0 40 40" fill="none" xmlns="http://www.w3.org/2000/svg">
<g clip-path="url(#clip0_115_888)">
<path d="M38.8281 0H1.17188C0.524597 0 0 0.524597 0 1.17188V37.2656C0 37.9129 0.524597 38.4375 1.17188 38.4375C2.36328 38.4375 3.01636 38.7222 3.84308 39.0829C4.82941 39.5126 5.94696 40 7.93823 40C8.58521 40 9.11011 39.4754 9.11011 38.8281V30.0061H30.8899V38.8281C30.8899 39.4754 31.4148 40 32.0618 40C33.8113 40 34.8367 39.5465 35.7413 39.1464C36.6013 38.7659 37.3441 38.4375 38.8281 38.4375C39.4754 38.4375 40 37.9129 40 37.2656V1.17188C40 0.524597 39.4754 0 38.8281 0ZM30.8899 13.8312H21.1725V2.34375H30.8899V13.8312ZM18.8287 13.8312H9.11011V2.34375H18.8287V13.8312ZM6.76636 37.5742C5.9668 37.4518 5.40314 37.2061 4.77997 36.9345C4.10797 36.6415 3.36945 36.3193 2.34375 36.1734V2.34375H6.76636V37.5742ZM9.11011 16.1749H18.8287V27.6624H9.11011V16.1749ZM21.1725 27.6624V16.1749H30.8899V27.6624H21.1725ZM37.6562 36.1566C36.3806 36.301 35.5475 36.6693 34.7934 37.0029C34.2697 37.2345 33.8159 37.4353 33.2339 37.551V2.34375H37.6562V36.1566Z" fill="#AC651E"/>
</g>
<defs>
<clipPath id="clip0_115_888">
<rect width="40" height="40" fill="white"/>
</clipPath>
</defs>
</svg>
