<svg width="40" height="40" viewBox="0 0 40 40" fill="none" xmlns="http://www.w3.org/2000/svg">
<path d="M34.0625 0H5.9375C5.29022 0 4.76562 0.524597 4.76562 1.17188V37.6562H3.59375C2.94647 37.6562 2.42188 38.1808 2.42188 38.8281C2.42188 39.4754 2.94647 40 3.59375 40H36.4062C37.0535 40 37.5781 39.4754 37.5781 38.8281C37.5781 38.1808 37.0535 37.6562 36.4062 37.6562H35.2344V1.17188C35.2344 0.524597 34.7098 0 34.0625 0ZM7.10938 2.34375H32.8906V37.6562H30.5469V5.85938C30.5469 5.2121 30.0223 4.6875 29.375 4.6875H10.625C9.97772 4.6875 9.45312 5.2121 9.45312 5.85938V37.6562H7.10938V2.34375ZM28.2031 7.03125V9.375H21.1719V7.03125H28.2031ZM11.7969 18.75V16.4062H18.8281V18.75H11.7969ZM28.2031 14.0625H21.1719V11.7188H28.2031V14.0625ZM18.8281 14.0625H11.7969V11.7188H18.8281V14.0625ZM21.1719 16.4062H28.2031V18.75H21.1719V16.4062ZM18.8281 9.375H11.7969V7.03125H18.8281V9.375ZM11.7969 21.0938H28.2031V37.6562H11.7969V21.0938Z" fill="#AC651E"/>
<path d="M15.3125 23.4375C14.6652 23.4375 14.1406 23.9621 14.1406 24.6094V29.2969C14.1406 29.9442 14.6652 30.4688 15.3125 30.4688C15.9598 30.4688 16.4844 29.9442 16.4844 29.2969V24.6094C16.4844 23.9621 15.9598 23.4375 15.3125 23.4375Z" fill="#AC651E"/>
</svg>
