<svg width="40" height="40" viewBox="0 0 40 40" fill="none" xmlns="http://www.w3.org/2000/svg">
<g clip-path="url(#clip0_115_908)">
<path d="M27.6813 6.13426L20.65 1.44676C20.2564 1.18441 19.7436 1.18441 19.3499 1.44676L12.3187 6.13426C11.9928 6.3516 11.7969 6.71754 11.7969 7.10934V10.625H5.8594C5.38018 10.625 4.94932 10.9167 4.77135 11.3616L0.083853 23.0804C-0.0606001 23.4414 -0.0165376 23.8505 0.201509 24.1725C0.419478 24.4946 0.782994 24.6875 1.1719 24.6875H2.34377V37.5781C2.34377 38.2253 2.86846 38.75 3.51565 38.75H36.4844C37.1316 38.75 37.6563 38.2253 37.6563 37.5781V24.6875H38.8281C39.2171 24.6875 39.5806 24.4946 39.7985 24.1725C40.0166 23.8505 40.0606 23.4414 39.9162 23.0804L35.2287 11.3616C35.0507 10.9167 34.6199 10.625 34.1406 10.625H28.2031V7.10934C28.2031 6.71754 28.0073 6.3516 27.6813 6.13426ZM14.1406 7.73652L20 3.83027L25.8594 7.73652V17.6562H14.1406V7.73652ZM21.1719 36.4062H18.8281V30.5468C18.8281 29.9007 19.3539 29.375 20 29.375C20.6462 29.375 21.1719 29.9007 21.1719 30.5468V36.4062ZM35.3125 36.4062H23.5156V30.5468C23.5156 28.6083 21.9385 27.0312 20 27.0312C18.0615 27.0312 16.4844 28.6083 16.4844 30.5468V36.4062H4.68752V24.6875H35.3125V36.4062ZM33.3473 12.9687L37.0973 22.3437H2.90276L6.65276 12.9687H11.7969V18.8281C11.7969 19.4753 12.3216 20 12.9688 20H27.0313C27.6785 20 28.2031 19.4753 28.2031 18.8281V12.9687H33.3473Z" fill="#AC651E"/>
<path d="M17.6562 15.3125H22.3438C22.9909 15.3125 23.5156 14.7878 23.5156 14.1406V11.7969C23.5156 9.85836 21.9385 8.28125 20 8.28125C18.0615 8.28125 16.4844 9.85836 16.4844 11.7969V14.1406C16.4844 14.7878 17.0091 15.3125 17.6562 15.3125ZM18.8281 11.7969C18.8281 11.1507 19.3538 10.625 20 10.625C20.6462 10.625 21.1719 11.1507 21.1719 11.7969V12.9688H18.8281V11.7969Z" fill="#AC651E"/>
<path d="M8.28125 34.0625H12.9688C13.6159 34.0625 14.1406 33.5378 14.1406 32.8906V30.5469C14.1406 28.6084 12.5635 27.0312 10.625 27.0312C8.68648 27.0312 7.10938 28.6084 7.10938 30.5469V32.8906C7.10938 33.5378 7.63406 34.0625 8.28125 34.0625ZM9.45312 30.5469C9.45312 29.9007 9.97883 29.375 10.625 29.375C11.2712 29.375 11.7969 29.9007 11.7969 30.5469V31.7188H9.45312V30.5469Z" fill="#AC651E"/>
<path d="M27.0312 34.0625H31.7188C32.3659 34.0625 32.8906 33.5378 32.8906 32.8906V30.5469C32.8906 28.6084 31.3135 27.0312 29.375 27.0312C27.4365 27.0312 25.8594 28.6084 25.8594 30.5469V32.8906C25.8594 33.5378 26.3841 34.0625 27.0312 34.0625ZM28.2031 30.5469C28.2031 29.9007 28.7288 29.375 29.375 29.375C30.0212 29.375 30.5469 29.9007 30.5469 30.5469V31.7188H28.2031V30.5469Z" fill="#AC651E"/>
</g>
<defs>
<clipPath id="clip0_115_908">
<rect width="40" height="40" fill="white"/>
</clipPath>
</defs>
</svg>
