<svg width="40" height="40" viewBox="0 0 40 40" fill="none" xmlns="http://www.w3.org/2000/svg">
<path d="M37.3629 38.5946C36.6135 34.9093 33.3364 32.2345 29.5706 32.2345C29.0495 32.2345 28.5362 32.2853 28.0334 32.384C28.6755 31.1822 29.0112 29.8557 29.0112 28.4862V24.1174C29.0112 23.4802 28.502 22.9598 27.8649 22.9459C26.2899 22.9115 24.8119 22.3139 23.7034 21.2634L23.4499 21.0233V6.92961C24.5714 6.01797 25.2895 4.62844 25.2895 3.07398V1.17187C25.2895 0.524687 24.7648 0 24.1176 0H15.8825C15.2353 0 14.7107 0.524687 14.7107 1.17187V3.07398C14.7107 4.62852 15.4288 6.01797 16.5502 6.92961V21.0232L16.2967 21.2634C15.1882 22.3138 13.7103 22.9114 12.1352 22.9458C11.4981 22.9597 10.9889 23.4802 10.9889 24.1173V28.4861C10.9889 29.8557 11.3246 31.1821 11.9667 32.3839C11.4639 32.2852 10.9507 32.2344 10.4295 32.2344C6.6637 32.2344 3.38659 34.9092 2.63721 38.5945C2.56714 38.9392 2.65557 39.2972 2.87815 39.5695C3.10073 39.8419 3.43385 39.9999 3.78557 39.9999H36.2146C36.5663 39.9999 36.8995 39.8419 37.122 39.5695C37.3446 39.2973 37.433 38.9393 37.3629 38.5946ZM17.0544 2.34375H22.9457V3.07398C22.9457 4.52102 21.7684 5.69836 20.3213 5.69836H19.6787C18.2317 5.69836 17.0543 4.52109 17.0543 3.07398V2.34375H17.0544ZM19.6788 8.04203H20.3214C20.5884 8.04203 20.8504 8.02023 21.1061 7.97945V20.3552H18.894V7.97945C19.1497 8.02023 19.4117 8.04203 19.6788 8.04203ZM13.3327 25.1894C15.0571 24.9258 16.6516 24.156 17.9089 22.9645L18.1892 22.699H21.8109L22.0911 22.9645C23.3485 24.156 24.9429 24.9258 26.6674 25.1894V28.4861C26.6674 29.4999 26.4088 30.4827 25.9158 31.3705C25.0972 30.8816 24.1497 30.6094 23.1612 30.6094C22.0158 30.6094 20.911 30.9757 20 31.6388C19.089 30.9758 17.9842 30.6094 16.8389 30.6094C15.8504 30.6094 14.9029 30.8816 14.0842 31.3705C13.5912 30.4827 13.3327 29.4999 13.3327 28.4861V25.1894ZM5.42323 37.6562C6.35971 35.8109 8.28182 34.5782 10.4295 34.5782C11.2109 34.5782 11.9672 34.736 12.6773 35.047C13.2339 35.291 13.8849 35.0686 14.1762 34.535C14.7087 33.5594 15.729 32.9532 16.8389 32.9532C17.7112 32.9532 18.5421 33.3306 19.1186 33.9887C19.3411 34.2427 19.6624 34.3883 20 34.3883C20.3377 34.3883 20.6589 34.2427 20.8814 33.9887C21.458 33.3306 22.2889 32.9532 23.1612 32.9532C24.271 32.9532 25.2914 33.5594 25.8239 34.535C26.115 35.0687 26.766 35.2909 27.3228 35.047C28.0329 34.736 28.7892 34.5782 29.5706 34.5782C31.7182 34.5782 33.6403 35.8109 34.5768 37.6562H5.42323Z" fill="#007FFF"/>
</svg>
