<svg width="24" height="24" viewBox="0 0 24 24" fill="none" xmlns="http://www.w3.org/2000/svg">
<path d="M20.6723 7.29877L21.7265 6.17977C21.9736 5.91745 22.1014 5.5747 22.0863 5.21466C22.0712 4.85456 21.9152 4.52377 21.647 4.28311L20.5983 3.34191C20.0594 2.85825 19.2472 2.8913 18.7493 3.41705L17.7393 4.48359C16.6731 3.7942 15.4959 3.306 14.2547 3.03848V1.40625H15.5957C15.9841 1.40625 16.2989 1.09144 16.2989 0.703125C16.2989 0.314812 15.9841 0 15.5957 0H8.40427C8.01596 0 7.70115 0.314812 7.70115 0.703125C7.70115 1.09144 8.01596 1.40625 8.40427 1.40625H9.7389V3.03984C8.22001 3.36816 6.79688 4.02717 5.5562 4.98089L4.66163 3.98681L5.14135 3.53011C5.4226 3.26236 5.43352 2.81728 5.16577 2.53603C4.89802 2.25478 4.45295 2.24386 4.1717 2.51161L3.21235 3.42492C3.21193 3.4253 3.21146 3.42562 3.21104 3.426C3.20954 3.42736 3.20832 3.42886 3.20687 3.43017L2.22034 4.36936C1.93909 4.63711 1.92816 5.08219 2.19591 5.36344C2.3341 5.50861 2.51954 5.58173 2.7053 5.58173C2.87945 5.58173 3.05391 5.51742 3.18999 5.38786L3.64276 4.95684L4.4994 5.90878C2.50032 7.91039 1.39941 10.5703 1.39941 13.3995C1.39941 16.2309 2.50205 18.893 4.50427 20.8951C6.50645 22.8974 9.16848 24 12 24C14.8315 24 17.4936 22.8974 19.4957 20.8952C21.4979 18.893 22.6006 16.231 22.6006 13.3995C22.6006 11.1838 21.9253 9.07191 20.6723 7.29877ZM19.7169 4.44037L20.6468 5.27503L19.7776 6.19763C19.6855 6.09834 19.592 6.00005 19.4957 5.90377C19.2953 5.70328 19.0878 5.51222 18.8746 5.32997L19.7169 4.44037ZM11.1451 1.40625H12.8485V2.8327C12.5677 2.81058 12.2848 2.79891 12 2.79891C11.7131 2.79891 11.4281 2.81081 11.1451 2.83322V1.40625ZM12 22.5938C6.93024 22.5938 2.80566 18.4692 2.80566 13.3995C2.80566 8.32969 6.93024 4.20516 12 4.20516C17.0698 4.20516 21.1944 8.32969 21.1944 13.3995C21.1944 18.4692 17.0698 22.5938 12 22.5938Z" fill="#007FFF"/>
<path d="M19.8112 13.4142C19.8178 9.00446 16.1742 5.53801 11.9141 5.59243C7.64813 5.63874 4.1918 9.12282 4.1918 13.3996C4.1918 17.705 7.69454 21.2077 12 21.2077C16.2752 21.2077 19.7584 17.7537 19.807 13.4897C19.8097 13.4649 19.8112 13.4397 19.8112 13.4142ZM12.6902 7.03491C15.6525 7.34701 18.0557 9.75643 18.3648 12.7111H12.6902V7.03491ZM12.7031 19.7627V18.6829C12.7031 18.2946 12.3883 17.9798 12 17.9798C11.6117 17.9798 11.2969 18.2946 11.2969 18.6829V19.7627C8.32744 19.4368 5.96279 17.0721 5.63687 14.1027H6.71663C7.10494 14.1027 7.41976 13.7879 7.41976 13.3996C7.41976 13.0112 7.10494 12.6964 6.71663 12.6964H5.63687C5.96232 9.7313 8.3206 7.36923 11.2839 7.03787V13.4142C11.2839 13.8025 11.5987 14.1173 11.987 14.1173H18.3614C18.0294 17.0799 15.6677 19.4373 12.7031 19.7627Z" fill="#007FFF"/>
</svg>
