<svg width="60" height="49" viewBox="0 0 60 49" fill="none" xmlns="http://www.w3.org/2000/svg">
<path d="M59.6843 22.2423L53.0168 11.9583C52.3251 10.8914 51.1528 10.2545 49.8815 10.2545H40.9202C40.1368 10.2545 39.4092 10.4973 38.8079 10.911C38.2408 10.0182 33.7208 4.84315 25.0955 1.88629C20.1181 0.179926 14.4584 -0.538079 9.29024 0.445238C7.97458 0.695432 6.88732 1.63832 6.45267 2.90593L0.953551 18.9465C0.519021 20.214 0.798981 21.6257 1.68445 22.6305C3.97299 25.2281 7.01599 27.5076 10.5034 29.2728H3.73698C1.67624 29.2727 0 30.949 0 33.0096V39.6449C0 40.7273 0.877614 41.605 1.96007 41.605H3.09995C3.08448 41.7828 3.07499 41.9623 3.07499 42.144C3.07499 45.544 5.84107 48.3102 9.24125 48.3102C12.1339 48.3102 14.5665 46.3074 15.2283 43.6161C15.8902 46.3074 18.3228 48.3102 21.2154 48.3102C24.6156 48.3102 27.3817 45.5441 27.3817 42.144C27.3817 41.9623 27.3722 41.7828 27.3567 41.605H39.1434H44.4284C44.4129 41.7828 44.4035 41.9623 44.4035 42.144C44.4035 45.544 47.1695 48.3102 50.5697 48.3102C53.9697 48.3102 56.7359 45.5441 56.7359 42.144C56.7359 41.953 56.7259 41.7643 56.7088 41.5775C58.5599 41.3565 60.0002 39.7779 60.0002 37.8682V23.3085C59.9998 22.9502 59.8968 22.5698 59.6843 22.2423ZM35.4487 12.9579L30.0179 28.7993C29.2302 28.9448 28.4094 29.0457 27.5641 29.1023L33.6971 11.2125C34.3264 11.7728 34.9124 12.3554 35.4487 12.9579ZM4.69604 20.1182L10.1268 4.27679C10.8663 4.14026 11.6356 4.04393 12.4263 3.98569L6.33267 21.7603C5.74709 21.2318 5.19959 20.6837 4.69604 20.1182ZM9.61977 24.2607L16.5563 4.02706C18.9517 4.24081 21.425 4.77214 23.8241 5.59467C26.197 6.40807 28.4213 7.47576 30.402 8.7361L23.443 29.0347C21.093 28.8126 18.6712 28.2874 16.3206 27.4815C13.8985 26.651 11.6314 25.5555 9.61977 24.2607ZM9.24125 44.3898C8.0027 44.3898 6.99525 43.3823 6.99525 42.1439C6.99525 40.9038 8.00493 39.898 9.24125 39.898C10.4751 39.898 11.4871 40.9016 11.4871 42.1439C11.487 43.3823 10.4796 44.3898 9.24125 44.3898ZM21.2154 44.3898C19.977 44.3898 18.9695 43.3823 18.9695 42.1439C18.9695 40.9003 19.983 39.898 21.2154 39.898C22.4493 39.898 23.4614 40.9015 23.4614 42.1439C23.4614 43.3823 22.454 44.3898 21.2154 44.3898ZM37.1832 37.6847H25.4719C24.3361 36.6041 22.8181 35.9779 21.2155 35.9779C19.6371 35.9779 18.1134 36.5867 16.9594 37.6847H13.4976C12.3898 36.6312 10.8844 35.9779 9.24137 35.9779C7.62208 35.9779 6.11025 36.6144 4.98502 37.6847H3.92014V33.1929H37.1831V37.6847H37.1832ZM37.1832 29.2727H33.9998L37.1832 19.987V29.2727ZM53.2989 19.5996L54.4328 21.3484H47.5952V19.5996H53.2989ZM50.5694 44.3898C49.3308 44.3898 48.3234 43.3823 48.3234 42.1439C48.3234 40.9003 49.3369 39.898 50.5694 39.898C51.8031 39.898 52.8153 40.9015 52.8153 42.1439C52.8154 43.3823 51.8078 44.3898 50.5694 44.3898ZM56.0796 37.6848H54.8257C53.7154 36.6288 52.2085 35.978 50.5695 35.978C48.9622 35.978 47.4486 36.6049 46.3131 37.6848H41.1034V31.2328V14.1746H49.7816L50.7572 15.6794H45.6351C44.5526 15.6794 43.675 16.557 43.675 17.6395V23.3085C43.675 24.391 44.5526 25.2686 45.6351 25.2686H56.0796V37.6848Z" fill="#007FFF"/>
</svg>
