<svg width="40" height="40" viewBox="0 0 40 40" fill="none" xmlns="http://www.w3.org/2000/svg">
<path d="M38.4375 0H0.9375C0.419922 0 0 0.419922 0 0.9375C0 1.45508 0.419922 1.875 0.9375 1.875H10V7.5H0.9375C0.419922 7.5 0 7.91992 0 8.4375C0 8.95508 0.419922 9.375 0.9375 9.375H15.2625L17.5 16.0901V20.6741C17.1281 20.614 16.8175 20.4906 16.6016 20.2747C16.2354 19.9084 15.6396 19.9084 15.2734 20.2747C14.9097 20.6409 14.9097 21.2341 15.2734 21.6003C16.0107 22.3364 16.9873 22.5952 18.0908 22.5952C19.4214 22.5952 20.9326 22.218 22.4146 21.8469C24.5166 21.3208 26.8994 20.7275 27.7734 21.6003C28.1396 21.9666 28.7354 21.9666 29.1016 21.6003C29.4653 21.2341 29.4653 20.6409 29.1016 20.2747C28.4998 19.6738 27.7351 19.3938 26.875 19.3105V16.0901L29.1125 9.375H35.9375C37.832 9.375 39.375 7.83325 39.375 5.9375V0.9375C39.375 0.419922 38.9551 0 38.4375 0ZM11.875 1.875H32.5V7.5H11.875V1.875ZM21.9604 20.0281C21.0985 20.2438 20.2077 20.4488 19.375 20.5818V16.875H25V19.3787C24.0187 19.5146 22.9829 19.7725 21.9604 20.0281ZM25.2625 15H19.1125L17.2375 9.375H27.1375L25.2625 15ZM37.5 5.9375C37.5 6.79932 36.7993 7.5 35.9375 7.5H34.375V1.875H37.5V5.9375Z" fill="#007FFF"/>
<path d="M21.9604 23.7779C19.8584 24.3052 17.478 24.8997 16.6016 24.0245C16.2354 23.6582 15.6396 23.6582 15.2734 24.0245C14.9097 24.3907 14.9097 24.9839 15.2734 25.3501C15.8749 25.9507 16.6411 26.2231 17.5 26.3069V28.0491L12.7734 32.7745C12.4097 33.1407 12.4097 33.7339 12.7734 34.1001L17.7734 39.1001C17.9565 39.2832 18.1982 39.3748 18.4375 39.3748C18.6768 39.3748 18.9185 39.2832 19.1016 39.1001L26.6016 31.6001C26.7773 31.4244 26.875 31.1863 26.875 30.9373V24.9508C27.2473 25.0108 27.5578 25.1342 27.7734 25.3501C28.1396 25.7164 28.7354 25.7164 29.1016 25.3501C29.4653 24.9839 29.4653 24.3907 29.1016 24.0245C27.4756 22.4021 24.6704 23.0992 21.9604 23.7779ZM18.4375 37.1116L14.7632 33.4373L19.1016 29.1001C19.2773 28.9244 19.375 28.6863 19.375 28.4373V26.2017C20.3627 26.0667 21.3846 25.8546 22.4146 25.5967C23.2762 25.3811 24.1673 25.1763 25 25.0434V30.5491L18.4375 37.1116Z" fill="#007FFF"/>
</svg>
