<svg width="40" height="37" viewBox="0 0 40 37" fill="none" xmlns="http://www.w3.org/2000/svg">
<path d="M38.8281 22.2612C38.5203 22.2612 38.217 22.2332 37.9202 22.1799V18.9318C37.9202 10.3404 30.9305 3.35078 22.3391 3.35078H22.0385V1.17188C22.0385 0.524687 21.5138 0 20.8666 0H14.4321C13.7849 0 13.2602 0.524687 13.2602 1.17188V2.3568H10.113V1.3232C10.113 0.676016 9.58828 0.151328 8.94109 0.151328C8.29391 0.151328 7.76922 0.676016 7.76922 1.3232V2.35687H1.17188C0.524687 2.35687 0 2.88156 0 3.52875V12.8813C0 13.5285 0.524687 14.0532 1.17188 14.0532H7.76922V15.0869C7.76922 15.7341 8.29391 16.2588 8.94109 16.2588C9.58828 16.2588 10.113 15.7341 10.113 15.0869V14.0532H13.2602V15.2381C13.2602 15.8853 13.7849 16.41 14.4321 16.41H20.8666C21.5138 16.41 22.0385 15.8853 22.0385 15.2381V12.942H22.1882C24.9855 12.942 27.2613 15.2178 27.2613 18.0151V21.0308C27.1065 21.0674 26.9574 21.1357 26.8245 21.2362C25.9376 21.9067 24.8798 22.2612 23.7656 22.2612C22.6514 22.2612 21.5937 21.9068 20.7068 21.2362C20.2885 20.92 19.7113 20.92 19.2932 21.2362C18.4063 21.9067 17.3486 22.2612 16.2345 22.2612C15.1202 22.2612 14.0624 21.9068 13.1756 21.2362C12.7576 20.92 12.1802 20.9199 11.762 21.2362C10.8751 21.9068 9.81734 22.2612 8.7032 22.2612C7.58906 22.2612 6.53125 21.9068 5.64437 21.2362C5.22609 20.92 4.64891 20.92 4.23078 21.2362C3.34391 21.9068 2.28617 22.2612 1.17188 22.2612C0.524687 22.2612 0 22.7859 0 23.4331V35.6488C0 36.2959 0.524687 36.8206 1.17188 36.8206H38.8281C39.4753 36.8206 40 36.2959 40 35.6488V23.4331C40 22.7859 39.4753 22.2612 38.8281 22.2612ZM2.34375 11.7095V4.70062H7.76922V11.7095H2.34375ZM10.113 11.7095V4.70062H13.2602V11.7095H10.113ZM19.6948 14.0662H15.6041V2.34375H19.6948V14.0662ZM22.1883 10.5983H22.0386V5.69445H22.3391C29.6382 5.69445 35.5765 11.6327 35.5765 18.9317V21.1185C35.1856 20.9275 34.7129 20.9662 34.3559 21.2361C33.4689 21.9067 32.4112 22.2612 31.297 22.2612C30.7119 22.2612 30.1427 22.1625 29.6052 21.9725V18.015C29.6051 13.9255 26.2779 10.5983 22.1883 10.5983ZM4.9375 23.5801C6.07461 24.2529 7.36102 24.605 8.70312 24.605C10.0452 24.605 11.3317 24.2529 12.4688 23.5801C13.6058 24.2529 14.8922 24.605 16.2344 24.605C17.5766 24.605 18.863 24.2529 19.9999 23.5801C21.137 24.2529 22.4234 24.605 23.7655 24.605C25.1078 24.605 26.3941 24.2529 27.5312 23.5801C28.6682 24.2529 29.9546 24.605 31.2968 24.605C32.639 24.605 33.9254 24.2529 35.0624 23.5801C35.8637 24.0542 36.7392 24.3691 37.6561 24.5138V28.7613C36.977 28.6013 36.3379 28.3021 35.7692 27.872C35.3512 27.5559 34.7738 27.5558 34.3556 27.872C33.4687 28.5427 32.4109 28.8971 31.2968 28.8971C30.1825 28.8971 29.1248 28.5427 28.238 27.872C27.8198 27.5558 27.2425 27.5558 26.8244 27.872C25.9375 28.5426 24.8798 28.8971 23.7655 28.8971C22.6513 28.8971 21.5936 28.5427 20.7067 27.872C20.2884 27.5559 19.7113 27.5559 19.2931 27.872C18.4062 28.5426 17.3485 28.8971 16.2344 28.8971C15.1201 28.8971 14.0623 28.5427 13.1755 27.872C12.7575 27.5559 12.1802 27.5558 11.762 27.872C10.875 28.5427 9.81727 28.8971 8.70312 28.8971C7.58898 28.8971 6.53117 28.5427 5.6443 27.872C5.22602 27.5559 4.64883 27.5559 4.2307 27.872C3.66203 28.302 3.02281 28.6013 2.34375 28.7613V24.5138C3.2607 24.3691 4.13617 24.0543 4.9375 23.5801ZM2.34375 34.4769V31.1488C3.26062 31.0041 4.13625 30.6901 4.9375 30.2159C6.07461 30.8888 7.36102 31.2409 8.70312 31.2409C10.0452 31.2409 11.3317 30.8888 12.4688 30.2159C13.6058 30.8888 14.8922 31.2409 16.2344 31.2409C17.5766 31.2409 18.863 30.8888 19.9999 30.2159C21.137 30.8888 22.4234 31.2409 23.7655 31.2409C25.1078 31.2409 26.3941 30.8888 27.5312 30.2159C28.6682 30.8888 29.9546 31.2409 31.2968 31.2409C32.639 31.2409 33.9254 30.8888 35.0624 30.2159C35.8637 30.6901 36.7393 31.0041 37.6561 31.1488V34.4769H2.34375Z" fill="#007FFF"/>
</svg>
