<svg width="24" height="24" viewBox="0 0 24 24" fill="none" xmlns="http://www.w3.org/2000/svg">
<path d="M20.46 9.63031C20.3196 8.16922 19.8032 6.76939 18.9612 5.56713C18.1191 4.36486 16.9801 3.40114 15.655 2.7698C14.3299 2.13846 12.8639 1.86103 11.3997 1.96451C9.93555 2.068 8.52314 2.54887 7.3 3.36031C6.2492 4.06295 5.36706 4.98961 4.71695 6.0737C4.06684 7.15779 3.6649 8.37241 3.54 9.63031C3.41749 10.88 3.57468 12.1412 4.00017 13.3226C4.42567 14.5039 5.1088 15.5758 6 16.4603L11.3 21.7703C11.393 21.864 11.5036 21.9384 11.6254 21.9892C11.7473 22.04 11.878 22.0661 12.01 22.0661C12.142 22.0661 12.2727 22.04 12.3946 21.9892C12.5164 21.9384 12.627 21.864 12.72 21.7703L18 16.4603C18.8912 15.5758 19.5743 14.5039 19.9998 13.3226C20.4253 12.1412 20.5825 10.88 20.46 9.63031ZM16.6 15.0503L12 19.6503L7.4 15.0503C6.72209 14.3724 6.20281 13.5526 5.87947 12.6501C5.55614 11.7475 5.43679 10.7845 5.53 9.83031C5.62382 8.86141 5.93177 7.92547 6.43157 7.09015C6.93138 6.25483 7.61056 5.54102 8.42 5.00031C9.48095 4.29554 10.7263 3.9196 12 3.9196C13.2737 3.9196 14.5191 4.29554 15.58 5.00031C16.387 5.53893 17.0647 6.24959 17.5644 7.08125C18.064 7.9129 18.3733 8.84491 18.47 9.81031C18.5663 10.7677 18.4484 11.7346 18.125 12.6409C17.8016 13.5471 17.2807 14.3701 16.6 15.0503ZM12 6.00031C11.11 6.00031 10.24 6.26423 9.49994 6.7587C8.75992 7.25316 8.18314 7.95597 7.84255 8.77823C7.50195 9.6005 7.41284 10.5053 7.58647 11.3782C7.7601 12.2511 8.18869 13.053 8.81802 13.6823C9.44736 14.3116 10.2492 14.7402 11.1221 14.9138C11.995 15.0875 12.8998 14.9984 13.7221 14.6578C14.5443 14.3172 15.2471 13.7404 15.7416 13.0004C16.2361 12.2604 16.5 11.3903 16.5 10.5003C16.4974 9.30765 16.0224 8.16459 15.1791 7.32125C14.3357 6.4779 13.1927 6.00295 12 6.00031ZM12 13.0003C11.5055 13.0003 11.0222 12.8537 10.6111 12.579C10.2 12.3043 9.87952 11.9138 9.6903 11.457C9.50109 11.0002 9.45158 10.4975 9.54804 10.0126C9.6445 9.52763 9.88261 9.08217 10.2322 8.73254C10.5819 8.38291 11.0273 8.14481 11.5123 8.04835C11.9972 7.95188 12.4999 8.00139 12.9567 8.19061C13.4135 8.37983 13.804 8.70026 14.0787 9.11138C14.3534 9.52251 14.5 10.0059 14.5 10.5003C14.5 11.1634 14.2366 11.7992 13.7678 12.2681C13.2989 12.7369 12.663 13.0003 12 13.0003Z" fill="#007FFF"/>
</svg>
