<svg width="210" height="70" viewBox="0 0 210 70" fill="none" xmlns="http://www.w3.org/2000/svg">
<mask id="mask0_4616_279" style="mask-type:luminance" maskUnits="userSpaceOnUse" x="0" y="0" width="69" height="69">
<path d="M68.1176 0H0V68.2323H68.1176V0Z" fill="white"/>
</mask>
<g mask="url(#mask0_4616_279)">
<path d="M40.6288 21.4477L56.2807 -0.0272808H48.5213L40.6288 21.4477Z" fill="#FD5118"/>
<path d="M56.9862 -0.0272808L42.924 22.9866L67.8667 -0.0272808H56.9862Z" fill="#FD5118"/>
<path d="M38.1028 20.3982L47.537 -0.0272808H41.2878L38.1028 20.3982Z" fill="#FD5118"/>
<path d="M35.4106 19.8647L40.182 -0.0272808H34.591L35.4106 19.8647Z" fill="#FD5118"/>
<path d="M-0.095459 26.5548L19.1467 29.5647L19.516 29.3065L-0.095459 20.2173V26.5548Z" fill="#FD5118"/>
<path d="M-0.095459 34.4518V43.061L11.4974 34.9301L-0.095459 34.4518Z" fill="#FD5118"/>
<path d="M-0.095459 33.3125L14.673 32.703L16.2724 31.5811L-0.095459 27.6426V33.3125Z" fill="#FD5118"/>
<path d="M29.9189 20.3982L26.7339 -0.0272808H20.486L29.9189 20.3982Z" fill="#FD5118"/>
<path d="M-0.095459 19.2544L21.5964 27.2536L-0.095459 11.3925V19.2544Z" fill="#FD5118"/>
<path d="M44.8864 24.9523L68.1176 10.7155V-0.0272808H67.8709L44.8864 24.9523Z" fill="#FD5118"/>
<path d="M56.5242 34.9301L68.1173 43.061V34.4518L56.5242 34.9301Z" fill="#FD5118"/>
<path d="M23.1341 24.9541L0.159265 -0.0272808H-0.095459V10.7155L23.1341 24.9541Z" fill="#FD5118"/>
<path d="M33.4305 -0.0272808H27.8398L32.6109 19.8647L33.4305 -0.0272808Z" fill="#FD5118"/>
<path d="M68.1173 27.6413L51.7493 31.5811L53.3485 32.703L68.1173 33.313V27.6413Z" fill="#FD5118"/>
<path d="M27.392 21.4481L19.5008 -0.0272808H11.7453L27.392 21.4481Z" fill="#FD5118"/>
<path d="M46.4252 27.2545L68.1176 19.2544V11.3939L46.4252 27.2545Z" fill="#FD5118"/>
<path d="M25.099 22.9853L11.0393 -0.0272808H0.164062L25.099 22.9853Z" fill="#FD5118"/>
<path d="M68.1177 26.5548V20.2173L48.5061 29.3065L48.8757 29.5656L68.1177 26.5548Z" fill="#FD5118"/>
<path d="M34.0106 23.0498L-0.095459 46.9714V68.3002H68.1177V46.9714L34.0106 23.0498Z" fill="#007FFF"/>
</g>
<path d="M88.0743 33.3271C86.7286 33.3271 85.3581 33.1555 83.9633 32.8123C82.5928 32.4937 81.4429 32.0647 80.5129 31.5255L80.7332 26.4147H81.7976L82.9355 28.9517C83.2782 29.6626 83.6329 30.2509 84 30.7166C84.367 31.1823 84.8566 31.5377 85.4682 31.7828C85.8843 31.9544 86.2757 32.077 86.6428 32.1505C87.0342 32.1995 87.4627 32.224 87.9275 32.224C89.4201 32.224 90.5947 31.8441 91.4513 31.0842C92.3322 30.2999 92.7727 29.2704 92.7727 27.9958C92.7727 26.8437 92.4667 25.9368 91.855 25.2749C91.2678 24.6131 90.3134 23.9758 88.992 23.363L87.487 22.7012C85.4315 21.7943 83.8041 20.7403 82.6052 19.5392C81.4306 18.3381 80.8433 16.7448 80.8433 14.7594C80.8433 13.2887 81.2103 12.0386 81.9445 11.0091C82.7029 9.9551 83.743 9.14621 85.0645 8.58242C86.3859 8.01864 87.9275 7.73677 89.6894 7.73677C90.9865 7.73677 92.1977 7.90834 93.3233 8.25151C94.4735 8.59469 95.4766 9.0604 96.3332 9.64869L96.0762 14.2079H95.0118L93.6536 11.4503C93.2622 10.6414 92.8828 10.0654 92.5157 9.72222C92.173 9.35454 91.7449 9.12167 91.231 9.02364C90.9374 8.9746 90.6804 8.93783 90.4602 8.91333C90.2643 8.88883 89.9954 8.87656 89.6527 8.87656C88.4537 8.87656 87.4136 9.23197 86.5327 9.94283C85.6761 10.6291 85.248 11.5851 85.248 12.8107C85.248 13.9873 85.5783 14.9432 86.239 15.6786C86.8997 16.4139 87.8541 17.0635 89.1021 17.6273L90.7539 18.3259C93.1274 19.3554 94.8282 20.4584 95.856 21.6349C96.8838 22.787 97.3976 24.27 97.3976 26.0838C97.3976 28.2409 96.5777 29.9935 94.9383 31.3416C93.3233 32.6653 91.0352 33.3271 88.0743 33.3271ZM105.428 33.2168C104.474 33.2168 103.606 33.0452 102.822 32.702C102.039 32.3343 101.415 31.7461 100.95 30.9372C100.51 30.1038 100.302 29.013 100.326 27.6648L100.436 18.4362C100.436 17.8969 100.351 17.5047 100.18 17.2596C100.008 17.0145 99.7023 16.8429 99.2619 16.7448L98.8214 16.5978V15.936L105.098 14.7226L105.502 15.1271L105.318 20.3113V28.6576C105.318 29.491 105.539 30.1038 105.979 30.496C106.444 30.8636 107.019 31.0475 107.704 31.0475C108.414 31.0475 109.05 30.9494 109.613 30.7533C110.2 30.5327 110.8 30.2141 111.412 29.7974L111.522 18.4729C111.522 17.9091 111.436 17.517 111.265 17.2964C111.118 17.0758 110.824 16.9042 110.384 16.7816L109.98 16.6713V16.0095L116.11 14.7226L116.514 15.1271L116.404 20.3113V29.9444C116.404 30.4592 116.465 30.8759 116.587 31.1945C116.734 31.4887 117.04 31.7093 117.505 31.8564L117.982 32.0034V32.702L111.779 33.0697L111.448 30.7533C110.616 31.4642 109.711 32.0525 108.732 32.5182C107.753 32.9839 106.652 33.2168 105.428 33.2168ZM119.47 32.702V32.0034L120.057 31.8564C120.864 31.6113 121.268 31.0107 121.268 30.0547V19.2083C121.243 18.6935 121.158 18.3014 121.011 18.0317C120.864 17.7376 120.546 17.5415 120.057 17.4434L119.47 17.2964V16.6345L125.416 14.502L125.856 14.9065L126.113 17.1861C126.994 16.4017 127.973 15.7644 129.05 15.2741C130.151 14.7594 131.227 14.502 132.28 14.502C133.895 14.502 135.131 14.9432 135.987 15.8257C136.868 16.7081 137.309 18.0562 137.309 19.8701V30.0915C137.309 31.0475 137.749 31.648 138.63 31.8931L139.034 32.0034V32.702H130.591V32.0034L131.142 31.8564C131.95 31.5867 132.353 30.9862 132.353 30.0547V19.1347C132.353 18.2768 132.17 17.6518 131.803 17.2596C131.436 16.8674 130.824 16.6713 129.967 16.6713C128.768 16.6713 127.52 17.1983 126.223 18.2523V30.0915C126.223 31.0475 126.652 31.648 127.508 31.8931L127.875 32.0034V32.702H119.47ZM140.546 32.702V32.0034L141.134 31.8564C141.941 31.6113 142.345 31.0107 142.345 30.0547V19.2083C142.321 18.6935 142.235 18.3014 142.088 18.0317C141.941 17.7376 141.623 17.5415 141.134 17.4434L140.546 17.2964V16.6345L146.493 14.502L146.933 14.9065L147.19 17.1861C148.071 16.4017 149.05 15.7644 150.127 15.2741C151.228 14.7594 152.305 14.502 153.357 14.502C154.972 14.502 156.208 14.9432 157.064 15.8257C157.945 16.7081 158.386 18.0562 158.386 19.8701V30.0915C158.386 31.0475 158.826 31.648 159.707 31.8931L160.111 32.0034V32.702H151.668V32.0034L152.219 31.8564C153.026 31.5867 153.43 30.9862 153.43 30.0547V19.1347C153.43 18.2768 153.247 17.6518 152.88 17.2596C152.513 16.8674 151.901 16.6713 151.044 16.6713C149.845 16.6713 148.597 17.1983 147.3 18.2523V30.0915C147.3 31.0475 147.729 31.648 148.585 31.8931L148.952 32.0034V32.702H140.546ZM163.743 41.563C162.764 41.563 161.993 41.33 161.43 40.8644C160.867 40.3988 160.586 39.7858 160.586 39.0261C160.586 38.3398 160.818 37.7883 161.284 37.3715C161.773 36.9794 162.311 36.7832 162.899 36.7832C163.51 36.7832 164.012 36.8935 164.404 37.1141C164.795 37.3347 165.138 37.6533 165.431 38.0701L165.652 38.3642C166.214 39.0505 166.74 39.0384 167.23 38.3275C167.548 37.9107 167.854 37.3959 168.148 36.7832C168.466 36.1706 168.808 35.3617 169.175 34.3566L162.201 17.664C162.03 17.1983 161.834 16.8429 161.614 16.5978C161.394 16.3281 161.063 16.1075 160.623 15.936L159.999 15.7154V15.0535H169.065V15.7154L168.294 15.936C167.756 16.1075 167.462 16.3772 167.413 16.7448C167.389 17.088 167.474 17.5415 167.67 18.1053L171.414 27.8855L175.012 18.0317C175.207 17.4925 175.28 17.039 175.232 16.6713C175.183 16.3036 174.877 16.0585 174.314 15.936L173.507 15.7154V15.0535H178.976V15.7154L178.168 15.9727C177.63 16.1198 177.238 16.3404 176.994 16.6345C176.773 16.9042 176.565 17.3086 176.37 17.8479L170.497 33.658C169.518 36.3544 168.515 38.3398 167.487 39.6143C166.483 40.9136 165.235 41.563 163.743 41.563ZM182.766 17.7743L182.068 15.1271C181.921 14.4162 181.738 13.6319 181.518 12.7739C181.297 11.8915 181.102 11.0704 180.93 10.3105C180.784 9.52612 180.71 8.9256 180.71 8.50889C180.71 7.65096 180.942 6.98915 181.408 6.52343C181.872 6.03319 182.484 5.78808 183.243 5.78808C183.977 5.78808 184.576 6.03319 185.041 6.52343C185.531 6.98915 185.776 7.65096 185.776 8.50889C185.776 8.9256 185.69 9.52612 185.519 10.3105C185.372 11.0704 185.188 11.8915 184.968 12.7739C184.772 13.6319 184.601 14.4162 184.454 15.1271L183.757 17.7743H182.766ZM192.887 33.2168C191.712 33.2168 190.648 33.082 189.693 32.8123C188.763 32.5672 187.87 32.2118 187.014 31.7461V27.4075H188.005L189.106 29.5032C189.571 30.4102 190.097 31.0842 190.684 31.5255C191.296 31.9667 192.067 32.1873 192.997 32.1873C194.147 32.1873 195.065 31.9422 195.75 31.4519C196.435 30.9372 196.777 30.2509 196.777 29.3929C196.777 28.6085 196.52 27.9713 196.007 27.481C195.493 26.9908 194.575 26.5373 193.254 26.1206L191.639 25.6059C190.195 25.1646 189.045 24.5028 188.188 23.6204C187.356 22.7135 186.94 21.5859 186.94 20.2378C186.94 19.1838 187.222 18.2278 187.784 17.3699C188.347 16.4875 189.167 15.7889 190.244 15.2741C191.321 14.7594 192.63 14.502 194.171 14.502C195.175 14.502 196.092 14.6246 196.924 14.8697C197.781 15.0903 198.613 15.4089 199.42 15.8257L199.2 19.7598H198.246L197.108 17.664C196.716 16.8797 196.313 16.3404 195.896 16.0463C195.505 15.7276 194.893 15.5683 194.061 15.5683C193.18 15.5683 192.397 15.8012 191.712 16.2669C191.051 16.7081 190.721 17.3331 190.721 18.142C190.721 18.9019 191.002 19.5269 191.565 20.0172C192.128 20.4829 193.033 20.9241 194.281 21.3408L195.86 21.8188C197.646 22.3826 198.919 23.1302 199.677 24.0616C200.436 24.9931 200.815 26.1083 200.815 27.4075C200.815 29.1478 200.118 30.5572 198.723 31.6358C197.352 32.6898 195.407 33.2168 192.887 33.2168ZM80.256 61.3384V60.5663L81.0268 60.3457C81.5163 60.1986 81.822 59.9904 81.9445 59.7206C82.0913 59.4265 82.1647 59.022 82.1647 58.5073C82.189 57.0857 82.2014 55.6638 82.2014 54.2422C82.2014 52.8207 82.2014 51.3867 82.2014 49.9404V48.4329C82.2014 47.0114 82.2014 45.5894 82.2014 44.1679C82.2014 42.7463 82.189 41.3244 82.1647 39.9028C82.1647 39.3881 82.1036 38.996 81.9812 38.7263C81.8587 38.4321 81.553 38.2115 81.0635 38.0644L80.256 37.8071V37.0349H90.5336C93.3967 37.0349 95.599 37.5865 97.1407 38.6895C98.7067 39.7681 99.4899 41.2876 99.4899 43.2487C99.4899 44.3273 99.0617 45.418 98.2052 46.521C97.3733 47.624 96.0886 48.4697 94.351 49.058L99.343 58.8014C99.7592 59.6103 100.408 60.1618 101.288 60.456L101.986 60.603V61.3384H95.4889L90.0197 49.8669H87.3769C87.3769 51.6073 87.3769 53.176 87.3769 54.5731C87.3769 55.9703 87.3893 57.2816 87.4136 58.5073C87.4136 58.9976 87.487 59.3897 87.6339 59.6838C87.805 59.978 88.1234 60.1862 88.5882 60.3089L89.4692 60.5663V61.3384H80.256ZM87.3769 48.8006H89.359C91.0966 48.8006 92.3689 48.3594 93.1765 47.477C93.984 46.5945 94.3877 45.2465 94.3877 43.4325C94.3877 41.6185 93.9963 40.2829 93.2132 39.4248C92.4547 38.5424 91.2187 38.1012 89.5059 38.1012H87.4136C87.4136 39.0572 87.4013 40.0375 87.3769 41.0426C87.3769 42.023 87.3769 43.1384 87.3769 44.3885C87.3769 45.6142 87.3769 47.0849 87.3769 48.8006ZM111.763 61.8531C109.952 61.8531 108.361 61.4731 106.991 60.7133C105.645 59.9536 104.593 58.875 103.834 57.4778C103.1 56.0806 102.733 54.4137 102.733 52.4774C102.733 50.5411 103.124 48.8741 103.908 47.477C104.715 46.0798 105.792 45.0135 107.138 44.2782C108.508 43.5184 110.05 43.1384 111.763 43.1384C113.476 43.1384 115.005 43.5184 116.351 44.2782C117.721 45.0135 118.798 46.0798 119.581 47.477C120.389 48.8497 120.792 50.5163 120.792 52.4774C120.792 54.4137 120.413 56.093 119.654 57.5145C118.92 58.9117 117.88 59.9904 116.534 60.7501C115.188 61.4855 113.598 61.8531 111.763 61.8531ZM111.763 60.8236C112.644 60.8236 113.353 60.5907 113.892 60.1251C114.454 59.6347 114.858 58.789 115.103 57.5881C115.348 56.3871 115.47 54.7078 115.47 52.5509C115.47 50.3692 115.348 48.6779 115.103 47.477C114.858 46.2513 114.454 45.4056 113.892 44.94C113.353 44.4496 112.644 44.2046 111.763 44.2046C110.882 44.2046 110.172 44.4496 109.634 44.94C109.095 45.4056 108.691 46.2513 108.422 47.477C108.178 48.6779 108.055 50.3692 108.055 52.5509C108.055 54.7078 108.178 56.3871 108.422 57.5881C108.691 58.789 109.095 59.6347 109.634 60.1251C110.172 60.5907 110.882 60.8236 111.763 60.8236ZM131.836 61.8531C130.025 61.8531 128.435 61.4731 127.064 60.7133C125.718 59.9536 124.666 58.875 123.908 57.4778C123.174 56.0806 122.807 54.4137 122.807 52.4774C122.807 50.5411 123.198 48.8741 123.981 47.477C124.789 46.0798 125.865 45.0135 127.211 44.2782C128.581 43.5184 130.123 43.1384 131.836 43.1384C133.549 43.1384 135.078 43.5184 136.424 44.2782C137.795 45.0135 138.871 46.0798 139.655 47.477C140.462 48.8497 140.866 50.5163 140.866 52.4774C140.866 54.4137 140.486 56.093 139.728 57.5145C138.994 58.9117 137.954 59.9904 136.608 60.7501C135.262 61.4855 133.672 61.8531 131.836 61.8531ZM131.836 60.8236C132.717 60.8236 133.427 60.5907 133.965 60.1251C134.528 59.6347 134.932 58.789 135.176 57.5881C135.421 56.3871 135.544 54.7078 135.544 52.5509C135.544 50.3692 135.421 48.6779 135.176 47.477C134.932 46.2513 134.528 45.4056 133.965 44.94C133.427 44.4496 132.717 44.2046 131.836 44.2046C130.955 44.2046 130.246 44.4496 129.707 44.94C129.169 45.4056 128.765 46.2513 128.496 47.477C128.251 48.6779 128.129 50.3692 128.129 52.5509C128.129 54.7078 128.251 56.3871 128.496 57.5881C128.765 58.789 129.169 59.6347 129.707 60.1251C130.246 60.5907 130.955 60.8236 131.836 60.8236ZM142.591 61.3384V60.6398L143.141 60.5295C144.12 60.2845 144.622 59.6594 144.646 58.6543C144.646 57.8211 144.646 56.963 144.646 56.0806C144.671 55.1738 144.683 54.3525 144.683 53.6172V44.8297H142.591V44.0208L143.215 43.9105C144.193 43.739 144.805 43.1384 145.05 42.1089C145.662 39.7801 146.824 38.0521 148.537 36.9246C150.25 35.7972 152.33 35.2333 154.777 35.2333C156.319 35.2333 157.567 35.5519 158.521 36.1893C159.5 36.802 159.989 37.6109 159.989 38.616C159.989 39.2534 159.793 39.7681 159.402 40.1602C159.01 40.5279 158.472 40.7117 157.787 40.7117C157.102 40.7117 156.539 40.5155 156.098 40.1234C155.682 39.7066 155.303 39.1919 154.961 38.5792L154.153 37.1453C153.982 36.8511 153.761 36.6429 153.492 36.5202C153.247 36.3975 152.966 36.4099 152.648 36.557C150.69 37.4885 149.675 39.8661 149.602 43.6899H157.31C157.726 43.6899 158.093 43.6655 158.411 43.6164C158.729 43.5428 159.072 43.4569 159.439 43.359L160.099 43.1384L160.613 43.5428L160.503 48.6168V58.6543C160.503 59.6347 160.968 60.2721 161.898 60.5663L162.155 60.6398V61.3384H153.749V60.6398L154.153 60.5295C155.107 60.2354 155.585 59.6103 155.585 58.6543C155.609 57.7719 155.609 56.8527 155.585 55.8968C155.585 54.9164 155.585 54.1196 155.585 53.5069V51.2273C155.585 50.0998 155.572 48.96 155.548 47.8079C155.548 46.6557 155.536 45.663 155.511 44.8297H149.602V53.5804C149.602 54.3158 149.602 55.137 149.602 56.0438C149.602 56.9263 149.614 57.7843 149.638 58.6176C149.638 59.6227 150.127 60.2354 151.106 60.456L151.841 60.6398V61.3384H142.591ZM163.703 61.3384V60.6398L164.29 60.4927C165.098 60.2477 165.502 59.6471 165.502 58.6911V47.8446C165.477 47.3299 165.391 46.9378 165.245 46.6681C165.098 46.3739 164.779 46.1777 164.29 46.0798L163.703 45.9327V45.2709L169.649 43.1384L170.09 43.5428L170.347 45.8224C171.228 45.0379 172.206 44.4009 173.283 43.9105C174.384 43.3958 175.461 43.1384 176.513 43.1384C178.128 43.1384 179.364 43.5796 180.221 44.462C181.102 45.3444 181.542 46.6925 181.542 48.5065V58.7279C181.542 59.6838 181.982 60.2845 182.863 60.5295L183.267 60.6398V61.3384H174.825V60.6398L175.375 60.4927C176.183 60.223 176.587 59.6227 176.587 58.6911V47.7711C176.587 46.9131 176.403 46.288 176.036 45.896C175.669 45.5039 175.057 45.3077 174.201 45.3077C173.002 45.3077 171.754 45.8348 170.457 46.8887V58.7279C170.457 59.6838 170.885 60.2845 171.742 60.5295L172.109 60.6398V61.3384H163.703ZM192.708 55.0511C191.093 55.0511 189.711 54.7814 188.561 54.2422V55.5659C188.561 56.3012 188.928 56.7424 189.662 56.8895L196.195 58.1028C197.443 58.3478 198.545 58.6543 199.499 59.022C200.453 59.3653 201.2 59.8677 201.738 60.5295C202.277 61.1669 202.546 62.037 202.546 63.14C202.546 64.3166 202.154 65.4072 201.371 66.4123C200.612 67.4418 199.475 68.2631 197.957 68.8758C196.465 69.5132 194.593 69.8317 192.341 69.8317C190.408 69.8317 188.867 69.6235 187.716 69.2067C186.591 68.8146 185.783 68.2998 185.294 67.6624C184.805 67.025 184.56 66.3388 184.56 65.6034C184.56 64.721 184.853 63.8386 185.441 62.9562C186.053 62.0737 186.835 61.3384 187.79 60.7501C186.297 60.1862 185.551 59.2918 185.551 58.0661C185.551 57.6005 185.661 57.1713 185.881 56.7792C186.101 56.3871 186.371 55.9947 186.689 55.6026L188.01 53.9481C186.248 52.9186 185.367 51.3132 185.367 49.1315C185.367 47.3423 185.991 45.896 187.239 44.7929C188.512 43.6899 190.335 43.1384 192.708 43.1384C195.082 43.1384 196.918 43.6899 198.214 44.7929C198.997 44.6703 199.732 44.4744 200.417 44.2046C201.102 43.9349 201.738 43.5672 202.325 43.1016L202.839 43.4693V45.5283H198.875C199.658 46.5086 200.05 47.7099 200.05 49.1315C200.05 50.872 199.414 52.2935 198.141 53.3966C196.893 54.4996 195.082 55.0511 192.708 55.0511ZM192.635 54.0584C193.663 54.0584 194.409 53.6663 194.874 52.8818C195.364 52.0729 195.608 50.7861 195.608 49.0212C195.608 47.2808 195.376 46.0307 194.911 45.2709C194.446 44.5112 193.724 44.1311 192.745 44.1311C191.766 44.1311 191.032 44.5232 190.543 45.3077C190.078 46.0674 189.845 47.3299 189.845 49.0947C189.845 50.8596 190.066 52.1341 190.506 52.9186C190.946 53.6783 191.656 54.0584 192.635 54.0584ZM187.423 64.5372C187.423 65.8852 187.851 66.8903 188.707 67.5521C189.564 68.2383 190.922 68.5816 192.782 68.5816C194.837 68.5816 196.355 68.2383 197.333 67.5521C198.337 66.8903 198.838 66.0079 198.838 64.9048C198.838 64.2186 198.581 63.6791 198.067 63.2871C197.578 62.895 196.746 62.5885 195.571 62.3679L189.001 61.081C188.903 61.0566 188.806 61.0319 188.707 61.0075C188.34 61.4978 188.035 62.0614 187.79 62.6988C187.545 63.3362 187.423 63.9489 187.423 64.5372Z" fill="#0D0907"/>
</svg>
