<svg width="335" height="111" viewBox="0 0 335 111" fill="none" xmlns="http://www.w3.org/2000/svg">
<mask id="mask0_4616_1213" style="mask-type:luminance" maskUnits="userSpaceOnUse" x="0" y="0" width="109" height="109">
<path d="M108.664 0H0V108.197H108.664V0Z" fill="white"/>
</mask>
<g mask="url(#mask0_4616_1213)">
<path d="M64.8126 34.0102L89.7811 -0.0429688H77.403L64.8126 34.0102Z" fill="#FD5118"/>
<path d="M90.9066 -0.0429688L68.474 36.4505L108.264 -0.0429688H90.9066Z" fill="#FD5118"/>
<path d="M60.7831 32.346L75.8327 -0.0429688H65.8638L60.7831 32.346Z" fill="#FD5118"/>
<path d="M56.4883 31.5001L64.0998 -0.0429688H55.1808L56.4883 31.5001Z" fill="#FD5118"/>
<path d="M-0.152313 42.1092L30.5435 46.8819L31.1326 46.4724L-0.152313 32.0596V42.1092Z" fill="#FD5118"/>
<path d="M-0.152313 54.6309V68.2825L18.341 55.3894L-0.152313 54.6309Z" fill="#FD5118"/>
<path d="M-0.152313 52.8249L23.4069 51.8584L25.9583 50.0793L-0.152313 43.834V52.8249Z" fill="#FD5118"/>
<path d="M47.7277 32.346L42.6469 -0.0429688H32.6799L47.7277 32.346Z" fill="#FD5118"/>
<path d="M-0.152313 30.5321L34.4513 43.2166L-0.152313 18.0654V30.5321Z" fill="#FD5118"/>
<path d="M71.6044 39.5676L108.664 16.9921V-0.0429688H108.27L71.6044 39.5676Z" fill="#FD5118"/>
<path d="M90.1696 55.3894L108.663 68.2825V54.6309L90.1696 55.3894Z" fill="#FD5118"/>
<path d="M36.9043 39.5704L0.254032 -0.0429688H-0.152313V16.9921L36.9043 39.5704Z" fill="#FD5118"/>
<path d="M53.3296 -0.0429688H44.4111L52.022 31.5001L53.3296 -0.0429688Z" fill="#FD5118"/>
<path d="M108.663 43.8311L82.5524 50.0784L85.1035 51.8576L108.663 52.8247V43.8311Z" fill="#FD5118"/>
<path d="M43.6968 34.0109L31.1083 -0.0429688H18.7365L43.6968 34.0109Z" fill="#FD5118"/>
<path d="M74.0592 43.2179L108.664 30.532V18.0674L74.0592 43.2179Z" fill="#FD5118"/>
<path d="M40.0389 36.4484L17.6102 -0.0429688H0.261719L40.0389 36.4484Z" fill="#FD5118"/>
<path d="M108.664 42.1092V32.0596L77.3788 46.4724L77.9683 46.8833L108.664 42.1092Z" fill="#FD5118"/>
<path d="M54.255 36.5508L-0.152313 74.4837V108.305H108.664V74.4837L54.255 36.5508Z" fill="#007FFF"/>
</g>
<path d="M140.5 52.8477C138.353 52.8477 136.166 52.5756 133.941 52.0314C131.755 51.5262 129.921 50.8459 128.437 49.9908L128.789 41.8867H130.487L132.302 45.9096C132.849 47.0368 133.414 47.9697 134 48.7082C134.586 49.4467 135.366 50.0103 136.342 50.399C137.006 50.671 137.63 50.8654 138.216 50.982C138.84 51.0597 139.524 51.0986 140.265 51.0986C142.646 51.0986 144.52 50.4961 145.887 49.2912C147.292 48.0474 147.995 46.4149 147.995 44.3937C147.995 42.5669 147.506 41.1288 146.531 40.0793C145.594 39.0299 144.071 38.0193 141.963 37.0476L139.563 35.9981C136.284 34.56 133.688 32.8886 131.775 30.984C129.901 29.0795 128.964 26.553 128.964 23.4047C128.964 21.0725 129.55 19.0902 130.721 17.4577C131.931 15.7864 133.59 14.5037 135.698 13.6097C137.806 12.7157 140.265 12.2688 143.076 12.2688C145.145 12.2688 147.077 12.5408 148.873 13.085C150.708 13.6292 152.308 14.3677 153.674 15.3005L153.264 22.5301H151.566L149.4 18.1574C148.775 16.8747 148.17 15.9613 147.585 15.4171C147.038 14.8341 146.355 14.4648 145.535 14.3094C145.067 14.2316 144.657 14.1733 144.306 14.1345C143.993 14.0956 143.564 14.0762 143.017 14.0762C141.105 14.0762 139.446 14.6397 138.04 15.767C136.674 16.8553 135.991 18.3711 135.991 20.3146C135.991 22.1803 136.518 23.6962 137.572 24.8622C138.626 26.0283 140.148 27.0583 142.139 27.9523L144.774 29.06C148.56 30.6925 151.274 32.4416 152.913 34.3073C154.553 36.1342 155.372 38.4857 155.372 41.362C155.372 44.7824 154.065 47.5616 151.449 49.6993C148.873 51.7982 145.223 52.8477 140.5 52.8477ZM168.183 52.6728C166.661 52.6728 165.275 52.4007 164.026 51.8565C162.777 51.2735 161.781 50.3407 161.04 49.058C160.337 47.7365 160.006 46.0068 160.044 43.869L160.22 29.235C160.22 28.3799 160.083 27.7579 159.81 27.3693C159.537 26.9806 159.049 26.7085 158.346 26.553L157.644 26.3198V25.2703L167.657 23.3463L168.301 23.9877L168.008 32.2084V45.4432C168.008 46.7647 168.359 47.7365 169.062 48.3583C169.803 48.9414 170.721 49.2329 171.814 49.2329C172.946 49.2329 173.961 49.0774 174.859 48.7665C175.796 48.4166 176.752 47.9114 177.728 47.2506L177.904 29.2933C177.904 28.3993 177.767 27.7774 177.494 27.4276C177.259 27.0777 176.791 26.8057 176.088 26.6113L175.444 26.4364V25.387L185.223 23.3463L185.867 23.9877L185.691 32.2084V47.4838C185.691 48.3 185.789 48.9608 185.984 49.4661C186.218 49.9325 186.706 50.2823 187.448 50.5156L188.209 50.7488V51.8565L178.313 52.4396L177.786 48.7665C176.459 49.8937 175.015 50.8265 173.453 51.565C171.892 52.3035 170.135 52.6728 168.183 52.6728ZM190.582 51.8565V50.7488L191.519 50.5156C192.807 50.1269 193.451 49.1746 193.451 47.6587V30.4593C193.412 29.6431 193.276 29.0212 193.042 28.5936C192.807 28.1272 192.3 27.8162 191.519 27.6608L190.582 27.4276V26.3781L200.068 22.9965L200.771 23.6379L201.181 27.2526C202.586 26.0088 204.147 24.9983 205.865 24.2209C207.622 23.4046 209.339 22.9965 211.018 22.9965C213.594 22.9965 215.565 23.6962 216.932 25.0954C218.337 26.4947 219.04 28.6325 219.04 31.5088V47.717C219.04 49.2329 219.743 50.1852 221.148 50.5739L221.792 50.7488V51.8565H208.324V50.7488L209.203 50.5156C210.491 50.088 211.135 49.1357 211.135 47.6587V30.3427C211.135 28.9823 210.842 27.9911 210.257 27.3693C209.671 26.7474 208.695 26.4364 207.329 26.4364C205.416 26.4364 203.425 27.2721 201.356 28.9434V47.717C201.356 49.2329 202.039 50.1852 203.406 50.5739L203.991 50.7488V51.8565H190.582ZM224.205 51.8565V50.7488L225.142 50.5156C226.43 50.1269 227.074 49.1746 227.074 47.6587V30.4593C227.035 29.6431 226.899 29.0212 226.664 28.5936C226.43 28.1272 225.923 27.8162 225.142 27.6608L224.205 27.4276V26.3781L233.691 22.9965L234.394 23.6379L234.803 27.2526C236.209 26.0088 237.771 24.9983 239.488 24.2209C241.244 23.4046 242.962 22.9965 244.641 22.9965C247.217 22.9965 249.189 23.6962 250.555 25.0954C251.96 26.4947 252.663 28.6325 252.663 31.5088V47.717C252.663 49.2329 253.365 50.1852 254.771 50.5739L255.415 50.7488V51.8565H241.947V50.7488L242.825 50.5156C244.114 50.088 244.758 49.1357 244.758 47.6587V30.3427C244.758 28.9823 244.465 27.9911 243.879 27.3693C243.294 26.7474 242.318 26.4364 240.952 26.4364C239.039 26.4364 237.048 27.2721 234.979 28.9434V47.717C234.979 49.2329 235.663 50.1852 237.029 50.5739L237.614 50.7488V51.8565H224.205ZM261.209 65.9076C259.647 65.9076 258.417 65.5381 257.52 64.7998C256.622 64.0615 256.173 63.0894 256.173 61.8847C256.173 60.7965 256.544 59.922 257.286 59.261C258.066 58.6393 258.925 58.3282 259.862 58.3282C260.838 58.3282 261.638 58.5031 262.263 58.8529C262.887 59.2027 263.434 59.7078 263.902 60.3688L264.254 60.8352C265.151 61.9233 265.991 61.9043 266.771 60.7769C267.279 60.1159 267.767 59.2997 268.235 58.3282C268.743 57.3566 269.289 56.074 269.875 54.4802L258.749 28.0106C258.476 27.2721 258.164 26.7085 257.813 26.3198C257.461 25.8922 256.934 25.5424 256.232 25.2703L255.236 24.9205V23.8711H269.699V24.9205L268.47 25.2703C267.61 25.5424 267.142 25.97 267.064 26.553C267.025 27.0972 267.162 27.8162 267.474 28.7102L273.447 44.2188L279.185 28.5936C279.497 27.7385 279.614 27.0194 279.536 26.4364C279.458 25.8534 278.97 25.4647 278.072 25.2703L276.784 24.9205V23.8711H285.509V24.9205L284.221 25.3287C283.362 25.5619 282.737 25.9117 282.347 26.3781C281.996 26.8057 281.663 27.447 281.352 28.3021L271.983 53.3724C270.421 57.6482 268.821 60.7965 267.181 62.8175C265.581 64.8777 263.59 65.9076 261.209 65.9076ZM291.555 28.1855L290.442 23.9877C290.208 22.8605 289.915 21.6167 289.564 20.2563C289.212 18.857 288.9 17.5549 288.627 16.35C288.393 15.1062 288.276 14.1539 288.276 13.4931C288.276 12.1327 288.646 11.0833 289.388 10.3448C290.13 9.56738 291.105 9.17871 292.316 9.17871C293.487 9.17871 294.443 9.56738 295.185 10.3448C295.965 11.0833 296.356 12.1327 296.356 13.4931C296.356 14.1539 296.219 15.1062 295.946 16.35C295.712 17.5549 295.419 18.857 295.068 20.2563C294.755 21.6167 294.482 22.8605 294.248 23.9877L293.136 28.1855H291.555ZM307.7 52.6728C305.826 52.6728 304.128 52.459 302.606 52.0314C301.122 51.6428 299.698 51.0791 298.331 50.3406V43.4609H299.912L301.669 46.7842C302.41 48.2223 303.25 49.2912 304.187 49.9908C305.162 50.6905 306.392 51.0403 307.876 51.0403C309.711 51.0403 311.174 50.6516 312.267 49.8742C313.36 49.058 313.907 47.9697 313.907 46.6093C313.907 45.3654 313.497 44.3549 312.677 43.5775C311.857 42.8001 310.394 42.0811 308.286 41.4203L305.709 40.604C303.406 39.9044 301.571 38.8549 300.205 37.4557C298.878 36.0176 298.214 34.2296 298.214 32.0918C298.214 30.4205 298.663 28.9046 299.561 27.5442C300.459 26.1449 301.766 25.0371 303.484 24.2209C305.202 23.4046 307.29 22.9965 309.749 22.9965C311.35 22.9965 312.814 23.1909 314.141 23.5796C315.507 23.9294 316.835 24.4347 318.123 25.0954L317.771 31.3339H316.249L314.434 28.0106C313.809 26.7668 313.165 25.9117 312.501 25.4453C311.877 24.94 310.901 24.6873 309.574 24.6873C308.168 24.6873 306.919 25.0566 305.826 25.7951C304.772 26.4947 304.245 27.4859 304.245 28.7685C304.245 29.9734 304.694 30.9646 305.592 31.742C306.49 32.4805 307.934 33.1801 309.925 33.8409L312.443 34.5988C315.292 35.4928 317.323 36.6783 318.533 38.1553C319.743 39.6323 320.348 41.4008 320.348 43.4609C320.348 46.2206 319.235 48.4555 317.01 50.1657C314.824 51.8371 311.721 52.6728 307.7 52.6728ZM128.027 97.2656V96.0413L129.257 95.6914C130.038 95.4582 130.526 95.128 130.721 94.7003C130.955 94.2339 131.072 93.5925 131.072 92.7763C131.111 90.5221 131.131 88.2673 131.131 86.0131C131.131 83.7589 131.131 81.4851 131.131 79.1917V76.8013C131.131 74.5471 131.131 72.2923 131.131 70.0381C131.131 67.7839 131.111 65.5291 131.072 63.275C131.072 62.4587 130.975 61.837 130.779 61.4093C130.584 60.9428 130.097 60.593 129.316 60.3598L128.027 59.9517V58.7273H144.423C148.99 58.7273 152.503 59.6019 154.963 61.351C157.461 63.0614 158.71 65.4708 158.71 68.5805C158.71 70.2909 158.027 72.0204 156.661 73.7695C155.334 75.5186 153.284 76.8596 150.512 77.7924L158.476 93.2427C159.14 94.5254 160.174 95.3999 161.579 95.8663L162.692 96.0996V97.2656H152.328L143.603 79.0751H139.387C139.387 81.8349 139.387 84.3223 139.387 86.5379C139.387 88.7534 139.407 90.8327 139.446 92.7763C139.446 93.5539 139.563 94.1756 139.797 94.642C140.07 95.1084 140.578 95.4386 141.319 95.6331L142.725 96.0413V97.2656H128.027ZM139.387 77.3843H142.549C145.321 77.3843 147.35 76.6847 148.639 75.2854C149.927 73.8861 150.571 71.7485 150.571 68.872C150.571 65.9956 149.947 63.8776 148.697 62.517C147.487 61.1177 145.516 60.4181 142.783 60.4181H139.446C139.446 61.934 139.426 63.4885 139.387 65.0823C139.387 66.6369 139.387 68.4056 139.387 70.3879C139.387 72.3315 139.387 74.6637 139.387 77.3843ZM178.288 98.0819C175.399 98.0819 172.862 97.4792 170.676 96.2745C168.529 95.0697 166.85 93.3593 165.64 91.1438C164.469 88.9283 163.884 86.285 163.884 83.2146C163.884 80.1442 164.508 77.5009 165.757 75.2854C167.046 73.0699 168.763 71.3791 170.91 70.213C173.096 69.0083 175.555 68.4056 178.288 68.4056C181.02 68.4056 183.46 69.0083 185.607 70.213C187.793 71.3791 189.511 73.0699 190.76 75.2854C192.048 77.4622 192.693 80.1049 192.693 83.2146C192.693 86.285 192.087 88.9479 190.877 91.2021C189.706 93.4176 188.047 95.128 185.9 96.3328C183.753 97.4988 181.216 98.0819 178.288 98.0819ZM178.288 96.4494C179.693 96.4494 180.825 96.0799 181.684 95.3416C182.582 94.5641 183.226 93.2231 183.617 91.3187C184.007 89.4143 184.202 86.7515 184.202 83.3312C184.202 79.8717 184.007 77.1898 183.617 75.2854C183.226 73.3418 182.582 72.0008 181.684 71.2625C180.825 70.4849 179.693 70.0964 178.288 70.0964C176.883 70.0964 175.751 70.4849 174.892 71.2625C174.033 72.0008 173.389 73.3418 172.96 75.2854C172.569 77.1898 172.374 79.8717 172.374 83.3312C172.374 86.7515 172.569 89.4143 172.96 91.3187C173.389 93.2231 174.033 94.5641 174.892 95.3416C175.751 96.0799 176.883 96.4494 178.288 96.4494ZM210.31 98.0819C207.421 98.0819 204.884 97.4792 202.698 96.2745C200.551 95.0697 198.872 93.3593 197.662 91.1438C196.491 88.9283 195.906 86.285 195.906 83.2146C195.906 80.1442 196.53 77.5009 197.779 75.2854C199.068 73.0699 200.785 71.3791 202.932 70.213C205.118 69.0083 207.577 68.4056 210.31 68.4056C213.043 68.4056 215.482 69.0083 217.629 70.213C219.815 71.3791 221.533 73.0699 222.782 75.2854C224.07 77.4622 224.715 80.1049 224.715 83.2146C224.715 86.285 224.109 88.9479 222.899 91.2021C221.728 93.4176 220.069 95.128 217.922 96.3328C215.775 97.4988 213.238 98.0819 210.31 98.0819ZM210.31 96.4494C211.715 96.4494 212.847 96.0799 213.706 95.3416C214.604 94.5641 215.248 93.2231 215.639 91.3187C216.029 89.4143 216.224 86.7515 216.224 83.3312C216.224 79.8717 216.029 77.1898 215.639 75.2854C215.248 73.3418 214.604 72.0008 213.706 71.2625C212.847 70.4849 211.715 70.0964 210.31 70.0964C208.905 70.0964 207.773 70.4849 206.914 71.2625C206.055 72.0008 205.411 73.3418 204.982 75.2854C204.591 77.1898 204.396 79.8717 204.396 83.3312C204.396 86.7515 204.591 89.4143 204.982 91.3187C205.411 93.2231 206.055 94.5641 206.914 95.3416C207.773 96.0799 208.905 96.4494 210.31 96.4494ZM227.466 97.2656V96.1579L228.344 95.983C229.906 95.5945 230.706 94.6033 230.745 93.0095C230.745 91.6882 230.745 90.3276 230.745 88.9283C230.784 87.4903 230.804 86.188 230.804 85.022V71.0876H227.466V69.8049L228.462 69.63C230.023 69.3581 230.999 68.4056 231.389 66.7731C232.365 63.0804 234.219 60.3402 236.952 58.5524C239.684 56.7646 243.002 55.8705 246.906 55.8705C249.366 55.8705 251.356 56.3756 252.879 57.3863C254.44 58.3579 255.221 59.6405 255.221 61.2343C255.221 62.2451 254.909 63.0614 254.284 63.6831C253.659 64.2661 252.801 64.5576 251.708 64.5576C250.614 64.5576 249.717 64.2465 249.014 63.6248C248.35 62.9638 247.745 62.1476 247.199 61.176L245.911 58.9022C245.637 58.4358 245.286 58.1056 244.857 57.9111C244.466 57.7165 244.017 57.7362 243.51 57.9694C240.387 59.4466 238.767 63.2167 238.65 69.2802H250.946C251.61 69.2802 252.195 69.2415 252.703 69.1636C253.21 69.047 253.757 68.9107 254.343 68.7554L255.397 68.4056L256.216 69.047L256.041 77.0928V93.0095C256.041 94.5641 256.782 95.5748 258.266 96.0413L258.676 96.1579V97.2656H245.267V96.1579L245.911 95.983C247.433 95.5165 248.194 94.5254 248.194 93.0095C248.233 91.6102 248.233 90.1527 248.194 88.6368C248.194 87.0822 248.194 85.8186 248.194 84.8471V81.2323C248.194 79.4445 248.175 77.6371 248.136 75.8101C248.136 73.9831 248.116 72.4089 248.077 71.0876H238.65V84.9637C238.65 86.1297 238.65 87.432 238.65 88.87C238.65 90.2693 238.669 91.6299 238.709 92.9512C238.709 94.545 239.489 95.5165 241.051 95.8663L242.222 96.1579V97.2656H227.466ZM261.145 97.2656V96.1579L262.082 95.9247C263.37 95.5362 264.014 94.5837 264.014 93.0678V75.8684C263.975 75.0522 263.839 74.4305 263.604 74.0027C263.37 73.5363 262.862 73.2252 262.082 73.0699L261.145 72.8366V71.7872L270.631 68.4056L271.334 69.047L271.744 72.6617C273.149 71.4178 274.71 70.4075 276.428 69.63C278.185 68.8137 279.902 68.4056 281.581 68.4056C284.157 68.4056 286.128 69.1053 287.495 70.5045C288.9 71.9038 289.603 74.0414 289.603 76.9179V93.1261C289.603 94.642 290.305 95.5945 291.711 95.983L292.355 96.1579V97.2656H278.887V96.1579L279.766 95.9247C281.054 95.4969 281.698 94.545 281.698 93.0678V75.7518C281.698 74.3912 281.405 73.4001 280.819 72.7784C280.234 72.1566 279.258 71.8455 277.892 71.8455C275.979 71.8455 273.988 72.6814 271.919 74.3525V93.1261C271.919 94.642 272.602 95.5945 273.969 95.983L274.554 96.1579V97.2656H261.145ZM307.416 87.2958C304.839 87.2958 302.634 86.8681 300.799 86.0131V88.112C300.799 89.2781 301.385 89.9777 302.556 90.211L312.978 92.135C314.969 92.5235 316.726 93.0095 318.248 93.5925C319.771 94.1369 320.962 94.9335 321.82 95.983C322.679 96.9937 323.108 98.3734 323.108 100.122C323.108 101.988 322.484 103.718 321.235 105.311C320.025 106.944 318.209 108.246 315.789 109.218C313.408 110.229 310.422 110.734 306.83 110.734C303.746 110.734 301.287 110.403 299.452 109.742C297.657 109.121 296.369 108.305 295.588 107.294C294.807 106.283 294.417 105.195 294.417 104.029C294.417 102.63 294.885 101.23 295.822 99.831C296.798 98.4317 298.047 97.2656 299.569 96.3328C297.188 95.4386 295.998 94.0203 295.998 92.0767C295.998 91.3383 296.173 90.6578 296.525 90.036C296.876 89.4143 297.305 88.7921 297.813 88.1703L299.921 85.5467C297.11 83.9142 295.705 81.3685 295.705 77.909C295.705 75.0718 296.7 72.7783 298.691 71.0293C300.721 69.2802 303.629 68.4056 307.416 68.4056C311.203 68.4056 314.13 69.2802 316.199 71.0293C317.448 70.8347 318.619 70.5242 319.712 70.0964C320.806 69.6687 321.82 69.0856 322.757 68.3473L323.577 68.9303V72.1953H317.253C318.502 73.7499 319.127 75.6548 319.127 77.909C319.127 80.6689 318.112 82.9231 316.082 84.6722C314.091 86.4213 311.203 87.2958 307.416 87.2958ZM307.299 85.7216C308.938 85.7216 310.129 85.0999 310.87 83.8559C311.651 82.5733 312.042 80.5327 312.042 77.7341C312.042 74.9742 311.671 72.9919 310.929 71.7872C310.187 70.5825 309.036 69.9798 307.474 69.9798C305.913 69.9798 304.742 70.6015 303.961 71.8455C303.219 73.0502 302.848 75.0522 302.848 77.8507C302.848 80.6493 303.2 82.6702 303.902 83.9142C304.605 85.119 305.737 85.7216 307.299 85.7216ZM298.984 102.338C298.984 104.476 299.667 106.069 301.033 107.119C302.4 108.207 304.566 108.751 307.533 108.751C310.812 108.751 313.232 108.207 314.794 107.119C316.394 106.069 317.194 104.67 317.194 102.921C317.194 101.833 316.784 100.977 315.965 100.356C315.184 99.734 313.857 99.2479 311.983 98.8981L301.502 96.8575C301.346 96.8188 301.19 96.7796 301.033 96.7409C300.448 97.5185 299.96 98.4121 299.569 99.4228C299.179 100.434 298.984 101.405 298.984 102.338Z" fill="white"/>
</svg>
