<svg width="133" height="94" viewBox="0 0 133 94" fill="none" xmlns="http://www.w3.org/2000/svg">
<path d="M100.314 31.2552C100.711 31.7737 101.237 32.1715 101.705 32.612C102.898 33.7414 104.076 34.8851 105.255 36.0287C106.682 37.4068 108.13 38.7564 109.635 40.0422C110.388 40.6886 111.105 41.3705 111.829 42.0453C111.936 42.1448 112.142 42.2655 111.914 42.4502C110.821 42.4857 109.721 42.5142 108.627 42.5497C107.278 42.5923 105.937 42.4786 104.531 42.2016C104.034 41.7328 103.487 41.2071 102.919 40.6957C102.678 40.4826 102.472 40.1771 102.082 40.2269L102.06 40.2055C102.103 40.0919 102.096 39.9924 101.996 39.9072C101.088 39.0477 100.193 38.174 99.1778 37.4352C99.1352 37.3997 99.0927 37.3642 99.0501 37.3286C97.545 35.9151 95.9405 34.608 94.3928 33.2442C92.3552 31.4399 90.3389 29.6214 88.3156 27.8029C86.3987 26.0839 84.4747 24.3648 82.5721 22.6245C81.1096 21.2819 79.711 19.8755 78.2343 18.5542C75.3661 15.9899 72.6256 13.2764 69.6154 10.8612C68.6428 10.0798 67.727 9.23449 66.7898 8.41759C66.6621 8.30394 66.5485 8.17607 66.2787 8.16897C65.9024 8.50283 65.4835 8.87221 65.0718 9.2487C63.7371 10.4705 62.4094 11.7065 61.0605 12.9212C58.8384 14.9386 56.5949 16.9346 54.3728 18.952C54.0178 19.2717 53.6841 19.6197 53.3434 19.9607C53.1446 20.0246 52.9742 20.1312 52.889 20.3372C52.3565 20.7918 51.8099 21.2393 51.2916 21.7082C49.8149 23.0436 48.3453 24.3933 46.8757 25.7358C46.684 25.7855 46.5633 25.9205 46.4852 26.091C45.754 26.7161 45.0227 27.327 44.2986 27.9592C42.6373 29.4012 41.0328 30.9071 39.3431 32.3207C38.051 33.4075 36.8725 34.6293 35.6443 35.7872C35.4526 35.8298 35.3248 35.9577 35.2467 36.1353C34.0469 37.0516 32.9678 38.1029 31.8815 39.1542C31.5833 39.2679 31.3917 39.5307 31.1645 39.7296C30.1066 40.6531 29.0559 41.5765 27.9981 42.5C25.8398 42.4715 23.6887 42.4502 21.5304 42.4147C21.3174 42.4147 21.0761 42.5 20.8276 42.2229C21.2323 41.8393 21.6298 41.4557 22.0416 41.0793C23.71 39.552 25.4352 38.0816 27.0255 36.4762C27.6644 35.8298 28.3602 35.2473 29.0204 34.6293C31.1077 32.6688 33.1807 30.694 35.2751 28.7477C37.8238 26.3751 40.408 24.031 42.9568 21.6584C44.3909 20.323 45.7682 18.9378 47.2094 17.6095C49.9782 15.0522 52.7967 12.5447 55.5584 9.98035C57.4753 8.21159 59.3425 6.386 61.2238 4.57462C62.7786 3.0829 64.4328 1.70483 66.0444 0.269931C66.1722 0.156276 66.3 0.0426207 66.5627 0C66.9673 0.191793 67.3365 0.532759 67.7128 0.866621C69.2676 2.27311 70.8366 3.66538 72.3772 5.09318C75.9766 8.4247 79.569 11.7633 83.1471 15.1233C85.5681 17.3964 87.9251 19.7263 90.3176 22.0278C93.3065 24.8905 96.3948 27.6466 99.4405 30.4454C99.7174 30.7295 100.016 30.9924 100.314 31.2552Z" fill="#3B403C"/>
<path d="M33.131 28.4848C31.413 27.1423 29.6594 25.7571 27.9484 24.1802C21.7647 30.1826 15.9928 36.526 9.56065 42.4218C7.61538 42.4218 5.50682 42.4218 3.39827 42.4218C3.36987 42.2513 3.46216 42.1732 3.54026 42.0951C5.40743 40.1558 7.2817 38.2237 9.13467 36.2702C11.9603 33.2868 14.8001 30.3175 17.6541 27.3625C19.7768 25.1604 21.8428 22.9015 23.9301 20.6639C24.7039 19.8328 25.4068 18.9449 26.2729 18.1493C32.1939 18.1493 38.1433 18.1493 44.0785 18.1493C44.185 18.4548 43.9507 18.5471 43.83 18.6679C42.3036 20.2306 40.7133 21.7224 39.0804 23.1715C37.9161 24.2015 36.8299 25.3238 35.7011 26.4035C35.0479 27.0286 34.3806 27.6395 33.7132 28.2575C33.5925 28.3712 33.4647 28.492 33.131 28.4848Z" fill="#3B403C"/>
<path d="M105.787 18.2701C106.348 18.6324 106.661 19.229 107.122 19.6837C112.816 25.3806 118.503 31.0847 124.182 36.7888C124.899 37.5133 125.602 38.2521 126.291 39.0051C127.036 39.822 127.881 40.5394 128.676 41.2995C129.003 41.612 129.294 41.9459 129.507 42.4929C128.868 42.4929 128.307 42.5 127.753 42.4929C126.333 42.4786 124.921 42.4573 123.501 42.4573C123.011 42.4573 122.684 42.2868 122.336 41.9175C120.483 39.9285 118.588 37.9751 116.692 36.0145C115.471 34.7501 114.25 33.4857 113.008 32.2426C111.602 30.8432 110.139 29.4935 108.769 28.0657C107.676 26.9221 106.505 25.8566 105.489 24.6348C105.369 24.4856 105.184 24.3861 105.049 24.2725C104.751 24.3293 104.602 24.5566 104.396 24.6987C103.686 25.1391 103.047 25.6719 102.451 26.2544C101.372 26.9363 100.392 27.7461 99.4547 28.6056C99.1707 28.705 99.05 28.4635 98.8939 28.3144C96.7143 26.2117 94.5348 24.102 92.3552 21.9923C91.1554 20.8344 89.9485 19.6766 88.6493 18.6181C88.5002 18.4974 88.3014 18.405 88.2872 18.1067C89.7284 18.1067 91.1696 18.0996 92.6108 18.1067C96.409 18.128 100.207 18.1635 104.013 18.1777C104.602 18.1919 105.191 18.3482 105.787 18.2701Z" fill="#3B403C"/>
<path d="M63.3892 62.5246C62.7928 62.6311 62.3597 62.894 62.3881 63.583C62.1823 63.7322 62.2746 63.9453 62.2746 64.13C62.2675 64.9469 62.2604 65.7709 62.2746 66.5878C62.2817 66.95 62.1894 67.3194 62.3597 67.6675C62.161 68.1221 62.3455 68.6264 62.1823 69.1734C61.1457 69.9051 59.9743 70.516 58.6964 70.8924C55.3809 71.8585 52.0583 71.9011 48.7429 70.8996C47.2875 70.4591 45.9954 69.7133 44.8807 68.6691C44.76 68.5554 44.6181 68.4631 44.4832 68.3565C44.4406 68.1789 44.2844 68.0866 44.1779 67.9658C42.7935 66.4741 41.8847 64.7409 41.615 62.7235C41.3878 61.04 41.3665 59.3422 41.6363 57.6587C41.9344 55.8189 42.6302 54.1354 43.7732 52.6437C44.043 52.2885 44.4193 52.0186 44.5826 51.5782L44.5684 51.5355L44.611 51.5569C44.8452 51.5284 44.9801 51.3864 45.0653 51.1875V51.1946C45.3635 51.1093 45.5552 50.8891 45.7398 50.6618C47.1029 49.7668 48.5512 49.0422 50.1415 48.6302C50.3261 48.6231 50.5248 48.6586 50.6739 48.4953C51.1283 48.474 51.5685 48.3603 52.0157 48.2537C52.2571 48.2537 52.5056 48.3106 52.7186 48.1472C52.8251 48.133 52.9316 48.1188 53.0381 48.1046C53.2653 48.0975 53.4925 48.0904 53.7196 48.0833C53.8332 48.0833 53.9468 48.0833 54.0604 48.0833C54.3444 48.0904 54.6284 48.0975 54.9124 48.1046C55.4945 48.2537 56.0909 48.3106 56.6943 48.2893C56.9783 48.4882 57.3049 48.5379 57.6386 48.5521C57.9935 48.7226 58.3698 48.8149 58.7674 48.8007C58.8668 48.9428 59.0088 48.9641 59.165 48.9428C59.8891 49.234 60.6204 49.5253 61.4084 49.8378C61.6427 51.7202 61.6001 53.5955 61.6711 55.478C60.8759 55.6058 60.237 55.62 59.6477 55.4709C59.4489 55.2862 59.3921 55.1015 59.3496 54.9026C59.2005 54.2633 58.9165 53.6737 58.6325 53.0912C58.2207 52.2672 57.5747 51.706 56.7156 51.3793C55.0969 50.7542 53.4711 50.6973 51.817 51.2301C50.3971 51.6847 49.3463 52.5726 48.5725 53.8157C48.5015 53.9365 48.4589 54.0715 48.4021 54.1993C48.182 54.519 47.9761 54.8386 47.9406 55.2364C47.898 55.2791 47.8838 55.3288 47.8838 55.3856C47.4224 56.2735 47.3088 57.2609 47.1952 58.227C46.9183 60.5214 47.0887 62.7803 47.9832 64.9398C48.0826 65.1884 48.1536 65.4867 48.4234 65.6359H48.4163C48.6577 66.2823 49.0907 66.7796 49.6161 67.2058C49.6658 67.2484 49.7084 67.291 49.7581 67.3407C49.9001 67.4757 50.0279 67.632 50.1841 67.7456C51.3555 68.6336 52.7328 68.9319 54.1527 68.9674C54.8698 68.9816 55.6081 68.8893 56.2968 68.5696C56.8363 68.321 57.1345 67.9374 57.1345 67.3265C57.1274 66.2255 57.1558 65.1245 57.1416 64.0305C57.1274 63.171 56.9925 63.0289 56.1193 62.7306C55.6436 62.5246 55.1253 62.5743 54.5645 62.4535C54.3728 61.7929 54.4651 61.1252 54.4793 60.5001C54.529 60.4362 54.5432 60.4078 54.5645 60.3935C54.5858 60.3793 54.6142 60.358 54.6355 60.358C57.7451 60.3012 60.8618 60.3936 64.021 60.2302C64.1772 60.8766 64.0991 61.4946 64.0636 62.0984C64.0565 62.2476 63.8932 62.3186 63.7796 62.3967C63.6093 62.3967 63.4744 62.3967 63.3892 62.5246Z" fill="#3B403C"/>
<path d="M38.0439 71.2476C37.9871 71.2903 37.9303 71.34 37.8735 71.3826C37.192 71.3897 36.5104 71.4039 35.8289 71.411C35.6585 71.411 35.4881 71.411 35.3177 71.411C31.6046 71.411 27.8845 71.4039 24.1715 71.4039C23.2627 71.4039 22.354 71.3968 21.4452 71.3968C21.0761 71.3968 20.7211 71.3471 20.3448 71.2121C20.3448 70.6296 20.3448 70.0756 20.3448 69.5002C20.8915 69.0953 21.6582 69.3723 22.1694 68.8964C22.3611 68.6549 22.2901 68.3565 22.2901 68.0795C22.2972 66.6304 22.2901 65.1884 22.3043 63.7393C22.3114 62.7519 22.4321 61.7503 22.354 60.77C22.2688 59.6122 22.3469 58.4543 22.3398 57.3036C22.3327 55.6627 22.354 54.0218 22.3753 52.3738C22.3824 52.0399 22.4179 51.6847 22.1836 51.4006C21.6653 50.9389 20.9625 50.9957 20.3448 50.7258C20.3093 50.1007 20.3022 49.4898 20.3661 48.8291C26.0812 48.8291 31.7395 48.8291 37.4547 48.8291C37.8948 50.6973 37.9587 52.5869 38.2001 54.4906C37.4191 54.6966 36.7021 54.59 35.9496 54.5545C35.6088 53.624 35.1331 52.8071 34.5012 52.0683C33.9688 51.4432 33.344 51.1165 32.5063 51.1378C31.2852 51.1662 30.0641 51.1449 28.85 51.1449C28.4525 51.1449 28.0478 51.1307 27.6786 51.4858C27.6786 53.8371 27.6786 56.2309 27.6786 58.5893C27.9413 58.8805 28.2395 58.7953 28.5164 58.8024C29.3967 58.8095 30.277 58.7882 31.1574 58.7953C32.5986 58.8095 32.8116 58.3194 32.9678 57.2822C32.9891 57.1402 33.0103 57.0052 33.1523 56.8489C33.6848 56.6927 34.267 56.7495 34.842 56.8063C34.9911 57.3817 35.0408 61.658 34.9059 62.6951C34.3948 62.8442 33.8765 62.7661 33.3866 62.7377C33.1452 62.4678 33.1452 62.1765 33.0813 61.9066C32.9607 61.4094 32.627 61.0897 32.1371 61.0613C30.7243 60.9831 29.3044 60.9618 27.8916 61.0826C27.8419 61.0897 27.7993 61.1394 27.7496 61.1749C27.636 61.2815 27.6218 61.4236 27.6218 61.5656C27.6289 63.7748 27.636 65.9911 27.6431 68.2002C27.6431 68.3139 27.6715 68.4205 27.6928 68.5341C27.7141 69.0243 28.0975 69.0243 28.417 69.0243C30.1421 69.0314 31.8673 69.0172 33.5925 69.0029C33.9688 69.0029 34.338 68.9035 34.5864 68.6052C35.1828 67.8948 35.8218 67.2129 36.1909 66.3391C36.4749 66.0621 36.5175 65.6217 36.8796 65.3376C37.4262 65.231 38.0084 65.3162 38.6332 65.3376C38.7752 65.9982 38.6829 66.6304 38.6048 67.2626C38.4415 68.5767 38.2356 69.9122 38.0439 71.2476Z" fill="#3B403C"/>
<path d="M70.3822 71.411C70.0982 71.4181 69.8142 71.4181 69.5303 71.4252C68.1459 71.4039 66.7614 71.3897 65.377 71.3684C65.3273 71.2689 65.2776 71.1695 65.2279 71.0771C65.2705 70.7362 65.2705 70.3952 65.2066 70.0613C65.235 69.8482 65.2634 69.6351 65.2918 69.422C65.8314 69.1876 66.4278 69.2516 66.9744 69.0456C67.4359 69.0669 67.7199 68.7827 67.8974 68.4276C68.0749 68.0795 68.2807 67.7385 68.3233 67.3407C68.3659 67.2981 68.3801 67.2413 68.373 67.1844C68.5931 66.808 68.8132 66.4315 68.8487 65.984C69.7077 63.9808 70.3183 61.8995 71.0496 59.8537C71.298 59.5624 71.3761 59.2073 71.4329 58.8521C71.6104 58.7171 71.5891 58.5182 71.6246 58.3264C71.6246 58.2767 71.6388 58.2341 71.6672 58.1915C71.8589 57.9997 71.9299 57.7511 71.9654 57.4953C72.1216 57.2893 72.2352 57.062 72.2494 56.7921C72.4553 56.5364 72.5475 56.2238 72.6256 55.9184C72.6611 55.7763 72.6611 55.6555 72.4978 55.5916L72.4624 55.5419C72.6256 55.5135 72.8102 55.5135 72.8812 55.3217C73.0658 54.796 73.2504 54.2633 73.435 53.7305C73.4705 53.6311 73.506 53.5387 73.5415 53.4393C73.861 52.6082 74.3792 51.8268 74.3295 50.9389C74.2017 50.7755 74.0952 50.7755 73.9817 50.7968L73.9603 50.7684C74.0029 50.6476 73.9817 50.5482 73.8468 50.5197C73.6338 50.4629 73.4279 50.3848 73.2007 50.2001C73.2291 49.7384 73.0658 49.2198 73.3143 48.7226C73.6054 48.5734 73.9249 48.616 74.2301 48.6302C75.7849 48.6942 77.3468 48.6586 78.9016 48.6515C79.214 48.6515 79.5051 48.5521 79.8458 48.5095C80.0943 49.1346 80.357 49.7242 80.5771 50.3351C81.4929 52.942 82.3733 55.5703 83.3175 58.1702C83.9849 59.9958 84.7445 61.7929 85.4545 63.6043C86.0224 65.0534 86.5975 66.4954 87.1229 67.9587C87.3997 68.7259 87.8328 69.2373 88.6989 69.2444C88.9616 69.2515 89.1959 69.3368 89.5012 69.5215C89.5722 70.104 89.6929 70.7291 89.416 71.3613C88.8551 71.3755 88.2872 71.3968 87.7263 71.411C87.6127 71.411 87.5062 71.411 87.3926 71.411C85.0072 71.411 82.6218 71.411 80.2363 71.4181C80.1227 71.4181 80.0162 71.4181 79.9026 71.4252C79.7891 71.4181 79.6684 71.411 79.5548 71.3968C79.2637 70.864 79.4625 70.2958 79.4696 69.7417C79.4767 69.4718 79.7181 69.3155 80.002 69.2729C80.3925 69.2089 80.7759 69.1379 81.1238 69.0811C81.5639 68.6904 81.571 68.2358 81.4361 67.7953C81.0954 66.6588 80.5842 65.5933 80.1085 64.4922C77.4746 64.4922 74.8762 64.4922 72.1784 64.4922C71.8021 65.2665 71.4613 66.0905 71.1986 66.95C71.085 67.3265 70.9573 67.703 70.9715 68.1079C70.9857 68.4276 70.9928 68.733 71.3264 69.0171C71.7382 69.216 72.2707 69.2515 72.8386 69.2729C73.4918 69.898 73.2078 70.6438 73.1155 71.3684C72.2068 71.3684 71.2909 71.3897 70.3822 71.411ZM73.0942 61.6367C73.2859 61.9066 73.4492 61.935 73.6267 61.9492C75.1815 62.0629 78.4969 61.9634 79.1075 61.7929C79.0507 60.8979 76.573 54.0999 76.0334 53.4606C74.9969 56.2167 73.9675 58.9089 73.0942 61.6367Z" fill="#3B403C"/>
<path d="M0.167993 71.0771C0.324182 70.587 0.118294 70.0613 0.295782 69.5712C0.558464 69.3084 0.913442 69.3013 1.23292 69.1947C2.20555 68.8822 2.41854 68.6407 2.43274 67.632C2.46114 65.6217 2.46114 63.6114 2.46114 61.6011C2.46824 58.4046 2.47533 55.2009 2.48243 52.0044C2.48243 51.8907 2.46824 51.7771 2.46114 51.6634C2.00677 50.7897 1.07673 50.9318 0.281585 50.6689C0.224789 50.0296 0.0615001 49.3974 0.409376 48.7865C3.49767 48.7794 6.58595 48.7652 9.67424 48.7581C9.81623 48.7581 9.95113 48.7936 10.0931 48.8078C10.0718 49.4471 10.2067 50.1007 9.98662 50.7542C9.20568 50.9104 8.40343 50.9744 7.76447 51.5782C7.76447 52.2956 7.76447 53.0344 7.76447 53.766C7.75737 58.3478 7.74318 62.9366 7.73608 67.5183C7.73608 67.9658 7.68638 68.4276 7.99166 68.8325C8.28274 68.9461 8.59512 68.9106 8.9004 68.9106C10.0292 68.9106 11.1651 68.868 12.294 68.9106C13.2169 68.9461 13.8843 68.5696 14.3812 67.8522C14.9989 66.9714 15.5171 66.0337 15.7585 64.9682C16.4898 64.6627 17.221 64.7764 17.9949 64.8616C17.8245 67.0992 17.4624 69.2018 17.0648 71.2547C16.8093 71.4323 16.575 71.3968 16.3478 71.3968C11.2787 71.3968 6.20968 71.4039 1.14063 71.3968C0.806948 71.3897 0.416476 71.4536 0.167993 71.0771Z" fill="#3B403C"/>
<path d="M85.6959 77.9675C85.8662 78.0101 86.0366 78.0243 86.207 77.9533C86.6046 78.0314 87.0022 78.0456 87.3926 77.9391C87.563 78.0101 87.7334 78.0243 87.9038 77.932C88.0103 77.9533 88.1239 77.9959 88.2304 77.9959C90.8501 77.9817 93.4698 78.1025 96.0825 77.9249C102.202 77.9178 108.322 77.9178 114.442 77.9107C115.123 78.0456 115.812 78.0385 116.501 77.9178C116.614 77.9959 116.728 77.9959 116.841 77.9178C116.948 77.9391 117.062 77.9817 117.168 77.9888C118.673 77.9959 120.171 77.9959 121.676 78.003C121.96 78.003 122.237 77.9817 122.493 77.8396C123.387 77.868 124.289 77.9036 125.183 77.9107C127.469 77.932 129.755 77.932 132.042 77.9462C132.318 77.9462 132.609 77.868 132.908 78.0883C133.014 78.4008 133.071 78.7418 132.837 79.0756C129.805 79.0827 126.767 79.0969 123.735 79.104C114.52 79.1112 105.305 79.1112 96.0825 79.1112C90.4383 79.1112 84.7942 79.0472 79.1501 79.1325C72.008 79.239 64.8588 79.168 57.7167 79.1822C56.7014 79.1822 55.6791 79.1112 54.6639 79.1112C49.3108 79.104 43.9507 79.0614 38.5977 79.1467C36.2761 79.1822 33.9475 79.2532 31.633 79.1893C27.0397 79.0543 22.4534 79.1325 17.86 79.104C15.936 79.0898 14.012 79.2461 12.081 79.239C8.25434 79.2248 4.4206 79.2532 0.593961 79.2603C0.430672 79.2603 0.253184 79.3029 0.0827952 79.1538C-0.0307971 78.9123 -0.0094968 78.6352 0.0401998 78.3724C0.196389 78.1664 0.409373 78.2161 0.601059 78.2161C1.76538 78.209 2.9297 78.2161 4.08692 78.2019C8.7655 78.1593 13.437 78.0883 18.1156 78.0669C24.782 78.0456 31.4414 78.0598 38.1078 78.0527C42.474 78.0456 46.8402 78.0172 51.2064 78.0243C53.7551 78.0243 56.311 78.074 58.8597 78.0954C59.2289 78.0954 59.598 78.0812 59.9601 78.0669C60.1305 78.0669 60.3009 78.0669 60.4713 78.0669C63.7797 78.0527 67.088 78.0243 70.3964 78.0172C75.2028 78.0101 80.0091 78.0101 84.8226 78.0101C85.135 78.003 85.419 77.9817 85.6959 77.9675Z" fill="#3B403C"/>
<path d="M65.59 24.9615C65.59 25.0681 65.59 25.1746 65.59 25.2883C65.4125 26.4249 65.4835 27.5614 65.4906 28.698C65.4409 28.8684 65.4409 29.0389 65.4764 29.2094C65.4267 29.4935 65.4267 29.7777 65.4835 30.0618C65.4125 30.2039 65.2918 30.2536 65.1428 30.2607C62.9135 30.3815 60.6843 30.346 58.3698 30.3744C58.242 27.9663 58.4053 25.5866 58.3769 23.1928C60.7624 23.3704 63.0413 23.207 65.306 23.2496C65.4835 23.3135 65.4764 23.4769 65.5474 23.5906C65.519 24.0452 65.4338 24.5069 65.59 24.9615Z" fill="#3B403C"/>
<path d="M74.294 38.7706C72.0364 38.7706 69.7858 38.7635 67.4643 38.6073C67.2726 36.4336 67.3223 34.3523 67.3081 32.3136C67.4998 32.0295 67.7483 31.9655 68.0039 31.9655C70.1195 31.9584 72.2352 31.9655 74.4076 31.9655C74.5354 34.1818 74.5851 36.3768 74.5851 38.5789C74.5354 38.7067 74.4005 38.7138 74.294 38.7706Z" fill="#3B403C"/>
<path d="M67.2442 23.4485C69.6722 23.4343 72.008 23.4982 74.4076 23.5977C74.4857 25.8139 74.436 27.9734 74.365 30.1541C71.9512 30.1541 69.5941 30.1541 67.159 30.1541C67.1732 27.9024 67.4572 25.7145 67.2442 23.4485Z" fill="#3B403C"/>
<path d="M65.2706 38.6215C64.1701 38.5078 63.0697 38.6073 61.9622 38.6002C60.8334 38.5931 59.7045 38.6002 58.5118 38.6002C58.5118 36.4194 58.5118 34.2813 58.5118 32.1431C59.3496 31.8519 63.8435 31.8661 65.3699 32.1644C65.3912 32.2142 65.4267 32.2639 65.4267 32.3136C65.3841 34.3736 65.6823 36.4265 65.5829 38.4936C65.4835 38.5362 65.377 38.5789 65.2706 38.6215Z" fill="#3B403C"/>
<path d="M58.6254 92.8634C58.171 93.0979 57.7238 93.3252 57.2694 93.5596C56.3181 93.794 55.3667 93.9361 54.3799 93.7301C53.7125 93.588 53.1375 93.247 52.5269 92.9842C52.4701 92.9416 52.4133 92.899 52.3636 92.8563C52.0797 92.5651 51.7957 92.2739 51.5188 91.9826H51.5259C51.462 91.8335 51.4052 91.6772 51.3271 91.528C50.8088 90.5619 50.6952 89.5248 50.8088 88.4451C50.8585 88.0047 51.0928 87.5998 51.036 87.1381L51.0999 87.1452C51.1638 87.0883 51.249 87.0457 51.2845 86.9818C52.0441 85.4474 53.4144 84.8792 54.9976 84.6945C56.3891 84.5311 57.6883 84.7513 58.81 85.6889C59.5838 86.3354 59.9601 87.1949 60.1944 88.1396C60.2228 88.2462 60.2654 88.3456 60.3009 88.4522C60.3222 88.6156 60.3435 88.7861 60.3648 88.9494C60.3506 89.7024 60.1518 90.427 59.9459 91.1373C59.8394 91.2083 59.8252 91.322 59.811 91.4357C59.4489 91.94 59.0798 92.4372 58.6254 92.8634ZM53.3363 87.5572C52.5553 88.6511 52.6263 90.1073 53.528 91.1657C53.5918 91.3291 53.6983 91.4428 53.8758 91.4925C55.0827 92.3094 56.4743 92.1957 57.4824 91.2012C58.455 90.2352 58.5757 88.8287 57.7806 87.5856C57.6954 87.3512 57.5321 87.1736 57.3191 87.0599C56.0483 85.966 54.2095 86.1933 53.3363 87.5572Z" fill="#3B403C"/>
<path d="M44.7742 92.3236C44.6181 92.4799 44.469 92.6361 44.3128 92.7853C44.1069 92.8847 43.9081 92.9984 43.759 93.176C43.3259 93.3536 42.9 93.5312 42.4669 93.7016C42.0693 93.7514 41.6718 93.8011 41.2671 93.8508C41.1038 93.8508 40.9405 93.8437 40.7772 93.8437C40.6281 93.7016 40.4364 93.7159 40.2519 93.723C40.1454 93.6945 40.046 93.6661 39.9395 93.6377C39.833 93.5312 39.7052 93.5383 39.5703 93.5383C39.4425 93.4601 39.3076 93.4672 39.1656 93.4885C39.1159 93.2541 38.9242 93.2044 38.7397 93.1405C38.5551 92.9274 38.3066 92.7995 38.0652 92.6645C37.8593 92.4088 37.6676 92.146 37.3837 91.9613H37.3907C37.334 91.8334 37.2843 91.7056 37.2204 91.5848C36.6737 90.5619 36.4465 89.5035 36.6382 88.3385C36.7589 87.6211 37.1068 87.0244 37.4262 86.3993C37.5753 86.2359 37.7315 86.0654 37.8806 85.9021C39.3005 84.7868 40.8908 84.3677 42.6515 84.8507C44.76 85.4332 45.7114 86.7758 45.8463 88.8287C45.9244 90.1286 45.5765 91.3007 44.7742 92.3236ZM39.5419 87.0457C39.3218 87.067 39.194 87.2304 39.0946 87.3938C38.5196 88.3243 38.3066 89.2975 38.8532 90.3204C38.9384 90.6614 39.0946 90.9526 39.3999 91.1515C40.692 92.5083 42.6373 92.281 43.5105 90.6685C43.7732 90.1854 43.8939 89.6669 43.7945 89.1128C43.7874 88.9992 43.7803 88.8855 43.7732 88.7719C43.7874 88.1112 43.4821 87.5998 42.9852 87.1949C42.971 87.1096 42.9213 87.067 42.8361 87.0599C41.9486 86.1862 40.2589 86.172 39.5419 87.0457Z" fill="#3B403C"/>
<path d="M30.8095 89.9368C30.774 89.9794 30.7314 90.0221 30.6959 90.0647C30.4119 90.221 30.0996 90.363 29.9789 90.7324C30.3551 91.3149 30.7385 91.8832 31.2142 92.3875C31.2497 92.4372 31.2852 92.4941 31.3207 92.5438C31.4201 92.7356 31.5053 92.9416 31.7182 93.0552H31.7111C31.775 93.2683 31.8886 93.4459 32.0661 93.5738C32.0945 93.6803 32.1158 93.7869 32.1442 93.9006C31.3349 93.9006 30.5184 93.9006 29.7801 93.9006C29.3328 93.517 29.1979 93.0339 28.8713 92.6859C28.637 92.1815 28.3389 91.7198 28.0194 91.2723C27.5792 90.981 27.132 91.1373 26.5995 91.187C26.5995 92.1247 26.5995 93.0126 26.5995 94C25.9321 94 25.3429 94 24.7536 94C24.7039 93.9645 24.6542 93.929 24.6045 93.8934C24.6045 90.9384 24.6045 87.9763 24.6045 84.936C25.9605 85.1136 27.21 84.8579 28.4738 84.9147C29.2263 84.9502 29.9079 85.1846 30.5113 85.6392C30.5539 85.6748 30.5965 85.7174 30.6391 85.7529C30.8379 86.0512 31.0722 86.3283 31.2213 86.6621C31.775 87.8342 31.5478 88.9139 30.8095 89.9368ZM26.6492 89.4041C27.352 89.4467 27.9697 89.4467 28.5661 89.2833C29.1056 89.1341 29.4961 88.6653 29.4748 87.8271C29.4606 87.1949 29.0062 86.6479 28.4028 86.5911C27.8277 86.5343 27.2313 86.4845 26.6421 86.6692C26.6492 87.5714 26.6492 88.4451 26.6492 89.4041Z" fill="#3B403C"/>
<path d="M94.0662 69.4505C93.3633 68.7543 92.6108 68.1008 92.0002 67.3194C90.9282 65.9485 90.3389 64.3573 90.0195 62.6809C89.5083 60.0384 89.7 57.4598 90.7649 54.9452C91.4749 53.2688 92.6037 51.9475 94.0094 50.8749C96.5865 48.9144 99.4973 48.0691 102.77 48.3887C105.085 48.616 107.25 49.298 109.351 50.2356C109.401 50.2569 109.437 50.3066 109.557 50.4203C109.472 52.1464 109.927 53.9436 109.564 55.7621C108.961 56.0249 108.379 55.9113 107.853 55.8758C107.626 55.7195 107.562 55.5348 107.513 55.3359C107.129 53.9791 106.639 52.6863 105.319 51.9404C103.729 51.0312 102.039 50.7329 100.243 51.1804C98.3756 51.6421 97.0977 52.8213 96.3096 54.5332C95.7133 55.826 95.4151 57.2041 95.3725 58.639C95.3228 60.5711 95.3583 62.4891 96.0754 64.3289C96.3948 65.1458 96.7427 65.9414 97.2894 66.6446C98.4679 68.1434 100.008 68.9035 101.904 68.9461C102.692 68.9603 103.487 68.9461 104.268 68.7401C105.482 68.4062 106.419 67.7385 106.959 66.5878C107.285 65.9058 107.548 65.1884 107.853 64.4638C108.521 64.5136 109.174 64.3715 109.827 64.6769C109.898 65.4654 109.856 66.2539 109.813 67.0353C109.777 67.7385 109.699 68.4489 109.671 69.1521C109.657 69.4789 109.586 69.763 109.337 69.9903C109.075 70.0898 108.805 70.1679 108.549 70.2816C107.044 70.9209 105.496 71.4678 103.856 71.5602C101.35 71.7022 98.8442 71.6667 96.4232 70.8498L96.3522 70.8783C95.6636 70.2887 94.8329 69.9193 94.0662 69.4505Z" fill="#3B403C"/>
<path d="M111.297 50.2853C111.275 50.122 111.254 49.9657 111.233 49.8023C111.24 49.5182 111.254 49.234 111.261 48.9499C111.375 48.7723 111.588 48.8149 111.744 48.7297C111.829 48.7439 111.907 48.7652 111.992 48.7652C114.612 48.7652 117.232 48.7652 119.859 48.7652C120.114 48.7652 120.363 48.7581 120.604 48.6657C120.796 48.6942 121.002 48.7013 121.208 48.8575C121.229 49.4116 121.343 50.0012 121.051 50.5766C120.483 50.8394 119.61 50.6902 119.553 51.706C120.874 54.2491 122.209 56.8276 123.536 59.3778C123.948 59.3493 124.055 59.1007 124.175 58.8876C124.651 58.0565 125.134 57.2183 125.588 56.373C126.213 55.2009 126.83 54.0218 127.434 52.8355C127.839 52.0328 127.831 51.9902 127.718 51.2159C127.391 50.7329 126.71 50.882 126.305 50.4629C126.163 49.9515 126.277 49.4116 126.255 48.9712C126.369 48.7013 126.539 48.68 126.71 48.6657C128.527 48.8717 130.352 48.8078 132.169 48.6729C132.389 48.7226 132.624 48.6018 132.879 48.7723C133.078 49.3335 132.929 49.9515 132.95 50.5055C132.801 50.6973 132.631 50.7684 132.467 50.7755C131.559 50.8039 131.04 51.3793 130.636 52.0967C129.912 53.3753 129.209 54.6682 128.492 55.9468C127.512 57.7013 126.539 59.4488 125.553 61.1962C125.254 61.729 125.119 62.2831 125.127 62.894C125.148 64.6201 125.134 66.3463 125.141 68.0724C125.141 68.2642 125.176 68.4631 125.19 68.6478C125.851 69.3368 126.759 69.2516 127.562 69.5073C127.817 70.0258 127.689 70.5657 127.661 71.0914C127.647 71.3258 127.441 71.3968 127.228 71.4252C127.114 71.4252 126.994 71.4181 126.88 71.4181C126.71 71.4181 126.546 71.4181 126.376 71.4181C126.206 71.4181 126.028 71.4252 125.858 71.4252C125.46 71.4252 125.063 71.4323 124.672 71.4323C124.615 71.4323 124.559 71.4323 124.502 71.4323C124.275 71.4323 124.047 71.4323 123.827 71.4323C122.862 71.3968 121.896 71.3826 120.931 71.4394C120.704 71.4394 120.476 71.4394 120.249 71.4323C119.511 71.4252 118.772 71.4181 118.034 71.411C117.956 71.34 117.807 71.276 117.8 71.1979C117.743 70.6083 117.615 70.0116 117.871 69.4291C118.552 69.1379 119.404 69.2018 119.894 68.456C119.901 66.8861 119.823 65.3091 119.923 63.7322C119.965 63.0289 119.83 62.3825 119.497 61.7716C119.071 60.976 118.623 60.1876 118.162 59.4133C117.906 58.98 117.779 58.4685 117.367 58.1347H117.374C117.381 57.95 117.26 57.8221 117.175 57.68C116.387 56.2807 115.599 54.8884 114.811 53.4961C114.719 53.3256 114.669 53.1267 114.477 53.0273H114.484C114.314 52.5158 114.03 52.0541 113.746 51.6066C113.462 51.1591 113.057 50.8749 112.497 50.8252C112.134 50.7968 111.772 50.7044 111.41 50.6405L111.417 50.6476C111.439 50.4842 111.41 50.3635 111.297 50.2853Z" fill="#3B403C"/>
<path d="M86.9738 93.6874C86.3703 93.6874 85.7598 93.6874 85.1918 93.6874C85.0427 93.5951 85.0782 93.4743 85.0427 93.3678C85.1634 90.5264 85.1137 87.685 85.0853 84.8436C85.5468 84.5098 86.0721 84.8081 86.6259 84.6803C88.0245 86.3141 89.3947 87.9834 90.701 89.6811C91.0489 89.5959 90.9566 89.3543 90.9566 89.1767C90.9637 87.8484 90.9637 86.5201 90.9708 85.1846C90.9708 85.0496 90.9353 84.9076 91.0773 84.6803C91.624 84.6803 92.2345 84.6803 92.8522 84.6803C92.8593 84.8792 92.8806 85.071 92.8806 85.2699C92.8806 88.026 92.8877 90.775 92.8877 93.5312C92.4191 93.8508 91.9079 93.6306 91.3826 93.6803C90.6229 92.7285 89.8775 91.7766 89.1178 90.8318C88.557 90.1286 87.989 89.4254 87.4281 88.7221C87.3713 88.573 87.3145 88.4167 87.1016 88.4522C87.0164 88.6085 87.0519 88.7719 87.0732 88.9352C87.0732 89.333 87.0732 89.7308 87.0732 90.1286C87.0732 90.1854 87.0732 90.2423 87.0732 90.2991C87.0732 90.4696 87.0732 90.6401 87.0732 90.8105C87.0306 91.7766 87.0022 92.7285 86.9738 93.6874Z" fill="#3B403C"/>
<path d="M100.626 90.6685C100.69 90.8887 100.804 91.0663 101.01 91.1728C101.94 92.1389 103.118 92.3236 104.389 91.6985C104.566 91.0023 104.566 90.9881 104.36 90.3914C103.899 90.3133 103.409 90.4341 102.926 90.2778C102.685 89.8587 102.706 89.4325 102.877 88.9778C104.077 88.9778 105.255 88.9778 106.434 88.9778L106.426 88.9707C106.426 90.1428 106.426 91.3149 106.426 92.3449C106.093 92.9132 105.553 92.9771 105.248 93.3394V93.3323C105.113 93.3678 104.971 93.3891 104.843 93.4388C103.849 93.8082 102.848 93.9645 101.79 93.723C101.152 93.5738 100.591 93.2754 100.001 93.0197L99.9304 92.9984C98.475 91.7198 97.9567 90.1215 98.2691 88.2249C98.3543 87.7205 98.617 87.2801 98.688 86.7758C98.901 86.7403 98.9507 86.5769 98.9933 86.4064L98.9862 86.4135C100.214 85.0994 101.719 84.5027 103.516 84.6732C103.935 84.7158 104.339 84.8081 104.758 84.8792C105.014 85.0709 105.319 85.1207 105.61 85.213C105.688 85.348 105.823 85.3764 105.958 85.3977C106.064 85.4901 106.171 85.5824 106.32 85.7103C106.022 86.2004 105.766 86.6905 105.404 87.0812C105.035 87.1523 104.843 86.8894 104.602 86.7758C103.494 86.243 101.854 86.2004 101.017 87.2517C100.193 88.1609 100.051 89.468 100.626 90.6685Z" fill="#3B403C"/>
<path d="M65.5616 84.865C65.6326 84.8223 65.7107 84.7513 65.7817 84.7513C67.7341 84.7442 69.6793 84.7442 71.7311 84.7442C71.7311 85.3196 71.7311 85.8452 71.7311 86.3709C71.4613 86.4703 71.1773 86.4561 70.8934 86.4561C70.0485 86.4561 69.2037 86.4561 68.3588 86.449C68.082 86.449 67.7909 86.3922 67.5353 86.6976C67.514 87.1949 67.4714 87.7419 67.585 88.3528C68.6428 88.4948 69.6794 88.3314 70.7088 88.4309C70.9715 88.9352 70.794 89.4538 70.8579 89.9439L70.865 89.9297C70.7017 89.9936 70.5384 90.0505 70.3822 90.1144C69.9278 90.1144 69.4806 90.1144 69.0262 90.1144C68.586 90.086 68.1459 90.0647 67.7483 90.1215C67.6205 90.2565 67.6347 90.363 67.6489 90.4696C67.6418 90.9242 67.6418 91.3717 67.6347 91.8263C67.6063 92.3378 67.5779 92.8563 67.656 93.3678C67.6205 93.6093 67.4714 93.6732 67.2442 93.6732C66.7188 93.6661 66.1935 93.6732 65.7533 93.6732C65.4977 93.5383 65.4764 93.3749 65.4693 93.2044C65.6184 92.5083 65.5971 91.805 65.59 91.1089C65.5758 89.0276 65.5687 86.9463 65.5616 84.865Z" fill="#3B403C"/>
<path d="M79.2353 91.3291C79.2282 91.4996 79.2211 91.6701 79.214 91.8334C79.2069 92.4017 79.1998 92.9771 79.1927 93.5454C78.5111 93.7656 77.8367 93.6448 77.1977 93.6093C77.1977 90.569 77.1977 87.6353 77.1977 84.7016C77.9219 84.4885 78.5608 84.6945 79.1998 84.6945C79.214 86.9107 79.2211 89.1199 79.2353 91.3291Z" fill="#3B403C"/>
</svg>
