<svg width="60" height="60" viewBox="0 0 60 60" fill="none" xmlns="http://www.w3.org/2000/svg">
<path d="M37.4357 37.7475L33.6132 37.7359L34.2347 35.0578C34.4227 34.2473 34.444 33.4237 34.2975 32.6094C33.8122 29.913 31.5187 27.8396 28.85 27.5969C26.7304 25.2615 23.7593 23.9372 20.5722 23.9372H17.3427C21.9628 23.5478 25.6043 19.6655 25.6043 14.9463C25.6043 9.96961 21.5553 5.92078 16.5786 5.92078C11.6019 5.92078 7.55305 9.96961 7.55305 14.9463C7.55305 19.6655 11.1943 23.5478 15.8145 23.9372H12.585C7.16235 23.9372 2.52993 27.8109 1.5704 33.148L0.0277402 41.7285C-0.0643691 42.2408 0.0754356 42.7677 0.40942 43.1672C0.743404 43.5667 1.23723 43.7974 1.7579 43.7974H8.01243V56.5336C8.01243 57.5044 8.79946 58.2914 9.77024 58.2914L32.6256 58.2996C35.7747 58.2996 38.6807 56.4607 40.029 53.6147L43.2103 46.8994C44.1548 44.9055 44.0157 42.6015 42.8383 40.7358C41.6608 38.8702 39.6409 37.753 37.4357 37.7475ZM11.0687 14.9462C11.0687 11.908 13.5404 9.43628 16.5786 9.43628C19.6168 9.43628 22.0886 11.908 22.0886 14.9462C22.0886 17.9844 19.6168 20.4561 16.5786 20.4561C13.5404 20.4561 11.0687 17.9844 11.0687 14.9462ZM5.03048 33.77C5.68848 30.1096 8.86555 27.4527 12.5848 27.4527H20.5721C22.5949 27.4527 24.4897 28.2326 25.9138 29.6183L23.7297 34.0567C23.7259 34.0645 23.7221 34.0724 23.7182 34.0803C23.0868 35.4134 22.1088 36.5568 20.8893 37.387L16.612 40.2996L3.85965 40.2817L5.03048 33.77ZM11.5279 43.8152H15.3897V54.7759H11.5279V43.8152ZM40.0331 45.3943L36.8518 52.1096C36.0821 53.7343 34.4232 54.7841 32.6254 54.7841H18.9054V42.9913L22.8682 40.2929C24.6002 39.1136 25.9907 37.49 26.8897 35.5976L29.0513 31.2046C29.9386 31.4916 30.6659 32.2801 30.8373 33.2318C30.8986 33.5733 30.8894 33.9202 30.81 34.2628L29.6899 39.0895C29.569 39.6108 29.692 40.1587 30.0242 40.5783C30.3566 40.9978 30.8616 41.243 31.3968 41.2446L37.4259 41.2629C38.4366 41.2653 39.3256 41.7571 39.865 42.6118C40.4045 43.4668 40.4657 44.4809 40.0331 45.3943Z" fill="#AC651E"/>
<path d="M32.5663 12.901L31.864 16.9954C31.6109 18.4176 33.1429 19.5279 34.4146 18.8484L38.0917 16.9152L41.7687 18.8484C42.3612 19.1598 43.0788 19.1078 43.6199 18.7145C44.1612 18.3212 44.4324 17.6547 44.3193 16.9953L43.6171 12.9009L46.5919 10.0011C47.0711 9.53406 47.2435 8.8355 47.0368 8.19906C46.83 7.56273 46.28 7.0989 45.6179 7.00269L41.5067 6.40527L39.6682 2.68C39.3721 2.08 38.7611 1.70007 38.092 1.70007C37.4229 1.70007 36.8118 2.08 36.5157 2.67988L34.6771 6.40527L30.5661 7.00269C29.9039 7.0989 29.3538 7.56273 29.1472 8.19906C28.9403 8.83539 29.1128 9.53394 29.592 10.0011L32.5663 12.901ZM36.0968 9.75179C36.6694 9.66859 37.1642 9.30906 37.4204 8.79015L38.0916 7.43007L38.7629 8.79015C39.0189 9.30894 39.5138 9.66859 40.0864 9.75179L41.5874 9.96988L40.5013 11.0286C40.087 11.4324 39.8981 12.0142 39.9958 12.5844L40.2522 14.0793L38.9098 13.3736C38.3976 13.1043 37.786 13.1043 37.2738 13.3736L35.9313 14.0793L36.1878 12.5844C36.2856 12.0142 36.0966 11.4324 35.6821 11.0286L34.596 9.96976L36.0968 9.75179Z" fill="#AC651E"/>
<path d="M59.9138 23.5279C59.7071 22.8916 59.157 22.4278 58.4949 22.3316L53.3451 21.5832L51.042 16.9167C50.7459 16.3167 50.1349 15.9369 49.4657 15.9369C48.7966 15.9369 48.1856 16.3168 47.8894 16.9168L45.5865 21.5833L40.4367 22.3317C39.7746 22.4279 39.2244 22.8917 39.0178 23.5281C38.8109 24.1644 38.9834 24.8629 39.4626 25.3299L43.189 28.9623L42.3093 34.0913C42.0563 35.5135 43.5882 36.6238 44.8599 35.9443L49.466 33.5228L54.0721 35.9443C55.3461 36.6241 56.8755 35.512 56.6227 34.0913L55.743 28.9623L59.4694 25.3299C59.9481 24.8628 60.1207 24.1643 59.9138 23.5279ZM52.627 27.0897C52.2126 27.4936 52.0236 28.0754 52.1213 28.6456L52.5551 31.1751L50.2836 29.981C50.0274 29.8463 49.7465 29.7791 49.4656 29.7791C49.1847 29.7791 48.9037 29.8463 48.6476 29.981L46.3762 31.1751L46.81 28.6456C46.9079 28.0754 46.7189 27.4936 46.3044 27.0897L44.4667 25.2984L47.0064 24.9294C47.579 24.8462 48.0739 24.4865 48.3299 23.9677L49.4656 21.6664L50.6014 23.9677C50.8576 24.4865 51.3523 24.8462 51.9249 24.9294L54.4646 25.2984L52.627 27.0897Z" fill="#AC651E"/>
</svg>
