<svg width="40" height="40" viewBox="0 0 40 40" fill="none" xmlns="http://www.w3.org/2000/svg">
<g clip-path="url(#clip0_4616_938)">
<path d="M5.93492 35.237C6.58218 35.237 7.10688 34.7123 7.10688 34.065C7.10688 33.4178 6.58218 32.8931 5.93492 32.8931C5.28767 32.8931 4.76297 33.4178 4.76297 34.065C4.76297 34.7123 5.28767 35.237 5.93492 35.237Z" fill="#007FFF"/>
<path d="M39.6567 15.5788L30.281 6.20315C29.9496 5.87158 29.4523 5.76963 29.0171 5.94369L25.6962 7.27205L27.0246 3.95119C27.1987 3.51588 27.0966 3.01877 26.7651 2.68729L24.4211 0.343301C23.9635 -0.114434 23.2214 -0.114434 22.7637 0.343301L11.9372 11.1699C9.65224 13.4548 9.65224 17.1725 11.9372 19.4574L12.5486 20.0688C13.06 20.5803 12.9926 21.4249 12.4049 21.8485C8.25584 24.8385 3.03294 28.6799 1.71271 29.9995C-0.571118 32.2843 -0.571118 36.002 1.71302 38.2871C3.99802 40.5711 7.7156 40.5708 10.0007 38.2868C11.3204 36.9664 15.1615 31.7438 18.1514 27.595C18.5744 27.0082 19.4187 26.9391 19.9311 27.4513L20.5425 28.0627C22.8273 30.3476 26.5452 30.3476 28.8301 28.0627L32.9681 23.9246V29.2516C32.9681 31.1717 34.5079 32.7698 36.4008 32.8139C38.384 32.8598 40 31.268 40 29.2991V16.4075C40 16.0967 39.8765 15.7986 39.6567 15.5788ZM22.1999 26.4054L21.5885 25.794C20.0558 24.2613 17.5156 24.4685 16.2499 26.2247C12.155 31.9069 9.27302 35.6995 8.34341 36.6295C6.97232 37.9999 4.7413 38 3.3706 36.6298C2.00013 35.2587 2.00013 33.0278 3.37029 31.657C4.30029 30.7274 8.09287 27.8454 13.7754 23.7501C15.5338 22.4828 15.7368 19.9422 14.2061 18.4115L13.5947 17.8001C12.2236 16.4291 12.2236 14.1983 13.5947 12.8273L13.7481 12.6738L27.3262 26.252L27.1728 26.4054C25.8017 27.7763 23.5709 27.7763 22.1999 26.4054ZM28.9835 24.5946L15.4054 11.0165L23.5925 2.82939L24.5612 3.79814L22.5043 8.94041C22.1231 9.89322 23.0715 10.8463 24.0277 10.4638L29.17 8.40689L31.3694 10.6063L30.8254 11.1503C28.5351 13.4405 28.5348 17.1474 30.8254 19.4379L32.4827 21.0953L28.9835 24.5946ZM37.6561 29.2991C37.6561 29.9504 37.1216 30.4866 36.4555 30.4707C35.8251 30.456 35.3122 29.9092 35.3122 29.2517V21.0953C35.3122 20.7845 35.1886 20.4864 34.9689 20.2667L32.4828 17.7806C31.1118 16.4095 31.1118 14.1788 32.4828 12.8078L33.0268 12.2638L37.6561 16.893V29.2991Z" fill="#007FFF"/>
</g>
<defs>
<clipPath id="clip0_4616_938">
<rect width="40" height="40" fill="white"/>
</clipPath>
</defs>
</svg>
