<svg width="24" height="24" viewBox="0 0 24 24" fill="none" xmlns="http://www.w3.org/2000/svg">
<path d="M19.44 13.0004C19.22 13.0004 18.99 12.9304 18.77 12.8804C18.3245 12.7822 17.8867 12.6518 17.46 12.4904C16.9961 12.3216 16.4862 12.3304 16.0283 12.515C15.5705 12.6996 15.1971 13.047 14.98 13.4904L14.76 13.9404C13.786 13.3985 12.891 12.7256 12.1 11.9404C11.3148 11.1494 10.6418 10.2544 10.1 9.28036L10.52 9.00036C10.9634 8.78327 11.3108 8.40989 11.4954 7.95205C11.68 7.49421 11.6888 6.98427 11.52 6.52036C11.3612 6.09278 11.2309 5.65515 11.13 5.21036C11.08 4.99036 11.04 4.76036 11.01 4.53036C10.8886 3.82598 10.5196 3.1881 9.96963 2.7316C9.41963 2.27509 8.72471 2.02997 8.01001 2.04036H5.01001C4.57904 2.03631 4.15226 2.12517 3.75872 2.30089C3.36518 2.4766 3.01412 2.73505 2.72944 3.05864C2.44476 3.38222 2.23314 3.76335 2.109 4.17607C1.98485 4.58879 1.95109 5.02342 2.01001 5.45036C2.54275 9.63974 4.45604 13.5322 7.44766 16.513C10.4393 19.4938 14.3387 21.3929 18.53 21.9104H18.91C19.6474 21.9114 20.3594 21.6409 20.91 21.1504C21.2264 20.8674 21.4791 20.5205 21.6515 20.1327C21.8239 19.7448 21.912 19.3248 21.91 18.9004V15.9004C21.8978 15.2057 21.6448 14.5369 21.1943 14.008C20.7439 13.4791 20.1238 13.123 19.44 13.0004ZM19.94 19.0004C19.9398 19.1423 19.9094 19.2827 19.8508 19.412C19.7922 19.5413 19.7067 19.6566 19.6 19.7504C19.4886 19.8474 19.358 19.9198 19.2167 19.9629C19.0754 20.0059 18.9266 20.0187 18.78 20.0004C15.0349 19.5202 11.5562 17.8068 8.89273 15.1306C6.22921 12.4545 4.53242 8.96769 4.07001 5.22036C4.05409 5.07387 4.06804 4.92569 4.11101 4.78475C4.15398 4.64381 4.22508 4.51304 4.32001 4.40036C4.41372 4.29369 4.52907 4.2082 4.65839 4.14957C4.78771 4.09095 4.92802 4.06054 5.07001 4.06036H8.07001C8.30256 4.05518 8.52963 4.13124 8.71215 4.27543C8.89467 4.41962 9.02122 4.62293 9.07001 4.85036C9.11001 5.12369 9.16001 5.39369 9.22001 5.66036C9.33553 6.1875 9.48927 6.70554 9.68001 7.21036L8.28001 7.86036C8.16031 7.91528 8.05263 7.9933 7.96317 8.08995C7.8737 8.1866 7.80421 8.29997 7.75868 8.42355C7.71315 8.54713 7.69248 8.67849 7.69786 8.81008C7.70323 8.94167 7.73455 9.0709 7.79001 9.19036C9.22921 12.2731 11.7073 14.7512 14.79 16.1904C15.0335 16.2904 15.3065 16.2904 15.55 16.1904C15.6747 16.1457 15.7893 16.0768 15.8872 15.9875C15.985 15.8983 16.0642 15.7905 16.12 15.6704L16.74 14.2704C17.257 14.4552 17.7846 14.6088 18.32 14.7304C18.5867 14.7904 18.8567 14.8404 19.13 14.8804C19.3574 14.9291 19.5607 15.0557 19.7049 15.2382C19.8491 15.4207 19.9252 15.6478 19.92 15.8804L19.94 19.0004Z" fill="#007FFF"/>
</svg>
