<svg width="48" height="48" viewBox="0 0 48 48" fill="none" xmlns="http://www.w3.org/2000/svg">
<path d="M46.5938 7.05742H46.5089C45.1221 7.05742 43.7774 6.41936 42.8199 5.30701C41.8768 4.21126 40.5073 3.58286 39.0624 3.58286C37.6177 3.58286 36.2482 4.21126 35.305 5.30701C34.3475 6.41945 33.0029 7.05751 31.6161 7.05751H31.5312H31.4464C30.0595 7.05751 28.715 6.41945 27.7574 5.30711C26.8144 4.21117 25.4449 3.58276 24 3.58276C22.5551 3.58276 21.1856 4.21117 20.2426 5.30692C19.285 6.41936 17.9405 7.05742 16.5536 7.05742H16.4688H16.3839C14.9971 7.05742 13.6525 6.41936 12.695 5.30692C11.7518 4.21117 10.3822 3.58276 8.93756 3.58276C7.49278 3.58276 6.12328 4.21117 5.18006 5.30692C4.2225 6.41936 2.87794 7.05742 1.49109 7.05742H1.40625C0.629625 7.05742 0 7.68704 0 8.46367V43.011C0 43.7876 0.629625 44.4173 1.40625 44.4173H1.49109C3.69788 44.4173 5.81944 43.4229 7.31166 41.6891C7.71994 41.2148 8.31253 40.9427 8.93747 40.9427C9.56241 40.9427 10.1549 41.2148 10.5633 41.6891C12.0556 43.4229 14.1772 44.4174 16.3838 44.4174H16.4687H16.5535C18.7603 44.4174 20.8818 43.4229 22.3742 41.6891C22.7824 41.2148 23.375 40.9427 23.9999 40.9427C24.6248 40.9427 25.2174 41.2148 25.6257 41.6891C27.118 43.4229 29.2395 44.4174 31.4463 44.4174H31.5311H31.616C33.8228 44.4174 35.9442 43.4229 37.4365 41.6892C37.8448 41.2149 38.4374 40.9428 39.0623 40.9428C39.6873 40.9428 40.2799 41.2149 40.6882 41.6892C42.1805 43.423 44.302 44.4174 46.5088 44.4174H46.5938C47.3704 44.4174 48 43.7878 48 43.0112V8.46367C48 7.68704 47.3704 7.05742 46.5938 7.05742ZM37.4367 7.1417C37.845 6.66733 38.4376 6.39526 39.0625 6.39526C39.6875 6.39526 40.2801 6.66733 40.6883 7.1417C41.8795 8.52554 43.4714 9.43829 45.1876 9.75048V24.1351C44.2926 23.8674 43.4676 23.333 42.82 22.5806C41.8769 21.4849 40.5074 20.8565 39.0625 20.8565C37.6177 20.8565 36.2483 21.4849 35.3051 22.5806C34.6575 23.333 33.8326 23.8674 32.9376 24.1351V9.75039C34.6537 9.43829 36.2455 8.52554 37.4367 7.1417ZM22.3743 7.1417C22.7825 6.66742 23.3751 6.39536 24 6.39536C24.6249 6.39536 25.2175 6.66742 25.6258 7.14179C26.8169 8.52554 28.409 9.43764 30.1251 9.74983V24.1352C29.23 23.8674 28.4051 23.3331 27.7575 22.5807C26.8144 21.485 25.4449 20.8566 24 20.8566C22.5551 20.8566 21.1856 21.485 20.2426 22.5807C19.595 23.3331 18.7701 23.8674 17.875 24.1352V9.74973C19.591 9.43764 21.1831 8.52545 22.3743 7.1417ZM7.31166 7.1417C7.71994 6.66733 8.31253 6.39526 8.93747 6.39526C9.56241 6.39526 10.155 6.66733 10.5633 7.1417C11.7545 8.52554 13.3463 9.43829 15.0624 9.75039V24.135C14.1674 23.8673 13.3425 23.3329 12.6949 22.5805C11.7517 21.4848 10.3822 20.8564 8.93747 20.8564C7.49269 20.8564 6.12319 21.4848 5.17997 22.5805C4.53234 23.3329 3.70744 23.8673 2.81241 24.135V9.75048C4.52869 9.43829 6.12056 8.52554 7.31166 7.1417ZM12.695 39.8543C11.7517 38.7585 10.3822 38.1301 8.93756 38.1301C7.49288 38.1301 6.12328 38.7586 5.18006 39.8544C4.53244 40.6068 3.70762 41.1422 2.8125 41.4099V27.0241C4.52869 26.7119 6.12066 25.7992 7.31166 24.4153C7.71994 23.9409 8.31253 23.6689 8.93747 23.6689C9.56241 23.6689 10.155 23.9409 10.5633 24.4153C11.7544 25.7992 13.3463 26.7113 15.0624 27.0234V41.4087C14.1674 41.1411 13.3425 40.6067 12.695 39.8543ZM27.7575 39.8544C26.8144 38.7586 25.4449 38.1301 24 38.1301C22.5551 38.1301 21.1856 38.7586 20.2426 39.8544C19.595 40.6068 18.7702 41.1422 17.875 41.4099V27.0241C19.5912 26.712 21.1832 25.7992 22.3743 24.4153C22.7825 23.9409 23.3751 23.6689 24 23.6689C24.6249 23.6689 25.2175 23.9409 25.6258 24.4153C26.8169 25.7992 28.4089 26.7113 30.1251 27.0234V41.4087C29.2299 41.1411 28.405 40.6067 27.7575 39.8544ZM45.1875 41.4099C44.2924 41.1422 43.4676 40.6068 42.8199 39.8544C41.8768 38.7586 40.5072 38.1301 39.0624 38.1301C37.6177 38.1301 36.2482 38.7586 35.305 39.8544C34.6574 40.6068 33.8326 41.1421 32.9375 41.4099V27.0241C34.6537 26.712 36.2455 25.7993 37.4366 24.4154C37.8449 23.941 38.4375 23.669 39.0624 23.669C39.6874 23.669 40.28 23.941 40.6882 24.4154C41.8793 25.7993 43.4713 26.712 45.1875 27.0242V41.4099Z" fill="#AC651E"/>
</svg>
