<svg width="48" height="48" viewBox="0 0 48 48" fill="none" xmlns="http://www.w3.org/2000/svg">
<g clip-path="url(#clip0_115_277)">
<path d="M46.5938 3.15956C45.5474 3.15956 44.5669 2.748 43.833 2.00081C42.5757 0.720656 40.8953 0.010125 39.1014 0.00028125C39.0887 0.00028125 39.0762 0.0001875 39.0635 0.0001875C37.2763 0.0001875 35.5976 0.696281 34.3335 1.96275C34.3311 1.96519 34.3286 1.96763 34.3262 1.97006L34.272 2.02509C33.5399 2.75672 32.5683 3.15966 31.5355 3.15966C30.4891 3.15966 29.5091 2.74828 28.7753 2.00034C27.5141 0.717281 25.8297 0.0069375 24.0322 0C24.0232 0 24.0147 0 24.0058 0C22.219 0 20.5402 0.696469 19.2762 1.96266C19.274 1.96491 19.2716 1.96725 19.2694 1.96959L19.2176 2.02219C18.4862 2.75569 17.513 3.15956 16.4774 3.15956C15.4312 3.15956 14.4502 2.74781 13.7156 2.00063C12.4373 0.699188 10.7355 -0.0106875 8.91244 0.00140625C8.91038 0.00140625 8.90831 0.001125 8.90625 0.001125C8.90512 0.001125 8.90409 0.0013125 8.90297 0.0013125C8.90044 0.0013125 8.89791 0.00121875 8.89538 0.00121875C7.12819 0.0147187 5.46712 0.711375 4.21397 1.96687L4.13053 2.05125C3.40125 2.78119 2.43234 3.18478 1.40231 3.18769C0.627188 3.18975 0 3.81872 0 4.59384V46.5938C0 47.3704 0.629625 48 1.40625 48H1.40672C1.40672 48 1.407 48 1.40719 48C3.95512 48 6.43612 46.9457 8.21766 45.107C8.61694 44.7055 9.31669 44.718 9.70444 45.1309C11.5057 46.9629 13.9094 47.9719 16.4728 47.9719H16.4859C19.0235 47.9719 21.4953 46.9295 23.2704 45.1112C23.6686 44.7068 24.3734 44.7158 24.7622 45.1306C26.5625 46.9628 28.9659 47.972 31.5299 47.972H31.5449C34.0789 47.972 36.55 46.9298 38.3274 45.1123C38.7262 44.7069 39.4311 44.7158 39.8202 45.1306C41.6207 46.9628 44.0261 47.9719 46.5938 47.9719C47.3704 47.9719 48 47.3423 48 46.5656V4.56581C48 3.78909 47.3704 3.15956 46.5938 3.15956ZM6.12478 4.03434L6.20869 3.9495C6.58322 3.57431 7.02197 3.28603 7.5 3.09337V31.2197C7.5 31.9963 8.12963 32.6259 8.90625 32.6259C9.68287 32.6259 10.3125 31.9963 10.3125 31.2197V3.06C10.8314 3.25528 11.3076 3.56259 11.7097 3.97191C12.9776 5.26172 14.6708 5.97197 16.4774 5.97197C18.2657 5.97197 19.9461 5.27456 21.2154 4.00163L21.2695 3.94678C22.0015 3.21487 22.9727 2.81241 24.0061 2.81241H24.0214C25.0626 2.81634 26.0386 3.22809 26.7687 3.97087C28.0349 5.26125 29.7277 5.97188 31.5355 5.97188C33.322 5.97188 35.0019 5.27456 36.2659 4.00847C36.2683 4.00603 36.2707 4.00359 36.2731 4.00116L36.3273 3.94613C36.7208 3.55275 37.1833 3.25528 37.6874 3.06356V31.2188C37.6874 31.9954 38.317 32.625 39.0937 32.625C39.8703 32.625 40.4999 31.9954 40.4999 31.2188V3.08747C40.9923 3.28387 41.4434 3.58153 41.8263 3.97144C42.7578 4.91981 43.9194 5.55497 45.1874 5.82487V38.6122C43.4864 37.1724 41.3563 36.3837 39.0965 36.375H39.0637C36.5246 36.375 34.1378 37.3653 32.3439 39.1625C31.9547 39.6245 31.1972 39.6643 30.7808 39.2163C29.3138 37.7231 27.4422 36.7764 25.4061 36.4776V9.84384C25.4061 9.06722 24.7764 8.43759 23.9998 8.43759C23.2232 8.43759 22.5936 9.06722 22.5936 9.84384V36.4789C20.5909 36.7761 18.7432 37.7034 17.2868 39.1625L17.2539 39.1953C17.2479 39.2012 17.242 39.2073 17.2362 39.2133C17.0394 39.4173 16.7643 39.5343 16.4774 39.5343C16.1874 39.5343 15.9265 39.4247 15.723 39.2175C13.934 37.3955 11.5421 36.386 8.98209 36.375H8.94834C6.67584 36.375 4.52569 37.1689 2.81241 38.6246V5.84934C4.05666 5.58075 5.20041 4.95966 6.12478 4.03434ZM39.0741 42C38.037 41.9974 37.0568 42.4027 36.3242 43.1381C35.0722 44.4227 33.3302 45.1594 31.5449 45.1594H31.5299C29.7265 45.1594 28.0356 44.4491 26.7684 43.1595C25.3348 41.6347 22.7132 41.6215 21.266 43.138C20.0163 44.4226 18.274 45.1593 16.4858 45.1593H16.4727C14.6695 45.1593 12.9781 44.4488 11.7103 43.1594C10.2708 41.6324 7.65712 41.6198 6.20822 43.1387C5.28469 44.0967 4.09284 44.7527 2.8125 45.0332V42.1035C3.32466 41.9005 3.79538 41.5895 4.18481 41.1849C4.19972 41.1699 4.21453 41.1548 4.22897 41.1398C5.49113 39.8809 7.16672 39.1875 8.94844 39.1875H8.97609C10.7737 39.1952 12.457 39.9057 13.7164 41.1882C14.4503 41.9354 15.4309 42.3469 16.4812 42.3469C17.5189 42.3469 18.5274 41.9203 19.2507 41.1761L19.2765 41.1504C20.5384 39.8862 22.2163 39.1892 24.0056 39.1876H24.033C25.8305 39.1945 27.5144 39.9048 28.7746 41.1875C30.2352 42.7465 32.9137 42.7102 34.3478 41.1352C34.3415 41.1422 34.3353 41.1488 34.3337 41.1504C35.5972 39.8846 37.277 39.1875 39.0638 39.1875H39.0911C40.8879 39.1944 42.572 39.9048 43.8328 41.1874C44.2237 41.5853 44.6846 41.8869 45.1876 42.0832V45.0108C43.9199 44.7409 42.7581 44.1074 41.8268 43.1596C41.0966 42.4162 40.1212 42.0045 39.0741 42Z" fill="#AC651E"/>
<path d="M16.4531 22.9689C17.2298 22.9689 17.8594 22.3392 17.8594 21.5626V13.5001C17.8594 12.7235 17.2298 12.0939 16.4531 12.0939C15.6765 12.0939 15.0469 12.7235 15.0469 13.5001V21.5626C15.0469 22.3392 15.6765 22.9689 16.4531 22.9689Z" fill="#AC651E"/>
<path d="M16.4531 28.5939C17.2298 28.5939 17.8594 27.9643 17.8594 27.1876C17.8594 26.411 17.2298 25.7814 16.4531 25.7814C15.6765 25.7814 15.0469 26.411 15.0469 27.1876C15.0469 27.9643 15.6765 28.5939 16.4531 28.5939Z" fill="#AC651E"/>
<path d="M31.5469 28.5939C32.3235 28.5939 32.9531 27.9642 32.9531 27.1876V19.1251C32.9531 18.3485 32.3235 17.7189 31.5469 17.7189C30.7702 17.7189 30.1406 18.3485 30.1406 19.1251V27.1876C30.1406 27.9642 30.7702 28.5939 31.5469 28.5939Z" fill="#AC651E"/>
<path d="M31.5469 14.9064C32.3235 14.9064 32.9531 14.2768 32.9531 13.5001C32.9531 12.7235 32.3235 12.0939 31.5469 12.0939C30.7702 12.0939 30.1406 12.7235 30.1406 13.5001C30.1406 14.2768 30.7702 14.9064 31.5469 14.9064Z" fill="#AC651E"/>
</g>
<defs>
<clipPath id="clip0_115_277">
<rect width="48" height="48" fill="white"/>
</clipPath>
</defs>
</svg>
