<svg xmlns="http://www.w3.org/2000/svg" version="1.1" xmlns:xlink="http://www.w3.org/1999/xlink" width="512" height="512" x="0" y="0" viewBox="0 0 512 512" style="enable-background:new 0 0 512 512" xml:space="preserve" class=""><g><path d="M328.156 251.854c-.493-2.365-2.544-4.492-5.355-4.78-1.228-.129-82.858-.109-83.353-.073V190.2c5.924-2.416 10.119-8.221 10.119-15.004v-16.974c0-8.941-7.274-16.214-16.214-16.214H114.542c-8.941 0-16.214 7.274-16.214 16.214v16.974c0 8.941 7.274 16.214 16.214 16.214h1.412v55.591H85.78a15.618 15.618 0 0 0-14.405 9.545L7.239 408.049c-4.008 9.472 2.944 20.003 13.257 20.003h240.755a15.59 15.59 0 0 0 14.9-10.881l3.72-11.641h62.28c9.285 0 16.22-8.537 14.329-17.619zm-37.401 79.577h-46.401l26.391-72.239h43.097zm-32.99-72.239-26.391 72.239h-48.71l5.603-15.336h21.259c2.029 0 4.156-1.252 5.16-2.85l23.826-37.862a6.09 6.09 0 0 0 .936-3.245v-12.945h18.317zM151.819 415.861l26.392-72.239h48.71l-26.391 72.239zm-61.689 0 26.391-72.239h48.71l-26.392 72.239zm36.447-99.766h48.71l-5.603 15.336h-48.71zm89.045-56.903h11.636v11.188l-11.636 18.488zm0-12.19v-55.591h11.636v55.591zm-105.104-71.806v-16.974a4.028 4.028 0 0 1 4.024-4.024h118.811a4.028 4.028 0 0 1 4.024 4.024v16.974a4.028 4.028 0 0 1-4.024 4.024H114.542a4.028 4.028 0 0 1-4.024-4.024zm92.913 16.215v112.494h-75.286V191.411zM82.599 261.3a3.447 3.447 0 0 1 3.181-2.107h30.174v50.451l-7.96 21.788H52.91zM18.465 412.799l29.285-69.177h55.791L77.15 415.861H20.496a2.201 2.201 0 0 1-2.031-3.062zm242.786 3.062H213.51l26.391-72.239h46.958l-22.32 69.839a3.438 3.438 0 0 1-3.288 2.4zm80.9-22.522H283.77l37.174-116.32 23.603 113.375a2.446 2.446 0 0 1-2.396 2.945zM500.117 231.971l-87.403-87.403 3.526-3.526a6.095 6.095 0 0 0 1.786-4.31c0-.961-.29-1.863-.714-2.706l6.557-6.558c12.179-12.176 23.003-19.895 36.36-18.034 2.65.379 5.267-1.048 6.388-3.5s.498-5.35-1.531-7.124c-23.387-20.453-58.634-19.643-81.115 1.494-2.395-2.003-5.926-1.956-8.177.294l-35.005 35.007c-2.338 2.338-2.35 6.085-.096 8.474l-14.654 14.654c-.489-.123-4.847-5.748-9.607-.988l-11.467 11.467c-8.385 8.38-8.391 21.962 0 30.348l12.312 12.31c8.38 8.385 21.962 8.391 30.348 0l11.464-11.464a6.093 6.093 0 0 0 0-8.619l-.989-.989 14.655-14.655c1.173 1.108 2.663 1.692 4.168 1.692 1.56 0 3.119-.595 4.31-1.786l3.526-3.526 87.401 87.403c7.724 7.724 20.232 7.728 27.957.002 7.722-7.722 7.731-20.232 0-27.957zm-161.111-28.72c-3.5 3.5-9.61 3.5-13.11 0l-12.312-12.31a9.268 9.268 0 0 1 0-13.11l7.157-7.157 25.419 25.422zm103.72-103.922c-10.424 3.717-19.303 11.345-27.476 19.519l-6.292 6.292-16.253-16.252c13.746-12.659 33.276-16.008 50.021-9.559zm-62.622 14.198 23.207 23.205c-4.854 4.741-25.063 24.212-26.388 26.388l-23.205-23.205zM349.49 182.17l-14.824-14.824 14.614-14.614 14.824 14.824zm142.008 69.137c-2.862 2.862-7.855 2.862-10.717 0l-87.403-87.403 10.717-10.717 87.403 87.403a7.575 7.575 0 0 1 0 10.717zM286.884 117.017a6.095 6.095 0 1 0 11.053-5.143L287.646 89.76a6.093 6.093 0 0 0-8.098-2.955 6.094 6.094 0 0 0-2.955 8.098zM315.599 119.089a6.093 6.093 0 0 0 7.814-3.638l8.36-22.915a6.092 6.092 0 0 0-3.638-7.814c-3.148-1.155-6.66.474-7.814 3.638l-8.36 22.914a6.093 6.093 0 0 0 3.638 7.815zM250.301 130.451l22.914 8.36a6.093 6.093 0 0 0 7.814-3.638 6.092 6.092 0 0 0-3.638-7.814l-22.915-8.36c-3.143-1.157-6.657.474-7.814 3.638a6.094 6.094 0 0 0 3.639 7.814z" fill="#cc4f0e" opacity="1" data-original="#000000" class=""></path></g></svg>