<svg width="48" height="48" viewBox="0 0 48 48" fill="none" xmlns="http://www.w3.org/2000/svg">
<g clip-path="url(#clip0_115_288)">
<path d="M40.875 0C37.1825 0 34.3223 3.14672 34.2023 3.28069C34.2014 3.28181 34.2006 3.28303 34.1995 3.28416C34.023 3.48216 33.8902 3.76266 33.8549 4.04194C33.7642 4.75266 33.3054 5.625 32.4375 5.625C31.5833 5.625 31.1312 4.79756 31.0185 4.03012L31.0201 4.04184L31.0188 4.04203C30.9831 3.76031 30.8639 3.49425 30.6727 3.28059C30.5527 3.14672 27.6925 0 24 0C20.3075 0 17.4473 3.14672 17.3273 3.28069C17.3261 3.282 17.3252 3.28341 17.324 3.28472C17.1451 3.486 17.0148 3.76584 16.9799 4.04194C16.8892 4.75266 16.4304 5.625 15.5625 5.625C14.7083 5.625 14.2562 4.79756 14.1435 4.03012L14.1451 4.04184L14.1438 4.04203C14.1081 3.76031 13.9889 3.49425 13.7977 3.28059C13.6778 3.14672 10.8175 0 7.125 0C3.44756 0 0.499594 3.12862 0.375844 3.26175C0.134344 3.52181 0 3.86372 0 4.21875V43.7812C0 44.358 0.353531 44.8748 0.889875 45.0872C1.42594 45.2995 2.03906 45.1614 2.43394 44.7412C2.45616 44.7174 4.68497 42.375 7.125 42.375C9.06244 42.375 10.8144 43.8592 11.4508 44.467C11.8023 45.9131 12.9653 48 15.5625 48C18.1597 48 19.3227 45.9131 19.6742 44.467C20.3104 43.8592 22.0623 42.375 24 42.375C25.9374 42.375 27.6894 43.8592 28.3258 44.467C28.6773 45.9131 29.8403 48 32.4375 48C35.0347 48 36.1977 45.9131 36.5492 44.467C37.1854 43.8592 38.9373 42.375 40.875 42.375C43.3218 42.375 45.548 44.6293 45.5823 44.6644C45.9799 45.0761 46.5877 45.2058 47.1189 44.992C47.6512 44.7777 48 44.2614 48 43.6875V4.21875C48 3.86372 47.8657 3.52181 47.6242 3.26175C47.5004 3.12862 44.5524 0 40.875 0ZM40.875 2.8125C42.7231 2.8125 44.4499 4.15622 45.1875 4.81716V21.1138C44.0213 20.4089 42.5218 19.7812 40.875 19.7812C39.2547 19.7812 37.7948 20.3872 36.6562 21.0786V4.80384C37.3672 4.14713 39.0382 2.8125 40.875 2.8125ZM32.4375 8.4375C32.9636 8.4375 33.4301 8.35078 33.8438 8.20209V23.8829C33.6802 24.6893 33.2612 25.4062 32.4375 25.4062C31.6097 25.4062 31.1903 24.678 31.0312 23.8812V8.20209C31.4449 8.35078 31.9114 8.4375 32.4375 8.4375ZM24 2.8125C25.8379 2.8125 27.5098 4.14872 28.2188 4.80366V21.0787C27.0802 20.3873 25.6203 19.7812 24 19.7812C22.3797 19.7812 20.9198 20.3872 19.7812 21.0786V4.80384C20.4922 4.14713 22.1632 2.8125 24 2.8125ZM15.5625 8.4375C16.0886 8.4375 16.5551 8.35078 16.9688 8.20209V23.8829C16.8052 24.6893 16.3862 25.4062 15.5625 25.4062C14.7347 25.4062 14.3153 24.678 14.1562 23.8812V8.20209C14.5699 8.35078 15.0364 8.4375 15.5625 8.4375ZM7.125 2.8125C8.96288 2.8125 10.6348 4.14872 11.3438 4.80366V21.0787C10.2052 20.3873 8.74528 19.7812 7.125 19.7812C5.47809 19.7812 3.97866 20.4089 2.8125 21.1138V4.81744C3.552 4.15472 5.27794 2.8125 7.125 2.8125ZM7.125 39.5625C5.47856 39.5625 3.97847 40.1895 2.8125 40.8942V24.6001C3.55172 23.9398 5.28469 22.5938 7.125 22.5938C8.96269 22.5938 10.6334 23.9289 11.3438 24.5853V40.8596C10.2052 40.1683 8.74519 39.5625 7.125 39.5625ZM15.5625 45.1875C14.7347 45.1875 14.3153 44.4593 14.1562 43.6625V27.9833C14.5699 28.132 15.0364 28.2188 15.5625 28.2188C16.0886 28.2188 16.5551 28.132 16.9688 27.9833V43.6642C16.8052 44.4705 16.3862 45.1875 15.5625 45.1875ZM24 39.5625C22.3798 39.5625 20.9198 40.1683 19.7812 40.8596V24.5863C20.4914 23.9322 22.1687 22.5938 24 22.5938C25.8377 22.5938 27.5084 23.9289 28.2188 24.5853V40.8596C27.0802 40.1683 25.6202 39.5625 24 39.5625ZM32.4375 45.1875C31.6097 45.1875 31.1903 44.4593 31.0312 43.6625V27.9833C31.4449 28.132 31.9114 28.2188 32.4375 28.2188C32.9636 28.2188 33.4301 28.132 33.8438 27.9833V43.6642C33.6802 44.4705 33.2612 45.1875 32.4375 45.1875ZM40.875 39.5625C39.2548 39.5625 37.7948 40.1683 36.6562 40.8596V24.5863C37.3664 23.9322 39.0437 22.5938 40.875 22.5938C42.7229 22.5938 44.4487 23.9365 45.1875 24.5989V40.8562C44.0222 40.1726 42.521 39.5625 40.875 39.5625Z" fill="#AC651E"/>
</g>
<defs>
<clipPath id="clip0_115_288">
<rect width="48" height="48" fill="white"/>
</clipPath>
</defs>
</svg>
