<svg width="48" height="48" viewBox="0 0 48 48" fill="none" xmlns="http://www.w3.org/2000/svg">
<g clip-path="url(#clip0_115_295)">
<path d="M19.4813 0H1.40625C0.629517 0 0 0.629517 0 1.40625V10.4436C0 11.2203 0.629517 11.8499 1.40625 11.8499H19.4813C20.2581 11.8499 20.8876 11.2203 20.8876 10.4436V1.40625C20.8876 0.629517 20.2581 0 19.4813 0ZM18.0751 9.03735H2.8125V2.8125H18.0751V9.03735Z" fill="#AC651E"/>
<path d="M19.4813 36.1501H1.40625C0.629517 36.1501 0 36.7797 0 37.5564V46.5938C0 47.3705 0.629517 48 1.40625 48H19.4813C20.2581 48 20.8876 47.3705 20.8876 46.5938V37.5564C20.8876 36.7797 20.2581 36.1501 19.4813 36.1501ZM18.0751 45.1875H2.8125V38.9626H18.0751V45.1875Z" fill="#AC651E"/>
<path d="M19.4813 18.0751H1.40625C0.629517 18.0751 0 18.7046 0 19.4813V28.5187C0 29.2954 0.629517 29.9249 1.40625 29.9249H19.4813C20.2581 29.9249 20.8876 29.2954 20.8876 28.5187V19.4813C20.8876 18.7046 20.2581 18.0751 19.4813 18.0751ZM18.0751 27.1124H2.8125V20.8876H18.0751V27.1124Z" fill="#AC651E"/>
<path d="M46.5936 0H28.5186C27.7422 0 27.1123 0.629517 27.1123 1.40625V10.4436C27.1123 11.2203 27.7422 11.8499 28.5186 11.8499H46.5936C47.3704 11.8499 47.9999 11.2203 47.9999 10.4436V1.40625C47.9999 0.629517 47.3704 0 46.5936 0ZM45.1874 9.03735H29.9248V2.8125H45.1874V9.03735Z" fill="#AC651E"/>
<path d="M46.5936 36.1501H28.5186C27.7422 36.1501 27.1123 36.7797 27.1123 37.5564V46.5938C27.1123 47.3705 27.7422 48 28.5186 48H46.5936C47.3704 48 47.9999 47.3705 47.9999 46.5938V37.5564C47.9999 36.7797 47.3704 36.1501 46.5936 36.1501ZM45.1874 45.1875H29.9248V38.9626H45.1874V45.1875Z" fill="#AC651E"/>
<path d="M46.5936 18.0751H28.5186C27.7422 18.0751 27.1123 18.7046 27.1123 19.4813V28.5187C27.1123 29.2954 27.7422 29.9249 28.5186 29.9249H46.5936C47.3704 29.9249 47.9999 29.2954 47.9999 28.5187V19.4813C47.9999 18.7046 47.3704 18.0751 46.5936 18.0751ZM45.1874 27.1124H29.9248V20.8876H45.1874V27.1124Z" fill="#AC651E"/>
</g>
<defs>
<clipPath id="clip0_115_295">
<rect width="48" height="48" fill="white"/>
</clipPath>
</defs>
</svg>
