<svg xmlns="http://www.w3.org/2000/svg" version="1.1" xmlns:xlink="http://www.w3.org/1999/xlink" width="512" height="512" x="0" y="0" viewBox="0 0 48 48" style="enable-background:new 0 0 512 512" xml:space="preserve" class=""><g><path d="M38.87 14.42a7.93 7.93 0 0 0-.15-3.49 8 8 0 0 0-13.46-3.5A9 9 0 0 0 8 11a2.81 2.81 0 0 0 0 .29A8.11 8.11 0 0 0 2 19v.1a9.16 9.16 0 0 0 9.26 8.9h8.3l-2.5 6.65A1 1 0 0 0 18 36h2.66L18 44.71a1 1 0 0 0 .48 1.17A1 1 0 0 0 19 46a1 1 0 0 0 .76-.35l11-13A1 1 0 0 0 30 31h-3.52l1.2-3H40a6 6 0 0 0 6-6 7.29 7.29 0 0 0-7.13-7.58Zm-14.7 18.14A1 1 0 0 0 25 33h2.84l-6.5 7.69 1.66-5.4a1 1 0 0 0-.16-.89A1 1 0 0 0 22 34h-2.56l2.25-6h3.83l-1.45 3.63a1 1 0 0 0 .1.93ZM40 26H11.26A7.17 7.17 0 0 1 4 19c0-2.18 1.39-5.06 5.3-6a1 1 0 0 0 .77-1.1A6.84 6.84 0 0 1 10 11a7 7 0 0 1 13.89-1.21 1 1 0 0 0 .82.81 1 1 0 0 0 1-.5 6 6 0 0 1 11 1.34 5.87 5.87 0 0 1-.18 3.66 1 1 0 0 0 .15 1 1 1 0 0 0 .89.38 5.8 5.8 0 0 1 4.6 1.34A5.6 5.6 0 0 1 44 22a4 4 0 0 1-4 4Z" fill="#cc4f0e" opacity="1" data-original="#000000" class=""></path><path d="M9.55 32.89A.93.93 0 0 0 10 33a1 1 0 0 0 .89-.55l1-2a1 1 0 0 0-1.78-.9l-1 2a1 1 0 0 0 .44 1.34ZM38.45 29.11a1 1 0 0 0-1.34.44l-1 2a1 1 0 0 0 .44 1.34.93.93 0 0 0 .45.11 1 1 0 0 0 .89-.55l1-2a1 1 0 0 0-.44-1.34ZM8.55 42.89A.93.93 0 0 0 9 43a1 1 0 0 0 .89-.55l1-2a1 1 0 0 0-1.78-.9l-1 2a1 1 0 0 0 .44 1.34ZM27 43a1 1 0 0 0 .89-.55l1-2a1 1 0 0 0-1.78-.9l-1 2a1 1 0 0 0 .44 1.34.93.93 0 0 0 .45.11ZM35.55 42.89A.93.93 0 0 0 36 43a1 1 0 0 0 .89-.55l1-2a1 1 0 0 0-1.78-.9l-1 2a1 1 0 0 0 .44 1.34ZM14 38a1 1 0 0 0 .89-.55l1-2a1 1 0 0 0-1.78-.9l-1 2a1 1 0 0 0 .44 1.34.93.93 0 0 0 .45.11ZM32 38a1 1 0 0 0 .89-.55l1-2a1 1 0 1 0-1.78-.9l-1 2a1 1 0 0 0 .44 1.34.93.93 0 0 0 .45.11ZM40.55 37.89A.93.93 0 0 0 41 38a1 1 0 0 0 .89-.55l1-2a1 1 0 0 0-1.78-.9l-1 2a1 1 0 0 0 .44 1.34ZM5 38a1 1 0 0 0 .89-.55l1-2a1 1 0 0 0-1.78-.9l-1 2a1 1 0 0 0 .44 1.34A.93.93 0 0 0 5 38Z" fill="#cc4f0e" opacity="1" data-original="#000000" class=""></path></g></svg>