<svg width="48" height="48" viewBox="0 0 48 48" fill="none" xmlns="http://www.w3.org/2000/svg">
<path d="M46.9029 48C31.2823 48 15.6617 48 0 48C0 37.8514 0 27.7029 0 17.5543C0.3168 17.1991 0.5952 16.8 0.954514 16.4955C7.44274 10.9906 13.9392 5.49669 20.4343 0C20.8005 0 21.1653 0 21.5314 0C22.3145 0.655543 23.1017 1.3056 23.8807 1.96526C29.6311 6.82697 35.3774 11.6942 41.136 16.5463C41.7408 17.0551 42.0247 17.6146 42.0123 18.4293C41.9712 21.2585 41.9973 24.0891 41.9986 26.9198C41.9986 27.1639 41.9986 27.408 41.9986 27.7371C43.3783 27.7371 44.6729 27.7618 45.9662 27.7289C46.8645 27.7056 47.5762 27.9593 47.9986 28.8014C47.9986 34.8357 47.9986 40.8699 47.9986 46.9042C47.6338 47.269 47.269 47.6338 46.9029 48ZM14.9911 44.965C14.9911 44.6208 14.9911 44.3493 14.9911 44.0791C14.9911 39.3024 14.987 34.5257 14.9925 29.749C14.9938 28.2158 15.4821 27.7385 17.0057 27.7385C24.0219 27.7385 31.0395 27.7385 38.0558 27.7385C38.3438 27.7385 38.6304 27.7385 38.9472 27.7385C38.9637 27.4327 38.9842 27.2325 38.9842 27.0309C38.987 24.4704 38.9746 21.9113 38.9979 19.3509C39.0021 18.8654 38.8334 18.5623 38.4699 18.2551C32.8279 13.4976 27.1927 8.73051 21.5726 3.9456C21.1392 3.57669 20.891 3.54651 20.4411 3.93051C14.8594 8.68663 9.25988 13.4263 3.648 18.1495C3.1872 18.5362 2.98834 18.9189 2.98971 19.5278C3.01029 27.7563 3.00343 35.9835 3.00617 44.2121C3.00617 44.4549 3.02811 44.6962 3.04046 44.965C7.03543 44.965 10.9577 44.965 14.9911 44.965ZM30 30.7995C25.9433 30.7995 22.0046 30.7995 18.0562 30.7995C18.0562 32.5426 18.0562 34.235 18.0562 35.9849C19.1904 35.9849 20.2601 35.9849 21.3312 35.9849C24.0027 35.9849 26.6743 35.9877 29.3458 35.9794C29.6105 35.9781 29.9973 36.1097 29.9986 35.6187C30.0027 34.0265 30 32.4343 30 30.7995ZM44.9541 30.7927C40.955 30.7927 37.0203 30.7927 33.061 30.7927C33.061 32.5303 33.061 34.224 33.061 35.9438C37.0478 35.9438 40.981 35.9438 44.9541 35.9438C44.9541 34.2213 44.9541 32.5413 44.9541 30.7927ZM27.7906 39.0377C27.7906 41.0523 27.7906 42.9819 27.7906 44.9499C30.277 44.9499 32.7237 44.9499 35.1909 44.9499C35.1909 42.96 35.1909 41.0167 35.1909 39.0377C32.7099 39.0377 30.2811 39.0377 27.7906 39.0377ZM18.0521 39.0514C18.0521 41.0523 18.0521 43.0011 18.0521 44.9486C20.2958 44.9486 22.4791 44.9486 24.6761 44.9486C24.6761 42.9573 24.6761 41.0112 24.6761 39.0514C22.4311 39.0514 20.2491 39.0514 18.0521 39.0514ZM44.9609 38.9979C43.1122 38.9979 41.3376 38.9979 39.563 38.9979C38.2601 38.9979 38.2601 38.9979 38.2601 40.2857C38.2601 41.8286 38.2601 43.3728 38.2601 44.9445C40.5381 44.9445 42.7337 44.9445 44.9609 44.9445C44.9609 42.9655 44.9609 41.0359 44.9609 38.9979Z" fill="#AC651E"/>
<path d="M46.9029 48C47.269 47.6338 47.6338 47.269 48 46.9029C48 47.269 48 47.6338 48 48C47.6338 48 47.269 48 46.9029 48Z" fill="#AC651E"/>
</svg>
