<svg width="120" height="24" viewBox="0 0 120 24" fill="none" xmlns="http://www.w3.org/2000/svg">
<path d="M22 9.6699C21.9368 9.48699 21.822 9.32633 21.6693 9.2074C21.5167 9.08848 21.3328 9.0164 21.14 8.9999L15.45 8.1699L12.9 2.9999C12.8181 2.83083 12.6902 2.68824 12.5311 2.58847C12.3719 2.48871 12.1878 2.43579 12 2.43579C11.8121 2.43579 11.6281 2.48871 11.4689 2.58847C11.3097 2.68824 11.1819 2.83083 11.1 2.9999L8.54998 8.1599L2.85998 8.9999C2.6749 9.02621 2.5009 9.10386 2.35773 9.22406C2.21455 9.34426 2.10794 9.50218 2.04998 9.6799C1.99692 9.85358 1.99216 10.0384 2.03621 10.2146C2.08025 10.3908 2.17144 10.5516 2.29998 10.6799L6.42998 14.6799L5.42998 20.3599C5.39428 20.5474 5.41297 20.7412 5.48385 20.9184C5.55473 21.0956 5.67483 21.2488 5.82998 21.3599C5.98119 21.468 6.15955 21.5318 6.34502 21.5442C6.5305 21.5566 6.71575 21.517 6.87998 21.4299L12 18.7599L17.1 21.4399C17.2403 21.5191 17.3988 21.5604 17.56 21.5599C17.7718 21.5607 17.9784 21.4941 18.15 21.3699C18.3051 21.2588 18.4252 21.1056 18.4961 20.9284C18.567 20.7512 18.5857 20.5574 18.55 20.3699L17.55 14.6899L21.68 10.6899C21.8244 10.5676 21.9311 10.4068 21.9877 10.2263C22.0444 10.0457 22.0486 9.85278 22 9.6699ZM15.85 13.6699C15.7327 13.7833 15.645 13.9237 15.5944 14.0789C15.5439 14.234 15.532 14.3992 15.56 14.5599L16.28 18.7499L12.52 16.7499C12.3753 16.6729 12.2139 16.6326 12.05 16.6326C11.8861 16.6326 11.7247 16.6729 11.58 16.7499L7.81998 18.7499L8.53998 14.5599C8.56791 14.3992 8.55609 14.234 8.50554 14.0789C8.45499 13.9237 8.36725 13.7833 8.24998 13.6699L5.24998 10.6699L9.45998 10.0599C9.62198 10.0374 9.77597 9.97544 9.90848 9.87955C10.041 9.78366 10.1479 9.65674 10.22 9.5099L12 5.6999L13.88 9.5199C13.952 9.66674 14.059 9.79366 14.1915 9.88955C14.324 9.98544 14.478 10.0474 14.64 10.0699L18.85 10.6799L15.85 13.6699Z" fill="#A22F2F"/>
<path d="M9.75 9L3.75 10.5L7.5 14.25L6.75 20.25L12 18L17.25 20.25L16.5 14.25L20.25 10.5L15 9L12 4.5L9.75 9Z" fill="#A22F2F"/>
<path d="M46.0005 9.6699C45.9373 9.48699 45.8224 9.32633 45.6698 9.2074C45.5171 9.08848 45.3333 9.0164 45.1405 8.9999L39.4505 8.1699L36.9005 2.9999C36.8186 2.83083 36.6907 2.68824 36.5316 2.58847C36.3724 2.48871 36.1883 2.43579 36.0005 2.43579C35.8126 2.43579 35.6285 2.48871 35.4694 2.58847C35.3102 2.68824 35.1823 2.83083 35.1005 2.9999L32.5505 8.1599L26.8605 8.9999C26.6754 9.02621 26.5014 9.10386 26.3582 9.22406C26.215 9.34426 26.1084 9.50218 26.0505 9.6799C25.9974 9.85358 25.9926 10.0384 26.0367 10.2146C26.0807 10.3908 26.1719 10.5516 26.3005 10.6799L30.4305 14.6799L29.4305 20.3599C29.3948 20.5474 29.4135 20.7412 29.4843 20.9184C29.5552 21.0956 29.6753 21.2488 29.8305 21.3599C29.9817 21.468 30.16 21.5318 30.3455 21.5442C30.531 21.5566 30.7162 21.517 30.8805 21.4299L36.0005 18.7599L41.1005 21.4399C41.2408 21.5191 41.3993 21.5604 41.5605 21.5599C41.7723 21.5607 41.9789 21.4941 42.1505 21.3699C42.3056 21.2588 42.4257 21.1056 42.4966 20.9284C42.5675 20.7512 42.5862 20.5574 42.5505 20.3699L41.5505 14.6899L45.6805 10.6899C45.8248 10.5676 45.9316 10.4068 45.9882 10.2263C46.0448 10.0457 46.0491 9.85278 46.0005 9.6699ZM39.8505 13.6699C39.7332 13.7833 39.6454 13.9237 39.5949 14.0789C39.5444 14.234 39.5325 14.3992 39.5605 14.5599L40.2805 18.7499L36.5205 16.7499C36.3758 16.6729 36.2144 16.6326 36.0505 16.6326C35.8865 16.6326 35.7251 16.6729 35.5805 16.7499L31.8205 18.7499L32.5405 14.5599C32.5684 14.3992 32.5566 14.234 32.506 14.0789C32.4555 13.9237 32.3677 13.7833 32.2505 13.6699L29.2505 10.6699L33.4605 10.0599C33.6225 10.0374 33.7765 9.97544 33.909 9.87955C34.0415 9.78366 34.1484 9.65674 34.2205 9.5099L36.0005 5.6999L37.8805 9.5199C37.9525 9.66674 38.0595 9.79366 38.192 9.88955C38.3245 9.98544 38.4785 10.0474 38.6405 10.0699L42.8505 10.6799L39.8505 13.6699Z" fill="#A22F2F"/>
<path d="M33.75 9L27.75 10.5L31.5 14.25L30.75 20.25L36 18L41.25 20.25L40.5 14.25L44.25 10.5L39 9L36 4.5L33.75 9Z" fill="#A22F2F"/>
<path d="M70.0005 9.6699C69.9373 9.48699 69.8224 9.32633 69.6698 9.2074C69.5171 9.08848 69.3333 9.0164 69.1405 8.9999L63.4505 8.1699L60.9005 2.9999C60.8186 2.83083 60.6907 2.68824 60.5316 2.58847C60.3724 2.48871 60.1883 2.43579 60.0005 2.43579C59.8126 2.43579 59.6285 2.48871 59.4694 2.58847C59.3102 2.68824 59.1823 2.83083 59.1005 2.9999L56.5505 8.1599L50.8605 8.9999C50.6754 9.02621 50.5014 9.10386 50.3582 9.22406C50.215 9.34426 50.1084 9.50218 50.0505 9.6799C49.9974 9.85358 49.9926 10.0384 50.0367 10.2146C50.0807 10.3908 50.1719 10.5516 50.3005 10.6799L54.4305 14.6799L53.4305 20.3599C53.3948 20.5474 53.4135 20.7412 53.4843 20.9184C53.5552 21.0956 53.6753 21.2488 53.8305 21.3599C53.9817 21.468 54.16 21.5318 54.3455 21.5442C54.531 21.5566 54.7162 21.517 54.8805 21.4299L60.0005 18.7599L65.1005 21.4399C65.2408 21.5191 65.3993 21.5604 65.5605 21.5599C65.7723 21.5607 65.9789 21.4941 66.1505 21.3699C66.3056 21.2588 66.4257 21.1056 66.4966 20.9284C66.5675 20.7512 66.5862 20.5574 66.5505 20.3699L65.5505 14.6899L69.6805 10.6899C69.8248 10.5676 69.9316 10.4068 69.9882 10.2263C70.0448 10.0457 70.0491 9.85278 70.0005 9.6699ZM63.8505 13.6699C63.7332 13.7833 63.6454 13.9237 63.5949 14.0789C63.5444 14.234 63.5325 14.3992 63.5605 14.5599L64.2805 18.7499L60.5205 16.7499C60.3758 16.6729 60.2144 16.6326 60.0505 16.6326C59.8865 16.6326 59.7251 16.6729 59.5805 16.7499L55.8205 18.7499L56.5405 14.5599C56.5684 14.3992 56.5566 14.234 56.506 14.0789C56.4555 13.9237 56.3677 13.7833 56.2505 13.6699L53.2505 10.6699L57.4605 10.0599C57.6225 10.0374 57.7765 9.97544 57.909 9.87955C58.0415 9.78366 58.1484 9.65674 58.2205 9.5099L60.0005 5.6999L61.8805 9.5199C61.9525 9.66674 62.0595 9.79366 62.192 9.88955C62.3245 9.98544 62.4785 10.0474 62.6405 10.0699L66.8505 10.6799L63.8505 13.6699Z" fill="#A22F2F"/>
<path d="M57.75 9L51.75 10.5L55.5 14.25L54.75 20.25L60 18L65.25 20.25L64.5 14.25L68.25 10.5L63 9L60 4.5L57.75 9Z" fill="#A22F2F"/>
<path d="M94.0005 9.6699C93.9373 9.48699 93.8224 9.32633 93.6698 9.2074C93.5171 9.08848 93.3333 9.0164 93.1405 8.9999L87.4505 8.1699L84.9005 2.9999C84.8186 2.83083 84.6907 2.68824 84.5316 2.58847C84.3724 2.48871 84.1883 2.43579 84.0005 2.43579C83.8126 2.43579 83.6285 2.48871 83.4694 2.58847C83.3102 2.68824 83.1823 2.83083 83.1005 2.9999L80.5505 8.1599L74.8605 8.9999C74.6754 9.02621 74.5014 9.10386 74.3582 9.22406C74.215 9.34426 74.1084 9.50218 74.0505 9.6799C73.9974 9.85358 73.9926 10.0384 74.0367 10.2146C74.0807 10.3908 74.1719 10.5516 74.3005 10.6799L78.4305 14.6799L77.4305 20.3599C77.3948 20.5474 77.4135 20.7412 77.4843 20.9184C77.5552 21.0956 77.6753 21.2488 77.8305 21.3599C77.9817 21.468 78.16 21.5318 78.3455 21.5442C78.531 21.5566 78.7162 21.517 78.8805 21.4299L84.0005 18.7599L89.1005 21.4399C89.2408 21.5191 89.3993 21.5604 89.5605 21.5599C89.7723 21.5607 89.9789 21.4941 90.1505 21.3699C90.3056 21.2588 90.4257 21.1056 90.4966 20.9284C90.5675 20.7512 90.5862 20.5574 90.5505 20.3699L89.5505 14.6899L93.6805 10.6899C93.8248 10.5676 93.9316 10.4068 93.9882 10.2263C94.0448 10.0457 94.0491 9.85278 94.0005 9.6699ZM87.8505 13.6699C87.7332 13.7833 87.6454 13.9237 87.5949 14.0789C87.5444 14.234 87.5325 14.3992 87.5605 14.5599L88.2805 18.7499L84.5205 16.7499C84.3758 16.6729 84.2144 16.6326 84.0505 16.6326C83.8865 16.6326 83.7251 16.6729 83.5805 16.7499L79.8205 18.7499L80.5405 14.5599C80.5684 14.3992 80.5566 14.234 80.506 14.0789C80.4555 13.9237 80.3677 13.7833 80.2505 13.6699L77.2505 10.6699L81.4605 10.0599C81.6225 10.0374 81.7765 9.97544 81.909 9.87955C82.0415 9.78366 82.1484 9.65674 82.2205 9.5099L84.0005 5.6999L85.8805 9.5199C85.9525 9.66674 86.0595 9.79366 86.192 9.88955C86.3245 9.98544 86.4785 10.0474 86.6405 10.0699L90.8505 10.6799L87.8505 13.6699Z" fill="#A22F2F"/>
<path d="M81.75 9L75.75 10.5L79.5 14.25L78.75 20.25L84 18L89.25 20.25L88.5 14.25L92.25 10.5L87 9L84 4.5L81.75 9Z" fill="#A22F2F"/>
<path d="M118 9.6699C117.937 9.48699 117.822 9.32633 117.67 9.2074C117.517 9.08848 117.333 9.0164 117.14 8.9999L111.45 8.1699L108.9 2.9999C108.819 2.83083 108.691 2.68824 108.532 2.58847C108.372 2.48871 108.188 2.43579 108 2.43579C107.813 2.43579 107.629 2.48871 107.469 2.58847C107.31 2.68824 107.182 2.83083 107.1 2.9999L104.55 8.1599L98.8605 8.9999C98.6754 9.02621 98.5014 9.10386 98.3582 9.22406C98.215 9.34426 98.1084 9.50218 98.0505 9.6799C97.9974 9.85358 97.9926 10.0384 98.0367 10.2146C98.0807 10.3908 98.1719 10.5516 98.3005 10.6799L102.43 14.6799L101.43 20.3599C101.395 20.5474 101.413 20.7412 101.484 20.9184C101.555 21.0956 101.675 21.2488 101.83 21.3599C101.982 21.468 102.16 21.5318 102.346 21.5442C102.531 21.5566 102.716 21.517 102.88 21.4299L108 18.7599L113.1 21.4399C113.241 21.5191 113.399 21.5604 113.56 21.5599C113.772 21.5607 113.979 21.4941 114.15 21.3699C114.306 21.2588 114.426 21.1056 114.497 20.9284C114.567 20.7512 114.586 20.5574 114.55 20.3699L113.55 14.6899L117.68 10.6899C117.825 10.5676 117.932 10.4068 117.988 10.2263C118.045 10.0457 118.049 9.85278 118 9.6699ZM111.85 13.6699C111.733 13.7833 111.645 13.9237 111.595 14.0789C111.544 14.234 111.533 14.3992 111.56 14.5599L112.28 18.7499L108.52 16.7499C108.376 16.6729 108.214 16.6326 108.05 16.6326C107.887 16.6326 107.725 16.6729 107.58 16.7499L103.82 18.7499L104.54 14.5599C104.568 14.3992 104.557 14.234 104.506 14.0789C104.455 13.9237 104.368 13.7833 104.25 13.6699L101.25 10.6699L105.46 10.0599C105.622 10.0374 105.776 9.97544 105.909 9.87955C106.041 9.78366 106.148 9.65674 106.22 9.5099L108 5.6999L109.88 9.5199C109.953 9.66674 110.059 9.79366 110.192 9.88955C110.324 9.98544 110.478 10.0474 110.64 10.0699L114.85 10.6799L111.85 13.6699Z" fill="#A22F2F"/>
<path d="M105.75 9L99.75 10.5L103.5 14.25L102.75 20.25L108 18L113.25 20.25L112.5 14.25L116.25 10.5L111 9L108 4.5L105.75 9Z" fill="#A22F2F"/>
</svg>
