<svg width="24" height="24" viewBox="0 0 24 24" fill="none" xmlns="http://www.w3.org/2000/svg">
<g clip-path="url(#clip0_4616_453)">
<path d="M23.3973 5.70404L21.8197 5.47482L21.1142 4.04528C20.8563 3.52267 20.1111 3.52267 19.8532 4.04528L19.1476 5.47482L17.5701 5.70404C16.9934 5.78786 16.7631 6.49656 17.1804 6.90334L18.3219 8.01606L18.0525 9.58726C17.9539 10.1617 18.5568 10.5997 19.0726 10.3285L20.4837 9.5867L21.8947 10.3285C22.4105 10.5997 23.0134 10.1617 22.9149 9.58726L22.6454 8.01606L23.787 6.90334C24.2043 6.49661 23.974 5.78786 23.3973 5.70404ZM21.3991 7.26709C21.2334 7.42862 21.1578 7.66136 21.1969 7.88945L21.288 8.42087L20.8109 8.17C20.606 8.06232 20.3613 8.06232 20.1565 8.17L19.6793 8.42087L19.7704 7.88945C19.8095 7.66136 19.7339 7.42862 19.5682 7.26709L19.1822 6.89082L19.7157 6.81329C19.9447 6.78001 20.1427 6.6362 20.2451 6.42868L20.4837 5.94526L20.7223 6.42868C20.8247 6.6362 21.0227 6.78001 21.2517 6.81329L21.7853 6.89082L21.3991 7.26709Z" fill="#007FFF"/>
<path d="M9.48669 5.21628L9.13424 7.27138C9.0357 7.84578 9.63861 8.28378 10.1544 8.01261L12 7.0423L13.8455 8.01257C14.3614 8.28374 14.9643 7.84574 14.8657 7.27133L14.5133 5.21624L16.0064 3.76082C16.4237 3.35404 16.1934 2.64529 15.6167 2.56152L13.5533 2.26171L12.6305 0.391957C12.3726 -0.130652 11.6274 -0.130652 11.3695 0.391957L10.4467 2.26175L8.3833 2.56157C7.80659 2.64538 7.5763 3.35408 7.99363 3.76086L9.48669 5.21628ZM11.0147 3.60022C11.2438 3.56694 11.4417 3.42308 11.5441 3.21557L12 2.29189L12.4559 3.21561C12.5583 3.42313 12.7563 3.56699 12.9853 3.60022L14.0046 3.74835L13.267 4.46736C13.1013 4.62889 13.0257 4.86163 13.0648 5.08972L13.2389 6.10494L12.3272 5.6256C12.1223 5.51793 11.8776 5.51793 11.6728 5.6256L10.761 6.10494L10.9352 5.08972C10.9743 4.86163 10.8987 4.62889 10.733 4.46736L9.99533 3.74835L11.0147 3.60022Z" fill="#007FFF"/>
<path d="M1.35461 8.01611L1.08512 9.58731C0.986593 10.1617 1.5895 10.5997 2.10531 10.3285L3.51634 9.58675L4.92737 10.3285C5.44319 10.5997 6.04609 10.1617 5.94756 9.58731L5.67808 8.01611L6.81962 6.90339C7.23695 6.49661 7.00666 5.78786 6.42995 5.70409L4.85237 5.47487L4.1469 4.04528C3.889 3.52267 3.14378 3.52267 2.88587 4.04528L2.18036 5.47482L0.60278 5.70404C0.0260769 5.78786 -0.20422 6.49656 0.213108 6.90334L1.35461 8.01611ZM2.74839 6.81329C2.97742 6.78001 3.17537 6.63615 3.2778 6.42864L3.51639 5.94522L3.75498 6.42864C3.8574 6.63615 4.05536 6.77996 4.28439 6.81329L4.81787 6.89082L4.43186 7.26709C4.26615 7.42862 4.1905 7.66136 4.22964 7.88945L4.32076 8.42087L3.84358 8.17C3.63873 8.06232 3.39405 8.06232 3.1892 8.17L2.71201 8.42087L2.80314 7.88945C2.84228 7.66136 2.76662 7.42862 2.60092 7.26709L2.21491 6.89082L2.74839 6.81329Z" fill="#007FFF"/>
<path d="M17.0156 14.1562H14.4375V12.0469C14.4375 10.6253 13.281 9.46875 11.8594 9.46875C10.9547 9.46875 10.2188 10.2047 10.2188 11.1094V12.5156C10.2188 12.969 10.0689 13.4185 9.79688 13.7812C9.40064 14.3096 8.7698 14.625 8.10938 14.625H7.40625V13.9219C7.40625 13.5336 7.09144 13.2188 6.70312 13.2188H0.703125C0.314812 13.2188 0 13.5336 0 13.9219V23.2969C0 23.6852 0.314812 24 0.703125 24H6.70312C7.09144 24 7.40625 23.6852 7.40625 23.2969V22.5938H9.23559C10.2468 23.5028 11.5404 24 12.9106 24H16.5469C17.9685 24 19.125 22.8435 19.125 21.4219V16.2656C19.125 15.1025 18.1788 14.1562 17.0156 14.1562ZM6 22.5938H1.40625V14.625H6V22.5938ZM17.7188 16.9688H16.0781C15.6898 16.9688 15.375 17.2836 15.375 17.6719C15.375 18.0602 15.6898 18.375 16.0781 18.375H17.7188V19.7812H16.0781C15.6898 19.7812 15.375 20.0961 15.375 20.4844C15.375 20.8727 15.6898 21.1875 16.0781 21.1875H17.7188V21.4219C17.7188 22.068 17.193 22.5938 16.5469 22.5938H12.9106C11.816 22.5938 10.7868 22.1675 10.0128 21.3935C9.88097 21.2616 9.70214 21.1875 9.51562 21.1875H7.40625V16.0312H8.10938C9.21005 16.0312 10.2615 15.5055 10.9219 14.625C11.3753 14.0205 11.625 13.2713 11.625 12.5156V11.1094C11.625 10.9801 11.7301 10.875 11.8594 10.875C12.5055 10.875 13.0312 11.4007 13.0312 12.0469V14.8594C13.0312 15.2477 13.3461 15.5625 13.7344 15.5625H17.0156C17.4033 15.5625 17.7188 15.8779 17.7188 16.2656V16.9688Z" fill="#007FFF"/>
</g>
<defs>
<clipPath id="clip0_4616_453">
<rect width="24" height="24" fill="white"/>
</clipPath>
</defs>
</svg>
