<svg width="24" height="24" viewBox="0 0 24 24" fill="none" xmlns="http://www.w3.org/2000/svg">
<path d="M24 8.00827C24 7.82185 23.9508 7.6432 23.8301 7.50407L21.4592 4.74667C21.3256 4.5908 21.1306 4.50105 20.9254 4.50105H20.0902V3.1205H20.7992C21.1874 3.1205 21.5021 2.80577 21.5021 2.41755C21.5021 2.02933 21.1874 1.7146 20.7992 1.7146H12.7086C12.3204 1.7146 12.0057 2.02933 12.0057 2.41755V6.52237L10.4074 4.62749C9.56615 3.63146 8.33589 3.06019 7.03215 3.06019C7.03205 3.06019 7.03219 3.06019 7.0321 3.06019C5.7284 3.06019 4.498 3.6315 3.65652 4.62787L1.02889 7.74316H0.70881C0.320593 7.74316 0.00585793 8.0579 0.00585793 8.44612V12.8645C0.00585793 13.0129 0.0527683 13.1574 0.139934 13.2775L1.69946 15.3898H0.702952C0.314735 15.3898 0 15.7046 0 16.0928V18.874C0 19.2622 0.314735 19.5769 0.702952 19.5769H3.02204C3.88995 23.214 8.91071 23.1524 9.74142 19.5769H14.269C15.1414 23.2076 20.1367 23.169 20.9886 19.5769H23.2971C23.6853 19.5769 24 19.2622 24 18.874V8.00827ZM16.2016 15.3897V5.90691H17.6075V11.2933C17.6075 11.6815 17.9223 11.9962 18.3105 11.9962H22.5849V15.3897H16.2016ZM9.74957 18.1709C9.64746 17.666 9.43694 17.1989 9.13402 16.7956H14.8803C14.5691 17.2065 14.3608 17.6804 14.2607 18.1709H9.74957ZM22.5849 8.22131V10.5903H19.0134V5.90691H20.602L22.5849 8.22131ZM4.73091 5.53463C5.30448 4.85558 6.14324 4.46609 7.03215 4.46609C7.92105 4.46609 8.75981 4.85558 9.33305 5.5343L11.1961 7.74312H2.86814L4.73091 5.53463ZM1.4381 12.6362V9.14897H12.7086C13.0863 9.15638 13.4177 8.82308 13.4116 8.44602V3.1205H18.6843V4.50101H15.4987C15.1105 4.50101 14.7957 4.81574 14.7957 5.20396V15.3897H3.43669L1.4381 12.6362ZM1.4059 16.7956H3.63314C3.62048 16.8126 3.60727 16.8289 3.5949 16.8461C3.30467 17.2487 3.10944 17.6993 3.01351 18.1709H1.4059V16.7956ZM6.70738 20.8598C5.63599 21.0567 4.52917 20.259 4.37724 19.1802C4.18032 18.1089 4.97803 17.002 6.05673 16.8501C7.12793 16.6532 8.23499 17.4509 8.38683 18.5296C8.56622 19.6351 7.81284 20.6804 6.70738 20.8598ZM17.9546 20.8598C16.8833 21.0567 15.7764 20.2589 15.6245 19.1802C15.407 17.9749 16.4077 16.8008 17.6321 16.8236C18.0544 16.8236 18.4657 16.9557 18.8162 17.2083C20.2783 18.2518 19.7275 20.5762 17.9546 20.8598ZM22.6 18.1709H20.9968C20.8947 17.666 20.6842 17.1989 20.3813 16.7956H22.6V18.1709Z" fill="#007FFF"/>
<path d="M18.3183 18.7173C18.2233 18.2038 17.5829 17.9748 17.1837 18.3115C16.7268 18.6809 16.9149 19.4333 17.4921 19.544C17.9712 19.6491 18.4238 19.1963 18.3183 18.7173Z" fill="#007FFF"/>
<path d="M7.07106 18.7174C6.97592 18.2038 6.33577 17.9748 5.93649 18.3116C5.47953 18.681 5.66754 19.4332 6.24485 19.544C6.72394 19.6491 7.17655 19.1963 7.07106 18.7174Z" fill="#007FFF"/>
<path d="M12.718 10.5498C12.3297 10.5498 12.015 10.8645 12.015 11.2528V13.2971C12.015 13.6853 12.3297 14 12.718 14C13.1062 14 13.4209 13.6853 13.4209 13.2971V11.2528C13.4209 10.8645 13.1062 10.5498 12.718 10.5498Z" fill="#007FFF"/>
<path d="M9.9062 10.5498C9.51798 10.5498 9.20325 10.8645 9.20325 11.2528V13.2971C9.20325 13.6853 9.51798 14 9.9062 14C10.2944 14 10.6092 13.6853 10.6092 13.2971V11.2528C10.6092 10.8645 10.2944 10.5498 9.9062 10.5498Z" fill="#007FFF"/>
<path d="M7.09437 10.5498C6.70615 10.5498 6.39142 10.8645 6.39142 11.2528V13.2971C6.39142 13.6853 6.70615 14 7.09437 14C7.48259 14 7.79732 13.6853 7.79732 13.2971V11.2528C7.79732 10.8645 7.48259 10.5498 7.09437 10.5498Z" fill="#007FFF"/>
<path d="M4.28254 10.5498C3.89432 10.5498 3.57959 10.8645 3.57959 11.2528V13.2971C3.57959 13.6853 3.89432 14 4.28254 14C4.67076 14 4.98549 13.6853 4.98549 13.2971V11.2528C4.98549 10.8645 4.67076 10.5498 4.28254 10.5498Z" fill="#007FFF"/>
</svg>
