<svg width="178" height="60" viewBox="0 0 178 60" fill="none" xmlns="http://www.w3.org/2000/svg">
<path d="M136.642 44.0644C137.202 44.7955 137.943 45.3563 138.603 45.9772C140.285 47.5696 141.946 49.1819 143.608 50.7943C145.62 52.7371 147.662 54.6399 149.784 56.4526C150.844 57.3639 151.855 58.3253 152.876 59.2767C153.026 59.4169 153.317 59.5871 152.996 59.8475C151.455 59.8976 149.904 59.9377 148.362 59.9877C146.461 60.0478 144.569 59.8876 142.587 59.497C141.886 58.836 141.116 58.095 140.315 57.3739C139.975 57.0735 139.684 56.6428 139.134 56.7129L139.104 56.6829C139.164 56.5227 139.154 56.3825 139.014 56.2623C137.733 55.0505 136.471 53.8187 135.04 52.7772C134.98 52.7271 134.92 52.677 134.86 52.627C132.738 50.6341 130.476 48.7914 128.294 46.8685C125.421 44.3248 122.579 41.7611 119.726 39.1973C117.024 36.7738 114.311 34.3502 111.629 31.8966C109.567 30.0039 107.595 28.021 105.513 26.1583C101.47 22.543 97.6061 18.7174 93.3622 15.3124C91.991 14.2108 90.6998 13.019 89.3786 11.8674C89.1985 11.7071 89.0383 11.5269 88.658 11.5168C88.1275 11.9875 87.537 12.5083 86.9564 13.0391C85.0747 14.7616 83.203 16.5041 81.3013 18.2166C78.1684 21.0608 75.0056 23.8749 71.8727 26.7191C71.3723 27.1697 70.9018 27.6605 70.4214 28.1412C70.1411 28.2313 69.9009 28.3815 69.7808 28.6719C69.0301 29.3129 68.2594 29.9438 67.5288 30.6048C65.4469 32.4875 63.375 34.3903 61.3031 36.2831C61.0329 36.3532 60.8627 36.5434 60.7526 36.7838C59.7217 37.6651 58.6907 38.5263 57.6698 39.4176C55.3277 41.4506 53.0656 43.5737 50.6835 45.5666C48.8618 47.0989 47.2003 48.8214 45.4687 50.4538C45.1985 50.5139 45.0183 50.6941 44.9082 50.9445C43.2167 52.2364 41.6953 53.7186 40.1639 55.2007C39.7435 55.361 39.4733 55.7315 39.153 56.0119C37.6616 57.3138 36.1803 58.6157 34.6889 59.9176C31.6462 59.8776 28.6134 59.8475 25.5706 59.7975C25.2704 59.7975 24.9301 59.9176 24.5797 59.5271C25.1503 58.9863 25.7108 58.4455 26.2913 57.9147C28.6434 55.7616 31.0756 53.6885 33.3177 51.4252C34.2185 50.5139 35.1994 49.6927 36.1302 48.8214C39.0729 46.0574 41.9956 43.2733 44.9483 40.5293C48.5415 37.1844 52.1848 33.8795 55.7781 30.5347C57.7999 28.6519 59.7417 26.699 61.7735 24.8263C65.6771 21.221 69.6507 17.6859 73.5442 14.0706C76.2467 11.5769 78.8791 9.00317 81.5315 6.44943C83.7235 4.34636 86.0556 2.40352 88.3277 0.380557C88.5078 0.220322 88.688 0.0600879 89.0583 0C89.6289 0.270395 90.1493 0.751099 90.6798 1.22179C92.8718 3.20469 95.0838 5.16756 97.2558 7.1805C102.33 11.8774 107.395 16.5843 112.44 21.3212C115.853 24.5259 119.176 27.8107 122.549 31.0554C126.763 35.0913 131.117 38.977 135.41 42.9228C135.801 43.3234 136.221 43.6939 136.642 44.0644Z" fill="#EEE0D2"/>
<path d="M41.9255 40.1587C39.5033 38.266 37.0311 36.3131 34.6189 34.0899C25.9009 42.5522 17.7635 51.4953 8.69531 59.8075C5.95281 59.8075 2.98011 59.8075 0.00741017 59.8075C-0.0326262 59.5671 0.0974929 59.457 0.207593 59.3468C2.83999 56.6128 5.48238 53.8888 8.09476 51.1348C12.0784 46.9286 16.082 42.7425 20.1057 38.5764C23.0984 35.4719 26.011 32.2872 28.9537 29.1326C30.0447 27.9609 31.0356 26.7091 32.2567 25.5874C40.6043 25.5874 48.9919 25.5874 57.3595 25.5874C57.5097 26.0181 57.1794 26.1482 57.0092 26.3185C54.8573 28.5217 52.6152 30.6248 50.3131 32.6678C48.6716 34.1199 47.1402 35.7022 45.5488 37.2244C44.628 38.1057 43.6871 38.967 42.7462 39.8383C42.5761 39.9985 42.3959 40.1688 41.9255 40.1587Z" fill="#EEE0D2"/>
<path d="M144.359 25.7577C145.149 26.2684 145.59 27.1096 146.24 27.7506C154.268 35.7823 162.285 43.8241 170.292 51.8658C171.303 52.8873 172.294 53.9289 173.265 54.9904C174.316 56.1421 175.507 57.1536 176.628 58.2251C177.088 58.6658 177.499 59.1365 177.799 59.9076C176.898 59.9076 176.107 59.9176 175.327 59.9076C173.325 59.8876 171.333 59.8575 169.331 59.8575C168.641 59.8575 168.18 59.6172 167.69 59.0964C165.077 56.2923 162.405 53.5383 159.733 50.7743C158.011 48.9916 156.289 47.209 154.538 45.4565C152.556 43.4836 150.494 41.5808 148.562 39.5679C147.021 37.9555 145.37 36.4533 143.938 34.7308C143.768 34.5205 143.508 34.3803 143.318 34.22C142.897 34.3002 142.687 34.6206 142.397 34.8209C141.396 35.4418 140.495 36.1929 139.654 37.0141C138.133 37.9755 136.752 39.1172 135.43 40.329C135.03 40.4692 134.86 40.1287 134.64 39.9184C131.567 36.954 128.494 33.9797 125.421 31.0053C123.73 29.373 122.028 27.7406 120.197 26.2484C119.986 26.0781 119.706 25.9479 119.686 25.5273C121.718 25.5273 123.75 25.5173 125.782 25.5273C131.137 25.5574 136.491 25.6074 141.856 25.6275C142.687 25.6475 143.518 25.8678 144.359 25.7577Z" fill="#EEE0D2"/>
<path d="M87.6871 35.1915C87.6871 35.3417 87.6871 35.4919 87.6871 35.6521C87.4369 37.2545 87.537 38.8568 87.547 40.4592C87.4769 40.6995 87.4769 40.9399 87.5269 41.1802C87.4569 41.5808 87.4569 41.9814 87.5369 42.382C87.4369 42.5823 87.2667 42.6524 87.0565 42.6624C83.9137 42.8327 80.7708 42.7826 77.5078 42.8226C77.3277 39.4277 77.5579 36.0728 77.5178 32.6978C80.8809 32.9482 84.0938 32.7179 87.2867 32.778C87.5369 32.8681 87.5269 33.0984 87.627 33.2587C87.587 33.8996 87.4669 34.5505 87.6871 35.1915Z" fill="#EEE0D2"/>
<path d="M99.9582 54.6599C96.7753 54.6599 93.6025 54.6499 90.3295 54.4296C90.0592 51.3651 90.1293 48.4308 90.1093 45.5566C90.3795 45.156 90.7299 45.0659 91.0902 45.0659C94.0729 45.0559 97.0556 45.0659 100.118 45.0659C100.299 48.1905 100.369 51.285 100.369 54.3895C100.299 54.5698 100.108 54.5798 99.9582 54.6599Z" fill="#EEE0D2"/>
<path d="M90.0192 33.0583C93.4423 33.0383 96.7353 33.1284 100.118 33.2686C100.228 36.3932 100.158 39.4377 100.058 42.5122C96.6552 42.5122 93.3322 42.5122 89.8991 42.5122C89.9191 39.3375 90.3195 36.253 90.0192 33.0583Z" fill="#EEE0D2"/>
<path d="M87.2367 54.4496C85.6853 54.2894 84.1339 54.4296 82.5724 54.4196C80.981 54.4096 79.3895 54.4196 77.708 54.4196C77.708 51.3451 77.708 48.3307 77.708 45.3163C78.8891 44.9057 85.2249 44.9257 87.3768 45.3463C87.4068 45.4164 87.4569 45.4865 87.4569 45.5566C87.3968 48.4609 87.8172 51.3551 87.6771 54.2694C87.5369 54.3295 87.3868 54.3895 87.2367 54.4496Z" fill="#EEE0D2"/>
</svg>
