<svg width="24" height="24" viewBox="0 0 24 24" fill="none" xmlns="http://www.w3.org/2000/svg">
<g clip-path="url(#clip0_115_372)">
<path d="M0 16.3604C0 16.9316 0.64725 17.264 1.11145 16.9327L4.97728 14.175C5.30152 13.9437 5.68345 13.8215 6.0818 13.8215H14.5841C16.0807 13.8215 17.2982 12.6039 17.2982 11.1073V2.18555C17.2982 1.79723 16.9834 1.48242 16.5951 1.48242H2.71416C1.21758 1.48242 0 2.69995 0 4.19658L0 16.3604ZM1.40625 4.19658C1.40625 3.47536 1.99298 2.88867 2.71416 2.88867H15.8919V11.1073C15.8919 11.8285 15.3052 12.4152 14.584 12.4152H6.08175C5.38894 12.4152 4.72462 12.6279 4.16062 13.0302L1.40625 14.9951V4.19658Z" fill="#AC651E"/>
<path d="M23.9999 9.65032C23.9999 8.15351 22.7824 6.93579 21.2859 6.93579H19.4076C19.0193 6.93579 18.7045 7.2506 18.7045 7.63892C18.7045 8.02723 19.0193 8.34204 19.4076 8.34204H21.2859C22.0071 8.34204 22.5937 8.92896 22.5937 9.65032V20.4486L19.8394 18.4839C19.2754 18.0815 18.6111 17.8689 17.9184 17.8689H9.41572C8.69455 17.8689 8.10791 17.282 8.10791 16.5606V15.9307C8.10791 15.5424 7.7931 15.2276 7.40479 15.2276C7.01647 15.2276 6.70166 15.5424 6.70166 15.9307V16.5606C6.70166 18.0574 7.91919 19.2752 9.41572 19.2752H17.9184C18.3167 19.2752 18.6986 19.3974 19.0228 19.6287L22.8885 22.3863C23.3504 22.7159 24 22.387 24 21.8139L23.9999 9.65032Z" fill="#AC651E"/>
<path d="M5.05615 6.71899H13.1798C13.5681 6.71899 13.8829 6.40418 13.8829 6.01587C13.8829 5.62756 13.5681 5.31274 13.1798 5.31274H5.05615C4.66784 5.31274 4.35303 5.62756 4.35303 6.01587C4.35303 6.40418 4.66784 6.71899 5.05615 6.71899Z" fill="#AC651E"/>
<path d="M5.05615 10.0002H13.1798C13.5681 10.0002 13.8829 9.68543 13.8829 9.29712C13.8829 8.90881 13.5681 8.59399 13.1798 8.59399H5.05615C4.66784 8.59399 4.35303 8.90881 4.35303 9.29712C4.35303 9.68543 4.66784 10.0002 5.05615 10.0002Z" fill="#AC651E"/>
</g>
<defs>
<clipPath id="clip0_115_372">
<rect width="24" height="24" fill="white"/>
</clipPath>
</defs>
</svg>
