<svg width="24" height="24" viewBox="0 0 24 24" fill="none" xmlns="http://www.w3.org/2000/svg">
<g clip-path="url(#clip0_115_383)">
<path d="M15.7701 8.65317L13.7471 8.08923L12.5857 6.33965C12.3173 5.9235 11.6824 5.92364 11.4141 6.33965L10.2526 8.08923L8.22965 8.65317C8.00273 8.71645 7.82254 8.88913 7.74975 9.11319C7.67695 9.33725 7.7212 9.58287 7.86764 9.76746L9.17276 11.4127L9.08402 13.5108C9.07408 13.7461 9.18265 13.9709 9.37324 14.1093C9.56378 14.2477 9.81099 14.2816 10.0319 14.1994L11.9999 13.4667L13.968 14.1994C14.1888 14.2816 14.4361 14.2477 14.6266 14.1093C14.8172 13.9709 14.9258 13.7461 14.9158 13.5108L14.8271 11.4127L16.1322 9.76746C16.2786 9.58287 16.3228 9.33725 16.2501 9.11319C16.1772 8.88913 15.997 8.71645 15.7701 8.65317ZM13.5627 10.7439C13.4577 10.8762 13.4039 11.0418 13.411 11.2105L13.4661 12.512L12.2452 12.0575C12.087 11.9985 11.9128 11.9985 11.7545 12.0575L10.5337 12.512L10.5887 11.2105C10.5959 11.0418 10.542 10.8762 10.4371 10.7439L9.62753 9.72331L10.8824 9.37348C11.045 9.32811 11.186 9.22578 11.2794 9.08507L11.9999 7.99979L12.7204 9.08507C12.8138 9.22574 12.9547 9.32811 13.1174 9.37348L14.3722 9.72331L13.5627 10.7439Z" fill="#AC651E"/>
<path d="M23.7937 18.5397L21.0514 15.7972C25.1697 8.96515 20.0245 -0.0781874 11.9997 0.000514314C3.97595 -0.0785155 -1.17107 8.9667 2.94824 15.7972L0.205957 18.5397C0.0336472 18.712 -0.0371797 18.9613 0.018835 19.1984C0.0748027 19.4356 0.249643 19.6269 0.48078 19.7039L3.34235 20.6577L4.2961 23.5193C4.37316 23.7504 4.56441 23.9252 4.80159 23.9812C5.03878 24.0372 5.28801 23.9664 5.46032 23.7941L8.77479 20.4799C10.7888 21.1525 13.2107 21.1525 15.2248 20.4799L18.5393 23.7941C18.7116 23.9664 18.9608 24.0372 19.198 23.9812C19.4352 23.9252 19.6264 23.7504 19.7035 23.5193L20.6573 20.6577L23.5188 19.7039C23.75 19.6269 23.9248 19.4356 23.9808 19.1984C24.0368 18.9613 23.966 18.712 23.7937 18.5397ZM5.27071 21.9953L4.56521 19.8793C4.49523 19.6694 4.33046 19.5047 4.12056 19.4347L2.00475 18.7294L3.75377 16.9804C4.72247 18.2068 5.96422 19.2134 7.36008 19.906L5.27071 21.9953ZM11.9998 19.5814C6.98907 19.5814 2.91247 15.5048 2.91247 10.494C3.41163 -1.56161 20.5898 -1.5581 21.0872 10.4941C21.0871 15.5048 17.0106 19.5814 11.9998 19.5814ZM19.879 19.4347C19.6691 19.5047 19.5044 19.6694 19.4344 19.8793L18.7289 21.9953L16.6396 19.906C18.0355 19.2135 19.2772 18.2068 20.2459 16.9804L21.9949 18.7294L19.879 19.4347Z" fill="#AC651E"/>
<path d="M11.9997 3.01294C7.87456 3.01294 4.51855 6.36894 4.51855 10.4941C4.9295 20.4188 19.0714 20.4159 19.4808 10.494C19.4808 6.36894 16.1248 3.01294 11.9997 3.01294ZM11.9997 16.569C8.64995 16.569 5.92478 13.8438 5.92478 10.4941C6.25848 2.43489 17.7421 2.43723 18.0746 10.4941C18.0746 13.8438 15.3494 16.569 11.9997 16.569Z" fill="#AC651E"/>
</g>
<defs>
<clipPath id="clip0_115_383">
<rect width="24" height="24" fill="white"/>
</clipPath>
</defs>
</svg>
