<svg width="24" height="24" viewBox="0 0 24 24" fill="none" xmlns="http://www.w3.org/2000/svg">
<g clip-path="url(#clip0_115_393)">
<path d="M21.8906 2.85938C20.7275 2.85938 19.7812 3.80564 19.7812 4.96875V5.79281C19.5612 5.71477 19.3246 5.67188 19.0781 5.67188C17.915 5.67188 16.9688 6.61814 16.9688 7.78125V10.0118C16.682 10.1127 16.4128 10.2771 16.1835 10.5055L13.9795 12.6627C13.9777 12.6645 13.9759 12.6662 13.9741 12.668C13.1211 13.521 12.4544 14.5188 11.9927 15.6334C11.9905 15.6386 11.9886 15.6438 11.9865 15.649C11.5219 14.55 10.8423 13.5313 9.97903 12.668L7.81959 10.5086C7.59323 10.2822 7.32445 10.1138 7.0313 10.0104V7.78125C7.0313 6.61814 6.08503 5.67188 4.92192 5.67188C4.67545 5.67188 4.43888 5.71477 4.2188 5.79281V4.96875C4.2188 3.80564 3.27253 2.85938 2.10942 2.85938C0.946312 2.85938 0 3.80564 0 4.96875V12.6272C0 13.2643 0.17325 13.8897 0.501 14.436L2.87194 18.3876C3.77067 19.8855 4.26562 21.629 4.26562 23.2969C4.26562 23.6852 4.58044 24 4.96875 24H12H19.0312C19.4196 24 19.7344 23.6852 19.7344 23.2969C19.7344 21.629 20.2293 19.8855 21.1281 18.3876L23.499 14.436C23.8267 13.8897 24 13.2643 24 12.6272V4.96875C24 3.80564 23.0537 2.85938 21.8906 2.85938ZM4.21875 7.7813C4.21875 7.39355 4.53417 7.07812 4.92188 7.07812C5.30958 7.07812 5.625 7.39355 5.625 7.78125V10.0104C5.33184 10.1138 5.06306 10.2822 4.8367 10.5086C4.66247 10.6828 4.52517 10.8801 4.42472 11.0908C4.29192 10.958 4.21875 10.7814 4.21875 10.5936C4.21875 10.2955 4.21875 8.07938 4.21875 7.7813ZM11.2969 22.5938H5.64694C5.52731 20.8955 4.9807 19.1689 4.0778 17.664L1.70686 13.7125C1.51022 13.3847 1.40625 13.0095 1.40625 12.6272V4.96875C1.40625 4.58105 1.72167 4.26562 2.10938 4.26562C2.49708 4.26562 2.8125 4.58105 2.8125 4.96875C2.8125 5.21039 2.8125 10.3665 2.8125 10.5935V10.5953C2.8125 10.5958 2.81259 10.5963 2.81259 10.5969C2.81348 11.1591 3.03272 11.6874 3.43031 12.0851L7.23717 15.8919C7.51172 16.1665 7.95694 16.1665 8.23153 15.8919C8.50613 15.6173 8.50613 15.1722 8.23153 14.8976L5.83102 12.4971C5.55694 12.223 5.55694 11.777 5.83102 11.5029C6.10598 11.228 6.55017 11.228 6.82519 11.5029L8.98462 13.6624C10.4541 15.1319 11.2969 17.1252 11.2969 19.1314V22.5938ZM18.375 7.78125C18.375 7.39355 18.6904 7.07812 19.0781 7.07812C19.4658 7.07812 19.7812 7.39355 19.7812 7.78125C19.7812 8.07881 19.7812 10.2954 19.7812 10.5935C19.7812 10.7813 19.7081 10.9579 19.5753 11.0907L19.5752 11.0908C19.4748 10.8801 19.3375 10.6828 19.1633 10.5086C18.9333 10.2786 18.663 10.113 18.375 10.0117V7.78125ZM22.5938 12.6272C22.5938 13.0095 22.4898 13.3847 22.2931 13.7125L19.9222 17.664C19.0193 19.1689 18.4727 20.8955 18.353 22.5938H12.7031V19.1314C12.7031 17.0666 13.5067 15.1254 14.966 13.6649L17.1694 11.5082C17.1712 11.5065 17.173 11.5047 17.1748 11.5029C17.4489 11.2288 17.8948 11.2288 18.1689 11.5029C18.4439 11.7778 18.4439 12.2221 18.1689 12.497L15.7684 14.8975C15.4938 15.1721 15.4938 15.6173 15.7684 15.8919C16.043 16.1665 16.4882 16.1665 16.7628 15.8919L20.5697 12.085C20.9671 11.6875 21.1864 11.1593 21.1874 10.5974C21.1874 10.5967 21.1875 10.5961 21.1875 10.5955V10.5935C21.1875 10.3695 21.1875 5.21184 21.1875 4.9687C21.1875 4.581 21.5029 4.26558 21.8906 4.26558C22.2783 4.26558 22.5938 4.581 22.5938 4.9687V12.6272Z" fill="#AC651E"/>
<path d="M14.4335 0C13.466 0 12.626 0.443016 11.9996 1.28222C11.3733 0.443016 10.5333 0 9.56573 0C7.74529 0 6.42871 1.51045 6.42871 3.34519C6.42871 5.69123 8.64018 7.15945 11.5391 9.67195C11.6713 9.78652 11.8354 9.84375 11.9996 9.84375C12.1638 9.84375 12.328 9.78647 12.4601 9.67195C15.3612 7.15767 17.5705 5.69048 17.5705 3.34514C17.5705 1.50923 16.2529 0 14.4335 0ZM11.9996 8.21325C9.44202 6.0292 7.83496 4.86675 7.83496 3.34519C7.83496 2.23978 8.57901 1.40625 9.56573 1.40625C10.849 1.40625 11.304 2.93756 11.3229 3.00328C11.4082 3.30619 11.6842 3.51722 11.9992 3.51722C12.3152 3.51722 12.592 3.30792 12.6764 3.00333C12.6951 2.93812 13.15 1.40625 14.4335 1.40625C15.4202 1.40625 16.1643 2.23978 16.1643 3.34519C16.1643 4.86736 14.5558 6.03028 11.9996 8.21325Z" fill="#AC651E"/>
</g>
<defs>
<clipPath id="clip0_115_393">
<rect width="24" height="24" fill="white"/>
</clipPath>
</defs>
</svg>
