<svg width="12" height="12" viewBox="0 0 12 12" fill="none" xmlns="http://www.w3.org/2000/svg">
<path d="M11.7528 3.11446C11.6144 2.60046 11.2092 2.19519 10.6952 2.05681C9.75614 1.7998 5.99997 1.7998 5.99997 1.7998C5.99997 1.7998 2.24381 1.7998 1.30477 2.04692C0.800656 2.18531 0.385501 2.60046 0.247116 3.11446C0 4.0535 0 6.00077 0 6.00077C0 6.00077 0 7.95793 0.247116 8.88709C0.385501 9.40109 0.790771 9.80636 1.30477 9.94474C2.2537 10.2017 5.99997 10.2017 5.99997 10.2017C5.99997 10.2017 9.75614 10.2017 10.6952 9.95463C11.2092 9.81624 11.6144 9.41097 11.7528 8.89697C11.9999 7.95793 11.9999 6.01066 11.9999 6.01066C11.9999 6.01066 12.0098 4.0535 11.7528 3.11446Z" fill="#CFD0D1"/>
<path d="M4.80396 7.80016L7.9275 6.00115L4.80396 4.20215V7.80016Z" fill="#0B0F13"/>
</svg>
